<svg width="197" height="286" viewBox="0 0 197 286" fill="none" xmlns="http://www.w3.org/2000/svg">
<path d="M194.999 118.918C193.192 117.652 191.065 117.039 188.939 117.162C187.628 115.323 188.691 112.586 189.967 110.748C191.243 108.91 192.766 106.786 192.306 104.457C191.562 100.985 187.345 100.862 184.333 101.557C183.199 99.4731 183.235 96.8587 182.703 94.4485C182.172 92.0382 180.364 89.5054 178.38 89.8322C176.396 90.159 175.156 92.6918 173.207 93.2229C170.939 93.8357 168.955 91.5072 167.183 89.7914C166.97 89.5872 166.722 89.3829 166.474 89.1786C166.864 81.9888 172.781 83.1326 177.849 82.1522C181.817 81.4169 171.329 69.856 179.301 66.1385C180.86 65.6483 182.207 64.5453 183.164 63.0747C183.979 60.7461 183.27 58.05 181.427 56.7019C179.62 55.4355 177.494 54.8228 175.368 54.9453C174.057 53.107 175.12 50.3699 176.396 48.5316C177.671 46.6933 179.195 44.5691 178.734 42.2406C177.99 38.7682 173.774 38.6456 170.762 39.3401C169.628 37.2567 169.663 34.6422 169.132 32.232C168.6 29.8218 166.828 27.289 164.809 27.6158C162.824 27.9426 161.584 30.4754 159.635 31.0065C157.368 31.6192 155.383 29.2907 153.611 27.575C151.84 25.8592 148.722 24.7562 147.481 27.0439C146.737 28.392 147.198 30.312 146.418 31.6601C145.107 33.9478 141.954 32.5588 140.005 30.8839C138.056 29.209 134.902 27.7383 133.591 30.026C133.237 30.7613 132.989 31.5783 132.847 32.4362C132.67 33.049 132.386 33.5801 132.067 34.1111C131.678 32.5179 131.571 30.7614 131.217 29.1682C130.686 26.7579 128.914 24.2251 126.894 24.552C124.91 24.8788 123.67 27.4524 121.721 27.9426C119.453 28.5554 117.469 26.2269 115.697 24.5111C113.925 22.7954 110.807 21.6924 109.567 23.98C108.823 25.3281 109.283 27.2482 108.504 28.5963C108.326 28.8822 108.114 29.1681 107.866 29.3315C107.193 29.1681 106.519 29.1682 105.846 29.1682C104.535 27.3707 105.598 24.6336 106.874 22.7545C108.149 20.8753 109.673 18.7511 109.212 16.4634C108.468 12.9911 104.252 12.8685 101.24 13.563C100.106 11.4795 100.141 8.86504 99.6096 6.45482C99.0781 4.0446 97.3064 1.51186 95.2867 1.83867C93.3023 2.20633 92.0621 4.73909 90.1133 5.27016C87.8455 5.88293 85.8612 3.59527 84.0894 1.83867C82.3177 0.0820663 79.1995 -0.980086 77.9593 1.30758C77.2152 2.65568 77.6758 4.5757 76.8963 5.9238C75.5852 8.21147 72.4316 6.78166 70.4827 5.14761C68.5338 3.47271 65.3801 2.00204 64.0336 4.28971C63.6793 5.06588 63.4313 5.8421 63.2895 6.69998C62.3682 9.76382 59.4981 11.3162 57.2303 13.277C54.9979 15.2379 53.2262 19.1596 55.1042 21.5698C56.0255 22.7545 57.6909 23.2039 58.1516 24.7562C58.7185 26.5537 57.0531 28.3511 55.742 29.6584C54.0057 31.9052 53.4742 35.0507 54.3955 37.8694C53.7223 38.5639 52.9427 39.095 52.0923 39.4218C49.8245 40.0346 47.8402 37.7061 46.0685 35.9903C44.2967 34.2746 41.1785 33.1716 39.9383 35.4592C39.1942 36.8073 39.6549 38.7274 38.8753 40.0754C37.5642 42.3631 34.4106 40.9742 32.4617 39.2993C30.5128 37.6244 27.3592 36.1537 26.0127 38.4414C25.6583 39.1767 25.4103 39.9938 25.2686 40.8516C24.3473 43.9155 21.4771 45.4678 19.2093 47.4286C16.9415 49.3895 15.2052 53.3113 17.0832 55.7215C17.9691 56.9062 19.5282 57.3964 20.0597 58.7853C18.5006 58.05 16.6935 58.2543 15.9493 59.6023C15.2052 60.9504 15.6659 62.8704 14.8863 64.2185C13.5752 66.5062 10.4216 65.1173 8.47272 63.4424C6.52383 61.7675 3.37018 60.2968 2.05911 62.5845C1.70477 63.3606 1.45673 64.1368 1.31499 64.9947C0.393702 68.0585 -2.47647 69.57 -4.74426 71.5309C-6.97662 73.4918 -8.74834 77.4135 -6.87033 79.8237C-5.94904 81.0084 -4.28362 81.4577 -3.82298 83.0101C-3.2206 84.8075 -4.88601 86.605 -6.23251 87.9122C-8.42943 90.0773 -8.85465 96.5319 -5.9136 98.2885C-4.6734 99.0238 -2.86626 99.3914 -2.58279 100.821C-2.29931 102.21 -3.53951 103.272 -4.3545 104.375C-4.53167 104.661 -4.70884 104.947 -4.85058 105.274C-6.37425 108.501 -5.38209 112.546 -2.58279 114.343C-1.8741 114.711 -1.02367 115.037 -0.77563 115.895C-0.669327 116.508 -0.740193 117.162 -0.952798 117.774C-1.23627 118.959 -1.34258 120.185 -1.23628 121.369C-1.23628 121.778 -1.09454 122.186 -0.846499 122.472C-0.563025 122.677 -0.244123 122.799 0.0747852 122.799C4.29146 123.003 6.31121 121.288 8.86248 125.536C9.07509 125.945 9.394 126.312 9.74834 126.598C10.1027 126.803 10.4925 126.925 10.9177 126.925C13.8233 127.211 15.6659 125.128 18.3234 124.719C22.0086 124.188 22.7881 126.353 26.0127 128.11C31.0798 130.888 33.5602 129.172 34.5169 125.169C34.7649 124.025 34.9067 122.881 34.9775 121.696C34.9775 119.94 35.6154 118.265 36.7493 117.08H36.8201C39.5131 117.325 41.3557 115.569 43.7298 114.997L45.218 114.792C48.0174 114.792 48.9741 116.712 51.8797 118.265C53.2262 119.082 54.7144 119.531 56.2381 119.613C56.6633 121.41 55.1042 123.044 53.7931 124.311C51.5962 126.476 51.2064 132.93 54.112 134.687C55.3168 135.422 57.1594 135.831 57.4429 137.22C57.7263 138.609 56.4861 139.671 55.6711 140.733C55.494 141.019 55.3168 141.305 55.1751 141.591C53.616 144.818 54.6436 148.862 57.4429 150.66C58.1515 151.027 59.002 151.354 59.25 152.212C59.3563 152.866 59.3209 153.519 59.0728 154.091C58.7894 155.276 58.6831 156.461 58.7894 157.686C58.7894 158.095 58.9311 158.503 59.1792 158.83C59.4626 159.034 59.7815 159.157 60.1004 159.116C64.3171 159.32 66.3369 157.604 68.8881 161.853C69.1007 162.302 69.4197 162.67 69.774 162.915C70.1283 163.119 70.5181 163.242 70.9433 163.242C73.8489 163.528 75.6915 161.445 78.3491 161.036C82.0342 160.505 82.8138 162.67 86.0029 164.427C91.1054 167.164 93.5504 165.489 94.5071 161.485C94.7551 160.342 94.8969 159.198 94.9678 158.013C95.3575 150.823 101.275 151.967 106.342 150.987C106.697 150.987 107.015 150.701 107.157 150.333H107.476C110.382 150.619 112.224 148.536 114.882 148.127C118.567 147.596 119.347 149.761 122.571 151.518C127.638 154.296 130.119 152.58 131.075 148.576C131.323 147.433 131.465 146.289 131.536 145.104C131.855 139.507 135.54 138.976 139.509 138.527C139.65 140.733 140.749 142.735 142.45 143.756C143.158 144.124 144.009 144.45 144.257 145.308C144.363 145.921 144.292 146.575 144.08 147.187C143.796 148.372 143.69 149.557 143.796 150.782C143.796 151.191 143.938 151.599 144.186 151.926C144.469 152.13 144.788 152.253 145.107 152.253C149.324 152.457 151.344 150.741 153.895 154.99C154.108 155.398 154.426 155.766 154.781 156.052C155.135 156.256 155.525 156.379 155.95 156.379C158.856 156.665 160.698 154.581 163.356 154.173C167.041 153.642 167.821 155.807 171.045 157.564C176.112 160.342 178.593 158.626 179.549 154.622C179.797 153.479 179.939 152.335 180.01 151.15C180.4 143.96 186.317 145.104 191.384 144.124C195.353 143.388 184.864 131.827 192.837 128.11C194.396 127.62 195.743 126.517 196.7 125.046C197.444 122.799 196.77 120.307 195.07 118.918H194.999Z" fill="#407BFF" fill-opacity="0.67"/>
<path d="M47.911 161.812C46.3874 160.75 44.6511 160.26 42.8794 160.342C41.7809 158.83 42.6668 156.542 43.7298 154.99C44.7574 153.438 46.0685 151.722 45.6432 149.761C45.0409 146.861 41.5329 146.779 39.017 147.351C38.0603 145.594 38.0957 143.429 37.5997 141.427C37.1036 139.426 35.7571 137.383 34.0208 137.628C32.2491 137.873 31.3278 140.038 29.6978 140.488C27.8198 141.019 26.1544 139.058 24.6662 137.628C23.1779 136.198 20.5912 135.259 19.5636 137.179C18.9612 138.323 19.3156 139.916 18.6778 141.06C17.5793 143.021 14.9572 141.795 13.3272 140.406C11.6972 139.017 9.11051 137.792 7.97662 139.671C7.69314 140.284 7.48055 140.978 7.33881 141.672C6.59469 144.246 4.18516 145.512 2.30714 147.147C0.429125 148.781 -1.05911 152.008 0.535427 154.05C1.31498 155.031 2.66149 155.439 3.0867 156.706C3.58278 158.34 2.16541 159.688 1.06695 160.75C-0.775635 162.547 -1.09454 167.94 1.31499 169.41C2.34258 170.023 3.83082 170.227 4.14972 171.535C4.4332 172.842 3.37016 173.618 2.73235 174.476C1.10237 176.886 1.49216 180.399 3.58278 182.279C3.79538 182.442 3.97255 182.605 4.22059 182.769C4.78754 183.096 5.53166 183.341 5.74427 184.076C5.85057 184.607 5.81513 185.179 5.60253 185.71C5.35449 186.691 5.28362 187.712 5.38992 188.692C5.38992 189.06 5.49622 189.387 5.70883 189.632C5.92143 189.836 6.20491 189.918 6.48839 189.877C9.99638 190.04 11.6618 188.611 13.8233 192.124C14.0004 192.491 14.2485 192.777 14.5674 193.023C14.8863 193.186 15.2052 193.308 15.5241 193.308C17.9337 193.554 19.4928 191.797 21.7251 191.47C24.7725 191.021 25.4103 192.818 28.1033 194.289C32.32 196.577 34.4106 195.147 35.1547 191.838C35.3673 190.898 35.4736 189.918 35.5445 188.978C35.8634 182.973 40.8242 183.913 45.0409 183.096C48.3363 182.442 39.6194 172.883 46.2456 169.778C47.5567 169.37 48.6906 168.471 49.4702 167.205C50.1788 165.244 49.541 162.956 47.9819 161.853L47.911 161.812Z" fill="#407BFF" fill-opacity="0.67"/>
<path opacity="0.2" d="M194.999 118.918C193.192 117.652 191.065 117.039 188.939 117.162C187.628 115.323 188.691 112.586 189.967 110.748C191.243 108.91 192.766 106.786 192.306 104.457C191.562 100.985 187.345 100.862 184.333 101.557C183.199 99.4731 183.235 96.8587 182.703 94.4485C182.172 92.0382 180.364 89.5054 178.38 89.8322C176.396 90.159 175.156 92.6918 173.207 93.2229C170.939 93.8357 168.955 91.5072 167.183 89.7914C166.97 89.5872 166.722 89.3829 166.474 89.1786C166.864 81.9888 172.781 83.1326 177.849 82.1522C181.817 81.4169 171.329 69.856 179.301 66.1385C180.86 65.6483 182.207 64.5453 183.164 63.0747C183.979 60.7461 183.27 58.05 181.427 56.7019C179.62 55.4355 177.494 54.8228 175.368 54.9453C174.057 53.107 175.12 50.3699 176.396 48.5316C177.671 46.6933 179.195 44.5691 178.734 42.2406C177.99 38.7682 173.774 38.6456 170.762 39.3401C169.628 37.2567 169.663 34.6422 169.132 32.232C168.6 29.8218 166.828 27.289 164.809 27.6158C162.824 27.9426 161.584 30.4754 159.635 31.0065C157.368 31.6192 155.383 29.2907 153.611 27.575C151.84 25.8592 148.722 24.7562 147.481 27.0439C146.737 28.392 147.198 30.312 146.418 31.6601C145.107 33.9478 141.954 32.5588 140.005 30.8839C138.056 29.209 134.902 27.7383 133.591 30.026C133.237 30.7613 132.989 31.5783 132.847 32.4362C132.67 33.049 132.386 33.5801 132.067 34.1111C131.678 32.5179 131.571 30.7614 131.217 29.1682C130.686 26.7579 128.914 24.2251 126.894 24.552C124.91 24.8788 123.67 27.4524 121.721 27.9426C119.453 28.5554 117.469 26.2269 115.697 24.5111C113.925 22.7954 110.807 21.6924 109.567 23.98C108.823 25.3281 109.283 27.2482 108.504 28.5963C108.326 28.8822 108.114 29.1681 107.866 29.3315C107.193 29.1681 106.519 29.1682 105.846 29.1682C104.535 27.3707 105.598 24.6336 106.874 22.7545C108.149 20.8753 109.673 18.7511 109.212 16.4634C108.468 12.9911 104.252 12.8685 101.24 13.563C100.106 11.4795 100.141 8.86504 99.6096 6.45482C99.0781 4.0446 97.3064 1.51186 95.2867 1.83867C93.3023 2.20633 92.0621 4.73909 90.1133 5.27016C87.8455 5.88293 85.8612 3.59527 84.0894 1.83867C82.3177 0.0820663 79.1995 -0.980086 77.9593 1.30758C77.2152 2.65568 77.6758 4.5757 76.8963 5.9238C75.5852 8.21147 72.4316 6.78166 70.4827 5.14761C68.5338 3.47271 65.3801 2.00204 64.0336 4.28971C63.6793 5.06588 63.4313 5.8421 63.2895 6.69998C62.3682 9.76382 59.4981 11.3162 57.2303 13.277C54.9979 15.2379 53.2262 19.1596 55.1042 21.5698C56.0255 22.7545 57.6909 23.2039 58.1516 24.7562C58.7185 26.5537 57.0531 28.3511 55.742 29.6584C54.0057 31.9052 53.4742 35.0507 54.3955 37.8694C53.7223 38.5639 52.9427 39.095 52.0923 39.4218C49.8245 40.0346 47.8402 37.7061 46.0685 35.9903C44.2967 34.2746 41.1785 33.1716 39.9383 35.4592C39.1942 36.8073 39.6549 38.7274 38.8753 40.0754C37.5642 42.3631 34.4106 40.9742 32.4617 39.2993C30.5128 37.6244 27.3592 36.1537 26.0127 38.4414C25.6583 39.1767 25.4103 39.9938 25.2686 40.8516C24.3473 43.9155 21.4771 45.4678 19.2093 47.4286C16.9415 49.3895 15.2052 53.3113 17.0832 55.7215C17.9691 56.9062 19.5282 57.3964 20.0597 58.7853C18.5006 58.05 16.6935 58.2543 15.9493 59.6023C15.2052 60.9504 15.6659 62.8704 14.8863 64.2185C13.5752 66.5062 10.4216 65.1173 8.47272 63.4424C6.52383 61.7675 3.37018 60.2968 2.05911 62.5845C1.70477 63.3606 1.45673 64.1368 1.31499 64.9947C0.393702 68.0585 -2.47647 69.57 -4.74426 71.5309C-6.97662 73.4918 -8.74834 77.4135 -6.87033 79.8237C-5.94904 81.0084 -4.28362 81.4577 -3.82298 83.0101C-3.2206 84.8075 -4.88601 86.605 -6.23251 87.9122C-8.42943 90.0773 -8.85465 96.5319 -5.9136 98.2885C-4.6734 99.0238 -2.86626 99.3914 -2.58279 100.821C-2.29931 102.21 -3.53951 103.272 -4.3545 104.375C-4.53167 104.661 -4.70884 104.947 -4.85058 105.274C-6.37425 108.501 -5.38209 112.546 -2.58279 114.343C-1.8741 114.711 -1.02367 115.037 -0.77563 115.895C-0.669327 116.508 -0.740193 117.162 -0.952798 117.774C-1.23627 118.959 -1.34258 120.185 -1.23628 121.369C-1.23628 121.778 -1.09454 122.186 -0.846499 122.472C-0.563025 122.677 -0.244123 122.799 0.0747852 122.799C4.29146 123.003 6.31121 121.288 8.86248 125.536C9.07509 125.945 9.394 126.312 9.74834 126.598C10.1027 126.803 10.4925 126.925 10.9177 126.925C13.8233 127.211 15.6659 125.128 18.3234 124.719C22.0086 124.188 22.7881 126.353 26.0127 128.11C31.0798 130.888 33.5602 129.172 34.5169 125.169C34.7649 124.025 34.9067 122.881 34.9775 121.696C34.9775 119.94 35.6154 118.265 36.7493 117.08H36.8201C39.5131 117.325 41.3557 115.569 43.7298 114.997L45.218 114.792C48.0174 114.792 48.9741 116.712 51.8797 118.265C53.2262 119.082 54.7144 119.531 56.2381 119.613C56.6633 121.41 55.1042 123.044 53.7931 124.311C51.5962 126.476 51.2064 132.93 54.112 134.687C55.3168 135.422 57.1594 135.831 57.4429 137.22C57.7263 138.609 56.4861 139.671 55.6711 140.733C55.494 141.019 55.3168 141.305 55.1751 141.591C53.616 144.818 54.6436 148.862 57.4429 150.66C58.1515 151.027 59.002 151.354 59.25 152.212C59.3563 152.866 59.3209 153.519 59.0728 154.091C58.7894 155.276 58.6831 156.461 58.7894 157.686C58.7894 158.095 58.9311 158.503 59.1792 158.83C59.4626 159.034 59.7815 159.157 60.1004 159.116C64.3171 159.32 66.3369 157.604 68.8881 161.853C69.1007 162.302 69.4197 162.67 69.774 162.915C70.1283 163.119 70.5181 163.242 70.9433 163.242C73.8489 163.528 75.6915 161.445 78.3491 161.036C82.0342 160.505 82.8138 162.67 86.0029 164.427C91.1054 167.164 93.5504 165.489 94.5071 161.485C94.7551 160.342 94.8969 159.198 94.9678 158.013C95.3575 150.823 101.275 151.967 106.342 150.987C106.697 150.987 107.015 150.701 107.157 150.333H107.476C110.382 150.619 112.224 148.536 114.882 148.127C118.567 147.596 119.347 149.761 122.571 151.518C127.638 154.296 130.119 152.58 131.075 148.576C131.323 147.433 131.465 146.289 131.536 145.104C131.855 139.507 135.54 138.976 139.509 138.527C139.65 140.733 140.749 142.735 142.45 143.756C143.158 144.124 144.009 144.45 144.257 145.308C144.363 145.921 144.292 146.575 144.08 147.187C143.796 148.372 143.69 149.557 143.796 150.782C143.796 151.191 143.938 151.599 144.186 151.926C144.469 152.13 144.788 152.253 145.107 152.253C149.324 152.457 151.344 150.741 153.895 154.99C154.108 155.398 154.426 155.766 154.781 156.052C155.135 156.256 155.525 156.379 155.95 156.379C158.856 156.665 160.698 154.581 163.356 154.173C167.041 153.642 167.821 155.807 171.045 157.564C176.112 160.342 178.593 158.626 179.549 154.622C179.797 153.479 179.939 152.335 180.01 151.15C180.4 143.96 186.317 145.104 191.384 144.124C195.353 143.388 184.864 131.827 192.837 128.11C194.396 127.62 195.743 126.517 196.7 125.046C197.444 122.799 196.77 120.307 195.07 118.918H194.999Z" fill="black"/>
<g opacity="0.2">
<path d="M47.911 161.812C46.3874 160.75 44.6511 160.26 42.8794 160.342C41.7809 158.83 42.6668 156.542 43.7298 154.99C44.7574 153.438 46.0685 151.722 45.6432 149.761C45.0409 146.861 41.5329 146.779 39.017 147.351C38.0603 145.594 38.0957 143.429 37.5997 141.427C37.1036 139.426 35.7571 137.383 34.0208 137.628C32.2491 137.873 31.3278 140.038 29.6978 140.488C27.8198 141.019 26.1544 139.058 24.6662 137.628C23.1779 136.198 20.5912 135.259 19.5636 137.179C18.9612 138.323 19.3156 139.916 18.6778 141.06C17.5793 143.021 14.9572 141.795 13.3272 140.406C11.6972 139.017 9.11051 137.792 7.97662 139.671C7.69314 140.284 7.48055 140.978 7.33881 141.672C6.59469 144.246 4.18516 145.512 2.30714 147.147C0.429125 148.781 -1.05911 152.008 0.535427 154.05C1.31498 155.031 2.66149 155.439 3.0867 156.706C3.58278 158.34 2.16541 159.688 1.06695 160.75C-0.775635 162.547 -1.09454 167.94 1.31499 169.41C2.34258 170.023 3.83082 170.227 4.14972 171.535C4.4332 172.842 3.37016 173.618 2.73235 174.476C1.10237 176.886 1.49216 180.399 3.58278 182.279C3.79538 182.442 3.97255 182.605 4.22059 182.769C4.78754 183.096 5.53166 183.341 5.74427 184.076C5.85057 184.607 5.81513 185.179 5.60253 185.71C5.35449 186.691 5.28362 187.712 5.38992 188.692C5.38992 189.06 5.49622 189.387 5.70883 189.632C5.92143 189.836 6.20491 189.918 6.48839 189.877C9.99638 190.04 11.6618 188.611 13.8233 192.124C14.0004 192.491 14.2485 192.777 14.5674 193.023C14.8863 193.186 15.2052 193.308 15.5241 193.308C17.9337 193.554 19.4928 191.797 21.7251 191.47C24.7725 191.021 25.4103 192.818 28.1033 194.289C32.32 196.577 34.4106 195.147 35.1547 191.838C35.3673 190.898 35.4736 189.918 35.5445 188.978C35.8634 182.973 40.8242 183.913 45.0409 183.096C48.3363 182.442 39.6194 172.883 46.2456 169.778C47.5567 169.37 48.6906 168.471 49.4702 167.205C50.1788 165.244 49.541 162.956 47.9819 161.853L47.911 161.812Z" fill="black"/>
</g>
<path d="M112.366 128.682L117.787 108.828L128.347 93.1409L126.54 91.3844L116.583 103.926L114.811 84.0719H111.941C111.941 84.0719 114.315 107.643 110.913 116.304C110.913 116.304 98.5112 152.661 90.9637 160.546C90.5384 160.995 90.1487 161.526 89.8652 162.098C87.5974 155.398 84.6564 149.066 81.1129 143.143C84.0894 134.36 90.503 115.037 92.6645 104.702C94.3654 96.6541 95.641 88.5247 96.4914 80.3136L94.011 79.9868C94.011 79.9868 86.995 118.183 75.408 135.545C71.9709 131.909 68.0731 128.886 63.8565 126.598C62.8997 121.247 62.51 111.892 65.5927 97.3078L63.1478 96.5725C63.1478 96.5725 58.4705 108.91 58.8957 123.698C57.1594 122.676 55.4585 121.533 53.864 120.266C42.7022 111.197 34.8358 94.8567 34.8358 94.8567L32.5326 97.4303C32.5326 97.4303 42.0644 121.573 55.3522 129.621C68.6401 137.669 77.2506 157.318 77.9239 162.466C78.101 163.936 79.6601 175.62 77.5341 196.045C63.3958 189.101 35.3673 169.941 33.5247 168.185L30.2648 173.25L75.5852 210.629C76.2939 260.468 73.1048 274.807 73.2111 286H99.6096C98.9718 270.517 93.3378 249.846 95.7827 189.019C95.9953 187.507 96.2079 185.832 96.4205 183.831C98.4757 165.162 110.771 139.711 116.583 132.44C122.855 124.678 129.8 118.51 129.8 118.51L128.205 114.547L112.366 128.6V128.682Z" fill="#263238"/>
</svg>
