<svg width="272" height="209" viewBox="0 0 272 209" fill="none" xmlns="http://www.w3.org/2000/svg">
<path d="M121.346 167.84C118.126 172.6 114.616 171.78 112.186 170.12C110.893 169.247 109.779 168.133 108.906 166.84C108.152 168.473 106.944 169.855 105.426 170.821C103.909 171.787 102.145 172.297 100.346 172.29C98.5356 172.334 96.7648 171.753 95.3329 170.643C93.901 169.534 92.8956 167.965 92.4865 166.2C92.4865 166.2 90.7665 173.68 81.9165 172.15C73.3365 170.55 74.5564 166.54 74.6364 166.3C72.9064 167.64 63.9764 167.61 58.3264 163.23C52.6764 158.85 55.7765 154.44 55.7565 154.45C44.5065 155.54 39.7064 149.8 36.9964 145.94C34.2864 142.08 38.5965 138.33 38.5865 138.33C26.3465 135.95 20.3464 127.64 20.8564 123.79C21.3364 120.09 24.4564 121.01 24.7464 121.08C16.8464 118.08 7.28645 107.59 9.13645 103.53C10.8264 99.7299 17.9465 103.9 18.5665 104.23C0.286449 93.4899 -0.793552 84.4199 0.346448 80.2899C1.48645 76.1599 15.4264 85.4299 15.7464 85.4299C-3.43356 68.5799 -0.66355 58.0099 1.60645 56.2399C3.87645 54.4699 17.8164 68.1499 17.9564 67.9199C-0.0435505 47.8399 10.3064 30.5799 12.8164 38.1899C15.4964 45.4599 23.8164 54.8899 23.9664 54.8899C10.6364 31.8099 24.8765 23.0799 25.1965 31.3399C24.7965 40.0299 45.1964 73.6899 46.0764 73.0799C45.0764 73.5999 73.7664 109.88 97.3264 122.43C99.608 123.827 101.79 125.381 103.856 127.08C104.856 127.92 105.856 128.78 106.856 129.67C110.069 132.664 112.924 136.02 115.366 139.67C122.696 150.65 124.666 162.15 121.346 167.84Z" fill="#407BFF"/>
<path d="M58.5563 85.2898C57.8563 85.7298 38.3563 56.7698 35.8263 47.4198C32.3863 38.2098 29.6463 61.8998 44.0863 77.0298C44.0063 77.1998 30.6763 66.0298 26.3363 60.3198C21.7963 54.6198 26.1463 74.0598 41.7763 84.5598C41.7263 84.8298 24.2463 74.9898 21.9463 72.2698C19.6163 69.3598 19.1163 82.6098 45.0063 96.4698C45.0063 96.9698 20.3763 85.3298 20.7363 89.7098C20.9963 94.6298 35.3263 104.35 50.7363 107.5C50.7963 107.77 31.0663 104.75 30.1963 109.16C29.4863 114.34 57.1963 117.97 57.0363 117.47C57.1463 117.68 37.8063 119.35 39.7263 123.94C41.8863 129.05 64.9063 128.09 64.7263 127.8C64.8263 127.91 48.7263 133.95 51.0863 138.8C53.5463 143.8 66.2663 142.39 74.5963 134.43C74.5963 134.43 64.2463 145.13 69.5963 151.08C74.9463 157.03 84.4363 142.8 84.4363 142.83C84.4363 142.86 79.0263 155.48 85.1263 159.15C91.1263 162.66 93.8063 144.69 93.9663 144.77C93.7263 144.7 95.4263 163.06 102.216 162.22C108.626 161.27 107.266 150.06 107.366 150.09C107.026 149.94 108.366 170.09 123.816 162.09C137.296 153.89 105.286 126.32 91.8163 115.93C76.2263 106.47 58.2363 85.4298 58.5563 85.2898Z" fill="#407BFF"/>
<path opacity="0.2" d="M58.5563 85.2898C57.8563 85.7298 38.3563 56.7698 35.8263 47.4198C32.3863 38.2098 29.6463 61.8998 44.0863 77.0298C44.0063 77.1998 30.6763 66.0298 26.3363 60.3198C21.7963 54.6198 26.1463 74.0598 41.7763 84.5598C41.7263 84.8298 24.2463 74.9898 21.9463 72.2698C19.6163 69.3598 19.1163 82.6098 45.0063 96.4698C45.0063 96.9698 20.3763 85.3298 20.7363 89.7098C20.9963 94.6298 35.3263 104.35 50.7363 107.5C50.7963 107.77 31.0663 104.75 30.1963 109.16C29.4863 114.34 57.1963 117.97 57.0363 117.47C57.1463 117.68 37.8063 119.35 39.7263 123.94C41.8863 129.05 64.9063 128.09 64.7263 127.8C64.8263 127.91 48.7263 133.95 51.0863 138.8C53.5463 143.8 66.2663 142.39 74.5963 134.43C74.5963 134.43 64.2463 145.13 69.5963 151.08C74.9463 157.03 84.4363 142.8 84.4363 142.83C84.4363 142.86 79.0263 155.48 85.1263 159.15C91.1263 162.66 93.8063 144.69 93.9663 144.77C93.7263 144.7 95.4263 163.06 102.216 162.22C108.626 161.27 107.266 150.06 107.366 150.09C107.026 149.94 108.366 170.09 123.816 162.09C137.296 153.89 105.286 126.32 91.8163 115.93C76.2263 106.47 58.2363 85.4298 58.5563 85.2898Z" fill="white"/>
<path d="M113.236 124.51C113.166 124.51 103.096 116.77 94.0464 111.69C84.4064 107.18 62.3664 87.18 55.5564 78.14C48.3364 69.35 50.2764 83.95 61.3164 91.08C58.2624 90.0139 55.3105 88.6752 52.4964 87.08C48.3764 84.45 49.4264 92.22 64.1264 99.08C64.1264 99.08 55.9964 96.36 53.9164 97.46C51.7864 98.88 70.3464 106.11 70.3664 105.83C70.3664 105.96 57.8764 102.69 58.1664 106.19C58.5364 110.01 74.8164 111.73 74.7564 111.55C74.7564 111.66 62.2564 111.12 63.2764 115.1C64.4464 119.34 80.3464 117.29 80.2764 117.1C80.3264 117.16 70.1364 119.86 71.2764 123.4C72.4164 126.94 84.3664 121.4 84.2764 121.33C84.1864 121.26 78.3364 126.67 80.5964 130.23C82.8564 133.79 90.8564 126.78 90.8264 126.77C90.7964 126.76 85.5764 131.87 89.3564 137.19C93.1364 142.51 96.0064 128.98 96.0764 129.02C96.1464 129.06 93.5164 140.22 100.276 143.86C106.866 147.34 103.536 133.37 103.696 133.41C103.546 133.41 106.816 146.41 113.816 147.5C120.166 148.42 112.686 124.46 113.236 124.51Z" fill="#407BFF"/>
<path opacity="0.4" d="M113.236 124.51C113.166 124.51 103.096 116.77 94.0464 111.69C84.4064 107.18 62.3664 87.18 55.5564 78.14C48.3364 69.35 50.2764 83.95 61.3164 91.08C58.2624 90.0139 55.3105 88.6752 52.4964 87.08C48.3764 84.45 49.4264 92.22 64.1264 99.08C64.1264 99.08 55.9964 96.36 53.9164 97.46C51.7864 98.88 70.3464 106.11 70.3664 105.83C70.3664 105.96 57.8764 102.69 58.1664 106.19C58.5364 110.01 74.8164 111.73 74.7564 111.55C74.7564 111.66 62.2564 111.12 63.2764 115.1C64.4464 119.34 80.3464 117.29 80.2764 117.1C80.3264 117.16 70.1364 119.86 71.2764 123.4C72.4164 126.94 84.3664 121.4 84.2764 121.33C84.1864 121.26 78.3364 126.67 80.5964 130.23C82.8564 133.79 90.8564 126.78 90.8264 126.77C90.7964 126.76 85.5764 131.87 89.3564 137.19C93.1364 142.51 96.0064 128.98 96.0764 129.02C96.1464 129.06 93.5164 140.22 100.276 143.86C106.866 147.34 103.536 133.37 103.696 133.41C103.546 133.41 106.816 146.41 113.816 147.5C120.166 148.42 112.686 124.46 113.236 124.51Z" fill="white"/>
<path opacity="0.2" d="M121.347 167.84C118.127 172.6 114.617 171.78 112.187 170.12C108.367 162.99 107.497 153.12 107.497 153.12C107.497 153.12 104.897 160.93 102.327 147.49C100.107 135.86 103.067 128.75 103.897 127.05C104.027 126.79 104.107 126.65 104.107 126.65C104.107 126.65 105.167 127.76 106.867 129.65C108.977 131.99 112.077 135.53 115.377 139.65C122.697 150.65 124.667 162.15 121.347 167.84Z" fill="black"/>
<path d="M178.977 185.05C178.977 185.05 186.886 187.68 187.026 190.71C187.166 193.74 182.407 196.91 177.797 196.12C177.797 196.12 180.697 199.94 175.547 202.31C173.942 202.994 172.216 203.346 170.471 203.346C168.727 203.346 167.001 202.994 165.396 202.31C165.396 202.31 167.507 206.8 160.517 208.64C153.527 210.48 146.517 204.56 146.517 204.56C146.517 204.56 149.337 207.85 143.117 207.85C141.386 207.884 139.685 207.39 138.243 206.432C136.801 205.474 135.686 204.099 135.046 202.49C135.046 202.49 133.566 205.6 131.356 203.84C126.046 199.62 130.566 180.42 130.566 180.42L168.806 178.18L178.977 185.05Z" fill="#407BFF"/>
<path opacity="0.15" d="M178.977 185.05C178.977 185.05 186.886 187.68 187.026 190.71C187.166 193.74 182.407 196.91 177.797 196.12C177.797 196.12 180.697 199.94 175.547 202.31C173.942 202.994 172.216 203.346 170.471 203.346C168.727 203.346 167.001 202.994 165.396 202.31C165.396 202.31 167.507 206.8 160.517 208.64C153.527 210.48 146.517 204.56 146.517 204.56C146.517 204.56 149.337 207.85 143.117 207.85C141.386 207.884 139.685 207.39 138.243 206.432C136.801 205.474 135.686 204.099 135.046 202.49C135.046 202.49 133.566 205.6 131.356 203.84C126.046 199.62 130.566 180.42 130.566 180.42L168.806 178.18L178.977 185.05Z" fill="black"/>
<path d="M164.276 172.97C164.276 172.97 186.906 182.18 183.826 187.97C181.356 192.59 172.186 189.02 172.186 189.02C172.186 189.02 178.406 194.02 175.746 196.74C171.746 200.74 162.746 196.74 162.746 196.74C162.746 196.74 165.906 201.29 162.746 203.86C159.586 206.43 151.866 201.52 151.866 201.52C151.866 201.52 153.386 206.04 147.286 206.63C141.186 207.22 135.846 197.41 135.846 197.41C135.846 197.41 135.176 200.87 132.286 201.52C126.286 202.87 124.456 197.01 127.696 189.02C130.095 183.449 132.968 178.096 136.286 173.02L164.276 172.97Z" fill="#407BFF"/>
<path d="M131.097 166.22C131.097 166.22 126.757 182.07 122.907 188.4C119.057 194.73 129.377 192.97 134.667 185.05C134.667 185.05 136.087 198.36 140.667 199.24C145.817 200.24 144.027 187.94 144.027 187.94C144.027 187.94 148.127 201.49 155.347 201.49C162.567 201.49 153.257 186.37 153.257 186.37C153.257 186.37 160.647 196.31 167.257 193.94C173.867 191.57 159.067 178.18 159.067 178.18C159.067 178.18 172.787 186.29 177.537 182.73C182.287 179.17 166.457 172.78 159.077 166.22C151.697 159.66 131.097 166.22 131.097 166.22Z" fill="#407BFF"/>
<path opacity="0.2" d="M131.097 166.22C131.097 166.22 126.757 182.07 122.907 188.4C119.057 194.73 129.377 192.97 134.667 185.05C134.667 185.05 136.087 198.36 140.667 199.24C145.817 200.24 144.027 187.94 144.027 187.94C144.027 187.94 148.127 201.49 155.347 201.49C162.567 201.49 153.257 186.37 153.257 186.37C153.257 186.37 160.647 196.31 167.257 193.94C173.867 191.57 159.067 178.18 159.067 178.18C159.067 178.18 172.787 186.29 177.537 182.73C182.287 179.17 166.457 172.78 159.077 166.22C151.697 159.66 131.097 166.22 131.097 166.22Z" fill="white"/>
<path d="M107.626 130.29C107.626 130.29 105.626 144.45 108.726 152.61C111.826 160.77 113.536 158.32 113.536 158.32C113.536 158.32 117.216 175.01 121.826 175.26C121.826 175.26 127.006 183.99 136.826 185.69C146.646 187.39 153.827 177.53 153.827 177.53C153.827 177.53 154.257 178.3 155.827 177.23C157.397 176.16 156.616 160.95 156.616 160.95C156.616 160.95 156.916 163.12 158.336 159.88C159.756 156.64 150.706 129.39 135.116 122.52C119.526 115.65 107.626 130.29 107.626 130.29Z" fill="#407BFF"/>
<path opacity="0.3" d="M158.347 159.86C156.917 163.1 156.617 160.93 156.617 160.93C156.617 160.93 157.357 176.15 155.827 177.21C154.297 178.27 153.827 177.51 153.827 177.51C153.827 177.51 146.587 187.37 136.827 185.67C127.347 184.03 122.187 175.78 121.877 175.27C117.267 175.02 113.587 158.33 113.587 158.33C113.587 158.33 111.857 160.79 108.777 152.63C105.697 144.47 107.677 130.3 107.677 130.3C107.677 130.3 119.537 115.66 135.127 122.53C143.707 126.31 150.317 136.27 154.277 145C157.467 152.1 158.947 158.4 158.347 159.86Z" fill="white"/>
<path opacity="0.2" d="M158.346 159.86C156.916 163.1 156.616 160.93 156.616 160.93C156.616 160.93 157.356 176.15 155.826 177.21C154.296 178.27 153.826 177.51 153.826 177.51C153.826 177.51 146.586 187.37 136.826 185.67C127.346 184.03 122.186 175.78 121.876 175.27C123.112 176.718 124.492 178.034 125.996 179.2C127.756 180.39 129.806 180.96 130.616 180.42C131.426 179.88 131.206 177.72 131.206 177.72C132.033 178.79 133.112 179.639 134.346 180.19C136.626 181.28 137.346 179.69 137.346 179.69C138.135 180.297 139.102 180.624 140.096 180.62C141.876 180.68 143.546 177.18 143.546 177.18C144.344 177.896 145.295 178.42 146.326 178.71C147.606 178.9 148.796 175.43 148.796 175.43C148.796 175.43 149.296 176.33 150.796 175.84C152.296 175.35 153.066 168.02 153.066 168.02C153.066 168.02 152.196 169.31 150.256 166.74C148.316 164.17 146.446 158.33 146.446 158.33C146.446 158.33 141.116 157.07 140.516 149.98C140.186 146.06 147.576 145.07 154.246 144.98C157.466 152.1 158.946 158.4 158.346 159.86Z" fill="black"/>
<path d="M148.797 175.43C148.797 175.43 149.317 182.17 149.017 183.63C148.717 185.09 145.447 188.2 145.447 188.2C145.447 188.2 146.806 193.56 146.996 195.65C147.037 197.268 146.804 198.88 146.306 200.42C145.932 197.588 145.262 194.802 144.306 192.11C144.306 192.11 144.167 196.7 144.227 197.97C144.512 199.666 144.683 201.38 144.737 203.1C144.737 203.1 143.806 201.25 142.626 198.8C141.446 196.35 141.886 192.15 141.886 192.15C141.494 193.898 141.266 195.679 141.206 197.47C141.376 198.339 141.648 199.185 142.016 199.99C142.016 199.99 140.016 197.66 139.816 195.57C139.616 193.48 141.036 188.57 141.646 187.11C142.256 185.65 145.477 182.94 145.477 182.94L143.577 177.18C143.577 177.18 144.376 177.85 144.996 177.47C145.616 177.09 146.197 174.52 146.197 174.52C146.197 174.52 146.837 176.64 147.297 176.6C147.757 176.56 148.797 175.43 148.797 175.43Z" fill="#263238"/>
<path d="M131.176 177.72C132.05 179.53 132.773 181.41 133.336 183.34C133.566 184.81 131.576 188.88 131.576 188.88C131.576 188.88 134.716 193.42 135.626 195.32C136.225 196.825 136.563 198.421 136.626 200.04C135.288 197.512 133.682 195.135 131.836 192.95C131.836 192.95 133.296 197.3 133.836 198.47C134.696 199.959 135.451 201.506 136.096 203.1C136.096 203.1 134.586 201.69 132.626 199.8C130.666 197.91 129.626 193.8 129.626 193.8C129.868 195.577 130.273 197.327 130.836 199.03C131.298 199.786 131.848 200.485 132.476 201.11C132.476 201.11 129.786 199.63 128.876 197.73C127.966 195.83 127.566 190.73 127.646 189.17C127.726 187.61 129.786 183.92 129.786 183.92L126.006 179.18C126.006 179.18 127.446 180.18 127.896 179.6C128.346 179.02 127.656 177.13 127.656 177.13C127.656 177.13 129.656 179.37 130.806 179.49C131.236 179.55 131.176 177.72 131.176 177.72Z" fill="#263238"/>
<path d="M184.847 71.4299C186.337 72.1399 203.117 19.9999 198.667 6.8099C195.197 -6.1901 225.887 -3.4701 211.837 40.7199C211.947 40.9199 222.977 21.9799 224.767 8.2799C225.997 -6.6501 254.767 12.0299 228.767 54.8499C229.167 55.4299 249.927 25.5499 255.337 25.5199C260.747 25.4899 271.597 39.6599 241.397 75.3799C241.617 75.9099 264.817 53.8299 269.197 57.8199C273.577 61.8099 276.007 75.2199 246.197 98.0199C246.257 98.1299 257.987 88.8699 263.647 92.0199C269.487 95.2599 257.487 111.67 245.297 117.67C245.297 117.67 250.547 115.21 253.887 118.67C257.257 121.97 252.217 132.34 233.767 137.48C233.767 137.48 243.237 139.72 241.597 143.73C240.017 147.5 236.807 153.58 219.657 153.95C219.657 153.95 227.187 157.26 222.657 161.38C218.287 165.38 206.827 165.8 203.657 164.67C203.657 164.67 208.817 168.06 199.427 169.4C190.427 170.55 182.937 164.2 182.967 164.23C182.997 164.26 186.137 169.23 179.247 168.84C172.577 168.37 166.657 163.7 166.667 163.71C166.677 163.72 167.467 171.33 155.917 163.46C144.477 155.33 135.327 133.82 148.617 124.15C166.057 113.1 186.067 71.8499 184.847 71.4299Z" fill="#407BFF"/>
<path d="M175.346 91.0998C176.226 91.5598 192.146 55.9798 193.116 43.2098C195.226 29.4098 207.706 60.8898 191.706 81.6198C191.846 81.9298 207.916 66.5398 213.086 57.7998C218.786 48.3798 218.156 75.4598 198.086 90.0698C198.226 90.6798 221.907 75.9698 224.887 71.4398C227.887 66.4398 233.396 84.2198 198.466 103.31C198.666 104.46 232.556 87.2198 233.836 91.6098C235.406 97.1598 216.227 111.55 195.447 114.91C195.447 115.57 223.086 110.91 226.686 114.74C230.186 120.52 191.796 125.89 191.876 124.74C191.746 125.35 219.746 126.36 219.406 130.49C218.776 135.95 187.266 134.94 187.406 134.19C187.256 134.6 211.577 140.57 211.297 144.63C210.877 149.08 193.417 147.92 179.237 139.47C179.087 139.67 197.536 150.09 194.836 154.78C191.886 159.64 172.896 146.18 173.066 145.99C172.976 146.07 186.376 157.82 182.146 160.26C177.916 162.7 164.226 146.44 164.346 146.39C164.466 146.34 173.696 162.31 166.776 160.65C160.086 158.95 154.616 149.1 154.626 149.13C154.626 148.97 165.626 166.71 147.626 157.23C131.516 147.43 142.406 126.07 151.336 119.23C162.886 111.86 175.706 91.2198 175.346 91.0998Z" fill="#407BFF"/>
<path opacity="0.2" d="M175.346 91.0998C176.226 91.5598 192.146 55.9798 193.116 43.2098C195.226 29.4098 207.706 60.8898 191.706 81.6198C191.846 81.9298 207.916 66.5398 213.086 57.7998C218.786 48.3798 218.156 75.4598 198.086 90.0698C198.226 90.6798 221.907 75.9698 224.887 71.4398C227.887 66.4398 233.396 84.2198 198.466 103.31C198.666 104.46 232.556 87.2198 233.836 91.6098C235.406 97.1598 216.227 111.55 195.447 114.91C195.447 115.57 223.086 110.91 226.686 114.74C230.186 120.52 191.796 125.89 191.876 124.74C191.746 125.35 219.746 126.36 219.406 130.49C218.776 135.95 187.266 134.94 187.406 134.19C187.256 134.6 211.577 140.57 211.297 144.63C210.877 149.08 193.417 147.92 179.237 139.47C179.087 139.67 197.536 150.09 194.836 154.78C191.886 159.64 172.896 146.18 173.066 145.99C172.976 146.07 186.376 157.82 182.146 160.26C177.916 162.7 164.226 146.44 164.346 146.39C164.466 146.34 173.696 162.31 166.776 160.65C160.086 158.95 154.616 149.1 154.626 149.13C154.626 148.97 165.626 166.71 147.626 157.23C131.516 147.43 142.406 126.07 151.336 119.23C162.886 111.86 175.706 91.2198 175.346 91.0998Z" fill="white"/>
<path d="M137.046 143.16C133.486 134.74 136.726 124.63 144.606 120.4L144.806 120.29C152.736 116.99 170.586 97.1497 176.506 86.7797C183.376 75.7097 186.346 93.9697 174.106 101.98C177.769 100.95 181.3 99.4966 184.626 97.6497C189.556 94.4197 191.186 103.88 173.956 110.85C173.956 110.95 183.716 108.41 187.206 109.65C190.826 111.45 169.206 118.2 169.116 117.71C169.116 117.94 184.026 115.48 185.356 119.19C186.626 123.48 166.436 123.75 166.486 123.37C166.486 123.6 182.146 124.37 182.876 128.37C183.416 132.92 162.636 128.88 162.746 128.52C162.686 128.68 176.426 132.86 176.936 136.27C177.246 140.02 160.166 132.56 160.286 132.34C160.236 132.4 169.966 138.78 169.286 142.03C168.606 145.28 155.776 137.03 155.866 136.88C155.816 136.88 164.376 142.96 163.276 147.67C162.176 152.38 151.436 138.32 151.516 138.27C151.596 138.22 160.346 149.99 155.596 152.43C150.966 154.69 146.196 141.33 146.196 141.36C146.196 141.39 150.436 153.74 144.616 153.58C142.076 153.49 139.346 148.5 137.046 143.16Z" fill="#407BFF"/>
<path opacity="0.4" d="M137.046 143.16C133.486 134.74 136.726 124.63 144.606 120.4L144.806 120.29C152.736 116.99 170.586 97.1497 176.506 86.7797C183.376 75.7097 186.346 93.9697 174.106 101.98C177.769 100.95 181.3 99.4966 184.626 97.6497C189.556 94.4197 191.186 103.88 173.956 110.85C173.956 110.95 183.716 108.41 187.206 109.65C190.826 111.45 169.206 118.2 169.116 117.71C169.116 117.94 184.026 115.48 185.356 119.19C186.626 123.48 166.436 123.75 166.486 123.37C166.486 123.6 182.146 124.37 182.876 128.37C183.416 132.92 162.636 128.88 162.746 128.52C162.686 128.68 176.426 132.86 176.936 136.27C177.246 140.02 160.166 132.56 160.286 132.34C160.236 132.4 169.966 138.78 169.286 142.03C168.606 145.28 155.776 137.03 155.866 136.88C155.816 136.88 164.376 142.96 163.276 147.67C162.176 152.38 151.436 138.32 151.516 138.27C151.596 138.22 160.346 149.99 155.596 152.43C150.966 154.69 146.196 141.33 146.196 141.36C146.196 141.39 150.436 153.74 144.616 153.58C142.076 153.49 139.346 148.5 137.046 143.16Z" fill="white"/>
<path d="M128.517 118.85C128.517 118.85 128.107 109.54 119.837 107.94C111.567 106.34 107.527 110.14 106.267 115.29C105.512 118.168 105.242 121.152 105.467 124.12C104.373 125.47 103.699 127.111 103.527 128.84C103.267 131.66 104.937 130.09 104.937 130.09C104.212 132.302 104.188 134.683 104.867 136.91C106.077 140.13 106.157 137.02 106.157 137.02C106.157 137.02 106.157 143.58 107.237 144.87C108.317 146.16 108.547 143.59 108.547 143.59C108.547 143.59 110.837 149.03 112.547 150.64C114.257 152.25 113.687 149.75 113.687 149.75C113.687 149.75 118.367 154.41 119.907 154.61C121.447 154.81 120.557 152.09 120.557 152.09C120.557 152.09 124.087 155.52 126.007 154.77C126.532 154.601 127.005 154.299 127.379 153.892C127.752 153.485 128.013 152.988 128.137 152.45C128.137 152.45 128.667 153.95 129.927 153.14C131.187 152.33 132.347 149.78 132.347 149.78C132.48 149.918 132.64 150.028 132.817 150.104C132.994 150.179 133.184 150.218 133.377 150.218C133.569 150.218 133.759 150.179 133.936 150.104C134.113 150.028 134.273 149.918 134.407 149.78C135.133 148.78 135.601 147.615 135.767 146.39C135.767 146.39 135.627 147.24 136.877 146.56C138.127 145.88 138.627 139.7 138.627 139.7C138.627 139.7 139.427 139.64 140.007 137.57C140.587 135.5 138.097 131.57 138.097 131.57C138.097 131.57 139.337 131.82 139.267 130.36C139.197 128.9 136.487 125.27 136.487 125.27C136.487 125.27 137.597 125.4 136.487 123.93C135.377 122.46 128.517 118.85 128.517 118.85Z" fill="#407BFF"/>
<path opacity="0.5" d="M140.007 137.56C139.427 139.63 138.627 139.69 138.627 139.69C138.627 139.69 138.137 145.87 136.877 146.55C135.617 147.23 135.767 146.38 135.767 146.38C135.601 147.605 135.133 148.77 134.407 149.77C134.273 149.908 134.113 150.018 133.936 150.094C133.759 150.169 133.569 150.208 133.377 150.208C133.184 150.208 132.994 150.169 132.817 150.094C132.64 150.018 132.48 149.908 132.347 149.77C132.347 149.77 131.197 152.31 129.927 153.13C128.657 153.95 128.137 152.44 128.137 152.44C128.013 152.978 127.752 153.475 127.379 153.882C127.005 154.289 126.532 154.591 126.007 154.76C124.087 155.51 120.557 152.08 120.557 152.08C120.557 152.08 121.437 154.81 119.907 154.61C118.377 154.41 113.687 149.74 113.687 149.74C113.687 149.74 114.257 152.24 112.547 150.63C110.837 149.02 108.547 143.58 108.547 143.58C108.547 143.58 108.317 146.15 107.237 144.86C106.157 143.57 106.157 137.01 106.157 137.01C106.157 137.01 106.077 140.12 104.867 136.9C104.189 134.681 104.21 132.307 104.927 130.1C104.827 130.18 103.277 131.56 103.527 128.83C103.653 127.54 104.063 126.293 104.727 125.18C104.939 124.801 105.187 124.443 105.467 124.11C105.242 121.142 105.513 118.158 106.267 115.28C107.527 110.13 111.577 106.28 119.837 107.93C128.097 109.58 128.517 118.84 128.517 118.84L129.177 119.19C130.917 120.13 135.567 122.72 136.477 123.91C137.597 125.39 136.477 125.25 136.477 125.25C136.477 125.25 139.187 128.87 139.257 130.34C139.327 131.81 138.087 131.55 138.087 131.55C138.087 131.55 140.587 135.5 140.007 137.56Z" fill="white"/>
<path d="M118.447 119.73C118.447 119.73 115.957 115.81 114.667 116.08C112.247 116.59 111.227 119.61 111.227 119.61C111.224 120.584 111.473 121.542 111.95 122.392C112.426 123.241 113.114 123.954 113.947 124.46C113.947 124.46 117.807 122.45 118.447 119.73Z" fill="#407BFF"/>
<path opacity="0.2" d="M111.237 119.61C111.23 119.73 111.23 119.85 111.237 119.97C111.304 120.874 111.584 121.75 112.053 122.527C112.522 123.304 113.167 123.959 113.937 124.44C113.937 124.44 117.807 122.44 118.447 119.72C118.447 119.72 115.957 115.8 114.667 116.06C112.237 116.59 111.237 119.61 111.237 119.61Z" fill="black"/>
<path opacity="0.2" d="M111.236 119.98C111.304 120.885 111.584 121.761 112.053 122.537C112.522 123.314 113.167 123.969 113.936 124.45C113.936 124.45 117.806 122.45 118.446 119.73C117.158 121.082 115.51 122.036 113.696 122.48C112.659 121.892 111.807 121.026 111.236 119.98Z" fill="black"/>
<path d="M123.587 116.62C123.527 116.91 123.584 117.212 123.745 117.461C123.905 117.71 124.158 117.885 124.447 117.95C124.977 118 125.447 117.48 125.527 116.79C125.589 116.499 125.533 116.196 125.372 115.947C125.211 115.697 124.957 115.522 124.667 115.46C124.127 115.41 123.647 115.93 123.587 116.62Z" fill="#263238"/>
<path d="M106.756 115.99C106.787 116.174 106.869 116.345 106.992 116.485C107.115 116.625 107.274 116.728 107.453 116.782C107.631 116.836 107.821 116.839 108.001 116.791C108.181 116.743 108.344 116.645 108.471 116.509C108.599 116.374 108.686 116.205 108.723 116.022C108.76 115.84 108.745 115.651 108.68 115.476C108.615 115.301 108.502 115.148 108.355 115.034C108.208 114.92 108.032 114.849 107.846 114.83C107.55 114.846 107.271 114.975 107.068 115.191C106.865 115.407 106.753 115.693 106.756 115.99Z" fill="#263238"/>
<path opacity="0.2" d="M120.117 130.29C120.117 130.29 118.847 134.45 114.837 134.65C110.827 134.85 108.837 130.59 108.837 130.59C108.837 130.59 105.787 132.41 104.727 125.24C104.939 124.861 105.187 124.503 105.467 124.17C106.077 129.17 108.467 130.49 109.337 129.17C109.337 129.17 111.537 132.73 114.837 132.43C115.844 132.307 116.816 131.977 117.69 131.461C118.565 130.945 119.323 130.253 119.917 129.43C120.072 129.584 120.276 129.678 120.493 129.696C120.711 129.714 120.928 129.656 121.107 129.53C121.897 129.14 122.107 127.26 122.107 127.26C122.107 127.26 122.347 130.64 120.117 130.29Z" fill="black"/>
<path opacity="0.2" d="M127.866 124.8C127.823 125.478 127.568 126.125 127.136 126.65C127.461 125.846 127.631 124.987 127.636 124.12C128.426 124.62 128.816 121.05 128.516 118.85L129.176 119.2C129.526 124.49 127.866 124.8 127.866 124.8Z" fill="black"/>
</svg>
