<svg width="130" height="174" viewBox="0 0 130 174" fill="none" xmlns="http://www.w3.org/2000/svg">
<path d="M70.3001 131.896C70.3001 131.896 8.91012 101.586 0.670121 124.166C-5.92988 142.196 37.4901 167.536 75.1201 169.426L70.3001 131.896Z" fill="#263238"/>
<path d="M39.6401 160.306L54.1101 159.726L48.2901 166.926L34.3101 167.766L39.6401 160.306Z" fill="#EBB376"/>
<path d="M43.54 159.816C43.54 159.816 33.44 157.186 29.29 159.326C22.78 162.686 11.81 167.256 13.07 172.276C14.33 177.306 36.85 168.556 36.85 168.556L43.53 159.806L43.54 159.816Z" fill="#407BFF"/>
<path d="M39.4001 162.966C39.4001 162.966 42.8701 163.196 42.1001 165.696C41.3201 168.196 36.8301 168.556 36.8301 168.556L39.4001 162.956V162.966Z" fill="#407BFF"/>
<path d="M59.82 130.866C59.82 130.866 126.36 103.966 129.08 129.646C131.1 148.586 89.57 165.446 44.53 168.536L59.82 130.876V130.866Z" fill="#263238"/>
<path opacity="0.2" d="M73.7602 159.686C62.7802 152.376 45.6802 142.366 27.4302 131.856C42.0902 138.766 52.0202 143.826 59.2802 147.986C67.9702 142.976 80.1302 139.186 90.3302 136.266C81.4202 140.636 69.3102 145.686 61.3002 150.136C70.4802 156.136 73.6002 159.556 73.7502 159.696L73.7602 159.686Z" fill="black"/>
<path d="M80.4001 161.206L74.1602 161.956L75.0101 168.606L86.1302 168.376L80.4001 161.206Z" fill="#EBB376"/>
<path d="M76.4702 160.906C76.4702 160.906 86.4002 157.766 90.6802 159.686C97.3602 162.706 108.57 166.706 107.64 171.796C106.7 176.886 83.6802 169.286 83.6802 169.286L76.4802 160.916L76.4702 160.906Z" fill="#407BFF"/>
<path d="M80.78 163.836C80.78 163.836 77.39 164.236 78.24 166.696C79.1 169.156 83.66 169.286 83.66 169.286L80.78 163.826V163.836Z" fill="#407BFF"/>
<path d="M76.5102 44.6855C76.5102 44.6855 99.6102 48.3755 100.63 53.3655C102.61 62.9555 106.59 83.7755 102.91 103.516C99.2402 123.256 105.51 114.606 95.6802 122.726C85.8502 130.846 44.7802 132.366 41.1102 123.056C38.0802 115.326 50.0702 98.4455 47.3602 84.5255C44.6502 70.6055 38.0102 58.8355 46.5602 52.3655C55.1102 45.8955 76.5102 44.6956 76.5102 44.6956V44.6855Z" fill="#407BFF"/>
<path d="M53.15 3.36588C51.08 1.96588 45.51 3.09588 43.68 7.17588C41.72 11.5159 39.74 19.1759 37.04 17.9059C38.22 19.8359 40.47 20.8359 42.69 20.4159C42.69 20.4159 40.96 23.4859 37.78 23.2459C39.52 25.9759 42.67 27.4759 45.89 27.1159C51.16 26.6659 54.83 10.4459 55.4 7.79588C54.79 5.16587 54.64 5.31589 53.15 3.37589V3.36588Z" fill="#263238"/>
<path d="M56.4601 3.27584C60.8501 1.67584 65.7101 1.96584 69.8701 4.08584C72.5801 5.49584 74.9201 7.65584 74.8601 10.8958C74.4601 17.6558 73.6901 24.3758 72.5401 31.0458L47.0601 19.4658C47.0601 19.4658 45.3501 12.5158 48.0101 8.32583C49.4701 6.14583 53.2001 4.42584 56.4501 3.27584H56.4601Z" fill="#263238"/>
<path d="M52.46 3.96574C52.46 3.96574 58.9 -3.35427 70.9799 1.89573C83.0599 7.13573 75.96 23.4157 75.96 23.4157C75.96 23.4157 74.09 30.3157 77.35 31.1457C76.39 31.7957 75.31 32.2457 74.17 32.4557C74.17 32.4557 75.6 34.0857 76.85 33.6657C76.85 33.6657 75.23 34.7857 71.74 34.1157C68.24 33.4357 52.48 3.97575 52.48 3.97575L52.46 3.96574Z" fill="#263238"/>
<path d="M61.4399 40.4059V40.4959L63.0399 44.6659C63.3699 46.2159 63.4499 47.8059 63.2599 49.3759C62.7999 50.9959 62.8799 53.7859 65.6799 53.4059C69.8999 52.8359 77.0299 45.9559 77.1099 44.0559C74.5299 38.4759 72.1599 31.8759 71.8899 26.3159L67.6199 32.1059L61.45 40.3959L61.4399 40.4059Z" fill="#EBB376"/>
<g opacity="0.2">
<path d="M61.49 40.5158L63.09 44.6859C65.61 43.1959 68.11 40.2858 68.44 37.3958C68.67 35.3158 67.55 33.5058 66.71 33.4858L61.49 40.5158Z" fill="black"/>
</g>
<path d="M49.8 32.6455C50.15 33.5655 50.53 34.4555 50.96 35.3255C54.43 43.0655 64.47 42.7255 69.98 36.1755C70.48 35.5755 70.93 34.9455 71.34 34.2755C74.7 28.7155 73.3 24.8755 71.75 15.9655C70.67 9.25548 64.35 4.68546 57.64 5.76546C55.74 6.07546 53.94 6.81549 52.37 7.94549C45.3 12.9455 46.29 23.5855 49.81 32.6555L49.8 32.6455Z" fill="#EBB376"/>
<path d="M71.91 16.7457C71.91 16.7457 69.22 17.1657 69.35 19.4857C69.48 21.8157 69.74 22.0957 69.74 22.0957L66.61 23.1057C66.61 23.1057 66.61 14.1757 64.29 14.5357C61.97 14.8957 64.08 10.6457 62.62 10.2157C59.15 9.20573 50.17 10.0657 47.26 15.8457C47.57 12.4957 49.1 9.38573 51.56 7.08573C55.53 3.76573 64.06 2.25573 67.97 6.11573C71.88 9.97573 71.9 16.7457 71.9 16.7457H71.91Z" fill="#263238"/>
<path d="M59.57 23.3557C59.77 24.1557 59.51 24.9057 58.99 25.0257C58.47 25.1557 57.88 24.6057 57.68 23.8057C57.48 23.0057 57.74 22.2557 58.26 22.1357C58.78 22.0057 59.37 22.5557 59.57 23.3557Z" fill="#263238"/>
<path d="M51.7799 25.4759C51.9799 26.2759 51.7199 27.0259 51.1999 27.1459C50.6799 27.2759 50.0899 26.7259 49.8899 25.9259C49.6899 25.1259 49.9499 24.3759 50.4699 24.2559C50.9899 24.1359 51.5799 24.6759 51.7799 25.4759Z" fill="#263238"/>
<path d="M54.2202 24.3955C54.2202 24.3955 53.1002 27.7555 52.5302 29.8655C52.3702 30.4455 52.7602 31.0555 53.3602 31.0755C54.4402 31.1155 55.4502 30.5855 55.4502 30.5855L54.2202 24.3955Z" fill="#D58745"/>
<path d="M60.57 19.1058C60.46 19.1858 60.31 19.2058 60.18 19.1458C58.6 18.4458 57.4 19.1958 57.39 19.2058C57.21 19.3158 56.97 19.2658 56.86 19.0958C56.74 18.9158 56.8 18.6858 56.97 18.5658C57.03 18.5258 58.54 17.5858 60.5 18.4458C60.7 18.5358 60.78 18.7558 60.7 18.9558C60.67 19.0158 60.63 19.0658 60.58 19.1058H60.57Z" fill="#263238"/>
<path d="M58.7002 32.8455C58.5302 32.8455 58.3802 32.7255 58.3402 32.5555C58.2902 32.3555 58.4102 32.1555 58.6202 32.1055C59.6602 31.8555 60.4502 31.1755 61.2902 29.8455C61.4002 29.6755 61.6302 29.6155 61.8102 29.7255C61.9902 29.8355 62.0402 30.0655 61.9302 30.2455C61.2602 31.3155 60.3702 32.4555 58.8102 32.8355C58.7802 32.8355 58.7502 32.8455 58.7202 32.8455H58.7002Z" fill="#263238"/>
<path d="M75.82 20.8858C75.69 23.2158 74.49 25.2658 73.03 26.5158C70.83 28.3958 69.21 25.8858 68.78 23.1758C68.39 20.7358 68.36 17.6558 71.06 16.8258C73.72 16.0058 75.96 18.2158 75.81 20.8858H75.82Z" fill="#EBB376"/>
<path opacity="0.2" d="M70.1101 22.7756C69.9901 22.7756 69.8801 22.6856 69.8601 22.5556C69.7501 21.7656 69.8601 20.9556 70.1601 20.2256C70.3601 19.7256 70.7501 19.0556 71.4401 18.6856C72.1201 18.3256 72.9601 18.3956 73.4801 18.8556C73.5801 18.9456 73.5901 19.1056 73.5001 19.2056C73.4101 19.3056 73.2501 19.3156 73.1501 19.2256C72.7901 18.9056 72.1701 18.8656 71.6801 19.1256C71.1201 19.4256 70.8001 19.9856 70.6201 20.4156C70.3501 21.0756 70.2601 21.7856 70.3601 22.4956C70.3801 22.6356 70.2801 22.7556 70.1501 22.7756C70.1401 22.7756 70.1301 22.7756 70.1201 22.7756H70.1101Z" fill="black"/>
<path d="M47.4899 22.9859C47.4199 22.9859 47.3399 22.9659 47.2799 22.9259C47.0999 22.8159 47.0399 22.5759 47.1499 22.3959C48.2499 20.5859 50.0199 20.5359 50.0999 20.5259C50.3099 20.5259 50.4899 20.6859 50.4999 20.9059C50.4999 21.1159 50.3399 21.2959 50.1299 21.2959C50.0599 21.2959 48.6899 21.3459 47.8099 22.8059C47.7399 22.9159 47.6199 22.9859 47.4999 22.9859H47.4899Z" fill="#263238"/>
<path d="M43.4899 55.5757L26.9199 80.1757L46.2999 89.7957L53.8299 74.1557C56.6099 69.1857 62.1799 60.0457 58.5099 55.6657C57.2899 54.1857 55.8599 48.3657 49.5299 50.6857C47.0399 51.5957 44.9699 53.3657 43.4899 55.5657V55.5757Z" fill="#407BFF"/>
<path opacity="0.3" d="M45.84 88.2855C45.84 88.2855 47.88 70.2055 47.27 70.7055C46.66 71.2155 43.03 87.6755 43.03 87.6755L45.84 88.2855Z" fill="black"/>
<path d="M40.0601 81.2456L41.4901 80.2656L57.7701 85.7156L76.6301 83.9756L77.6301 85.2856L57.7001 87.0756L40.0601 81.2456Z" fill="white"/>
<path d="M32.09 82.7458C32.09 82.7458 23.25 101.746 22.79 104.856C22.33 107.966 22.21 112.706 26.48 115.176C30.75 117.646 44.53 110.266 44.53 110.266V99.8759L37.92 100.736L43.43 88.3658L32.09 82.7358V82.7458Z" fill="#EBB376"/>
<path d="M41.2799 110.255L59.4899 116.535L80.0399 114.375L77.6299 85.2854L57.6999 87.0754L39.4099 81.0254L41.2799 110.255Z" fill="#263238"/>
<path opacity="0.2" d="M57.6999 87.0754L59.4899 116.535L41.2799 110.255L39.4099 81.0254L57.6999 87.0754Z" fill="black"/>
<path opacity="0.3" d="M35.86 100.336C35.86 100.336 30.1 102.556 28.2 105.246L35.2899 102.796C35.2899 102.796 36.0199 110.356 37.1899 111.346C38.3599 112.336 41.8699 111.605 41.8699 111.605L38.7999 99.8955L35.86 100.346V100.336Z" fill="black"/>
<path d="M41.2501 97.2354C41.2501 97.2354 48.5501 98.8754 49.5701 100.665C50.5901 102.455 47.6501 102.555 47.6501 102.555C47.6501 102.555 50.8901 102.645 51.0401 104.025C51.2201 105.685 48.1401 105.775 48.1401 105.775C48.1401 105.775 50.7801 105.955 50.8301 107.195C50.8801 108.475 47.4101 108.825 47.4101 108.825C47.4101 108.825 49.2501 109.305 48.7901 110.185C48.3401 111.065 40.9901 111.945 38.7001 110.745C36.4201 109.545 35.5801 100.065 35.8801 97.9654C35.9701 97.3654 36.3001 96.3654 38.8701 95.2854C39.4101 95.0554 40.0401 95.2854 40.3101 95.8054L41.0301 97.1854L41.2501 97.2354Z" fill="#EBB376"/>
<path opacity="0.2" d="M47.6601 102.715C47.6601 102.715 47.6601 102.715 47.6501 102.715L42.0101 102.285C41.9301 102.285 41.8801 102.205 41.8801 102.115C41.8801 102.025 41.9501 101.965 42.0301 101.965L47.6701 102.395C47.7501 102.395 47.8001 102.475 47.8001 102.565C47.8001 102.645 47.7401 102.705 47.6701 102.715H47.6601Z" fill="black"/>
<path opacity="0.2" d="M47.9801 105.945L42.5301 105.965C42.4501 105.965 42.3901 105.895 42.3901 105.815C42.3901 105.725 42.4401 105.675 42.5301 105.655L47.9801 105.635C48.0601 105.635 48.1201 105.705 48.1201 105.795C48.1201 105.885 48.0601 105.945 47.9901 105.955L47.9801 105.945Z" fill="black"/>
<path opacity="0.2" d="M47.23 108.996L43.18 109.126C43.1 109.126 43.04 109.056 43.04 108.976C43.04 108.886 43.1 108.816 43.17 108.816L47.22 108.686C47.3 108.686 47.36 108.756 47.36 108.836C47.36 108.926 47.3 108.996 47.23 108.996Z" fill="black"/>
<path d="M99.97 52.6059C104.01 56.2559 110.4 65.2359 114 85.1359L91.46 87.0659C91.46 87.0659 86.91 69.8859 87.18 59.4759C87.28 55.5759 88.67 53.3059 90.38 52.0059C93.31 49.8759 97.34 50.1259 99.98 52.6059H99.97Z" fill="#407BFF"/>
<path d="M112.52 85.1357C112.52 85.1357 117.93 106.166 115.68 111.906C112.97 118.836 77.6801 110.376 77.6801 110.376L77.6001 101.976L100.81 100.496L97.2701 86.4658L112.52 85.1458V85.1357Z" fill="#EBB376"/>
<path d="M78.01 98.6558C78.01 98.6558 70.71 100.296 69.69 102.086C68.67 103.876 71.61 103.976 71.61 103.976C71.61 103.976 68.37 104.066 68.22 105.446C68.04 107.106 71.12 107.196 71.12 107.196C71.12 107.196 68.48 107.376 68.43 108.616C68.38 109.896 71.85 110.246 71.85 110.246C71.85 110.246 70.01 110.726 70.47 111.606C70.92 112.486 78.27 113.366 80.56 112.166C82.84 110.966 83.68 101.486 83.38 99.3858C83.29 98.7858 82.96 97.7858 80.39 96.7058C79.85 96.4758 79.22 96.7058 78.95 97.2258L78.23 98.6058L78.01 98.6558Z" fill="#EBB376"/>
<path opacity="0.2" d="M71.61 104.136C71.61 104.136 71.61 104.136 71.62 104.136L77.2599 103.706C77.3399 103.706 77.39 103.626 77.39 103.536C77.39 103.446 77.32 103.386 77.24 103.386L71.6 103.816C71.52 103.816 71.47 103.896 71.47 103.986C71.47 104.066 71.53 104.126 71.6 104.136H71.61Z" fill="black"/>
<path opacity="0.2" d="M71.2899 107.366L76.7399 107.386C76.8199 107.386 76.8799 107.316 76.8799 107.226C76.8799 107.136 76.8299 107.086 76.7399 107.066L71.2899 107.046C71.2099 107.046 71.1499 107.116 71.1499 107.206C71.1499 107.296 71.2099 107.356 71.2799 107.366H71.2899Z" fill="black"/>
<path opacity="0.2" d="M72.0399 110.416L76.0899 110.546C76.1699 110.546 76.2299 110.476 76.2299 110.396C76.2299 110.306 76.1699 110.236 76.0999 110.236L72.0499 110.106C71.9699 110.106 71.9099 110.176 71.9099 110.256C71.9099 110.346 71.9699 110.416 72.0399 110.416Z" fill="black"/>
<path opacity="0.3" d="M100.81 100.486C100.81 100.486 107.42 100.386 108.44 102.856C108.44 102.856 108.67 98.7357 100.47 99.1357L100.81 100.486Z" fill="black"/>
<path opacity="0.3" d="M89.78 75.3159C89.78 75.9659 92.39 88.9259 92.39 88.9259H97.9L97.28 86.4559L93.85 86.8559L89.79 75.3159H89.78Z" fill="black"/>
</svg>
