<svg width="101" height="331" viewBox="0 0 101 331" fill="none" xmlns="http://www.w3.org/2000/svg">
<path d="M58.2283 295.03L61.7938 319.073L70.3 319.466L73.0607 296.295L58.2283 295.03Z" fill="#263238"/>
<path d="M77.5531 330.236H58.5032C58.5032 330.236 58.0856 329.496 58.5644 327.537C58.6357 327.227 58.7274 326.899 58.8496 326.534C58.8496 326.515 58.8598 326.496 58.87 326.478C59.0431 325.934 59.2571 325.268 59.471 324.547C60.3471 321.613 61.3658 317.779 61.3658 317.779C61.3658 317.779 64.534 311.536 68.2421 313.092C71.4918 314.461 70.7277 318.37 70.7277 318.37C70.7277 318.37 71.0435 320.666 73.5088 322.691C75.0369 323.947 76.5548 324.912 77.278 326.468C77.4105 326.759 77.5225 327.068 77.5938 327.406C77.5938 327.443 77.6142 327.49 77.6142 327.527C77.767 328.277 77.7568 329.158 77.5327 330.227L77.5531 330.236Z" fill="#263238"/>
<path opacity="0.3" d="M58.5644 327.537C58.0856 329.496 58.5032 330.237 58.5032 330.237H77.5531C77.7772 329.168 77.7772 328.287 77.6346 327.537H58.5644Z" fill="white"/>
<path d="M69.9637 319.363C68.8941 318.594 67.4883 318.698 66.5205 319.56C66.2658 319.794 65.8685 319.429 66.1232 319.194C67.3253 318.116 69.0469 318.051 70.361 318.998C70.6463 319.204 70.249 319.569 69.9637 319.363Z" fill="#407BFF"/>
<path d="M70.5038 320.994C69.4341 320.225 68.0283 320.328 67.0606 321.191C66.8059 321.425 66.4086 321.06 66.6632 320.825C67.8653 319.747 69.5869 319.682 70.9011 320.628C71.1863 320.835 70.789 321.2 70.5038 320.994Z" fill="#407BFF"/>
<path d="M71.0436 322.503C69.9739 321.735 68.5681 321.838 67.6003 322.7C67.3457 322.934 66.9484 322.569 67.203 322.334C68.4051 321.257 70.1267 321.191 71.4409 322.138C71.7261 322.344 71.3288 322.709 71.0436 322.503Z" fill="#407BFF"/>
<path d="M22.4716 293.53L18.9163 317.573L10.3999 317.967L7.63916 294.786L22.4716 293.53Z" fill="#263238"/>
<path d="M3.14662 328.728H22.1965C22.1965 328.728 22.6141 327.987 22.1354 326.028C22.064 325.719 21.9724 325.391 21.8501 325.025C21.8501 325.006 21.8399 324.988 21.8297 324.969C21.6566 324.425 21.4426 323.76 21.2287 323.038C20.3526 320.104 19.3339 316.27 19.3339 316.27C19.3339 316.27 16.1657 310.028 12.4576 311.584C9.20794 312.952 9.97197 316.861 9.97197 316.861C9.97197 316.861 9.65617 319.157 7.1909 321.182C5.66284 322.438 4.14495 323.403 3.42166 324.959C3.28923 325.25 3.17718 325.559 3.10587 325.897C3.10587 325.934 3.08549 325.981 3.08549 326.019C2.93268 326.768 2.94287 327.65 3.16699 328.718L3.14662 328.728Z" fill="#263238"/>
<path opacity="0.3" d="M22.1354 326.038C22.6142 327.997 22.1965 328.737 22.1965 328.737H3.14666C2.92255 327.669 2.92254 326.787 3.06516 326.038H22.1354Z" fill="white"/>
<path d="M10.7361 317.854C11.8057 317.086 13.2116 317.189 14.1793 318.051C14.434 318.285 14.8313 317.92 14.5766 317.686C13.3745 316.608 11.6529 316.542 10.3388 317.489C10.0535 317.695 10.4508 318.061 10.7361 317.854Z" fill="#407BFF"/>
<path d="M10.2063 319.494C11.2759 318.726 12.6818 318.829 13.6495 319.691C13.9042 319.926 14.3015 319.56 14.0468 319.326C12.8448 318.248 11.1231 318.182 9.809 319.129C9.52376 319.335 9.92106 319.701 10.2063 319.494Z" fill="#407BFF"/>
<path d="M9.66638 320.994C10.736 320.226 12.1418 320.329 13.1096 321.191C13.3643 321.426 13.7616 321.06 13.5069 320.826C12.3048 319.748 10.5832 319.682 9.26909 320.629C8.98385 320.835 9.38114 321.201 9.66638 320.994Z" fill="#407BFF"/>
<path d="M76.8809 137.2L37.2735 139.375L13.0384 135.522C13.0384 135.522 11.3983 160.99 9.32011 221.495C8.87188 234.693 5.08228 313.13 5.08228 313.13L26.3835 315.126C26.3835 315.126 36.9679 233.775 38.5774 226.67C39.5452 222.395 43.182 190.31 46.0649 174.975C47.4606 187.77 48.6219 218.637 49.6712 226.941C49.6712 226.941 54.9583 293.699 55.7121 312.643L75.5667 311.733C78.0116 285.731 78.847 191.032 78.847 191.032C80.2222 171.198 76.8809 137.21 76.8809 137.21V137.2Z" fill="#263238"/>
<path d="M66.49 56.9268C70.9316 55.8583 73.6108 56.5988 77.0846 53.8336C78.0931 53.0275 78.2867 50.8341 78.1237 49.6156C77.7773 47.1597 74.0692 44.6758 68.2931 44.2165C55.0296 43.1573 53.8071 43.5322 40.5129 44.1884C38.7608 44.2727 32.8828 45.4257 31.2631 46.0256C29.6331 46.6255 27.6161 48.2564 27.2596 49.8312C26.903 51.4059 28.0032 53.2712 29.735 53.4868L31.3344 61.7166L66.5002 56.9175L66.49 56.9268Z" fill="#407BFF"/>
<path d="M28.8895 51.5087C34.4822 51.19 55.3046 50.2808 78.1441 54.4988L79.3156 134.613C79.3666 141.24 78.2154 142.168 78.2154 142.168C78.2154 142.168 78.4191 145.927 78.4395 146.049C54.5508 154.541 27.0456 153.988 11.8261 145.262C12.1827 145.318 11.8261 142.543 11.8261 142.543C11.8261 142.543 9.53404 140.406 10.3184 133.601C12.9365 110.889 18.6821 74.2767 22.7569 53.852C22.869 53.3459 28.3394 51.5462 28.8997 51.5181L28.8895 51.5087Z" fill="#407BFF"/>
<path opacity="0.3" d="M39.8813 148.589C21.9724 148.589 11.4593 142.806 11.3473 142.75L11.6122 142.347C11.7242 142.412 23.1949 148.721 42.6217 148.074C64.1266 147.371 77.7467 142.009 77.8894 141.953L78.0931 142.384C77.9607 142.441 64.259 147.84 42.642 148.543C41.7048 148.571 40.7778 148.589 39.8813 148.589Z" fill="black"/>
<path opacity="0.4" d="M12.0298 118.998L11.2556 124.884C11.2556 124.884 26.2204 128.343 42.9782 122.784C59.736 117.226 61.7123 112.989 61.7123 112.989L78.2153 118.998V110.355L51.1686 102.229L12.0298 118.998Z" fill="black"/>
<path d="M69.4952 70.6025H26.6178V123.937H69.4952V70.6025Z" fill="#263238"/>
<path opacity="0.3" d="M72.8773 85.7873L69.4238 77.8105V83.1628L72.8773 85.7873Z" fill="black"/>
<path opacity="0.3" d="M23.5311 84.0155L24.1118 76.02L28.1561 85.1122L23.5311 84.0155Z" fill="black"/>
<path d="M28.7571 51.5088C28.7571 51.5088 12.6513 53.2523 9.05521 63.2912C6.39638 70.7149 -2.82292 108.302 0.85462 112.117C4.53216 115.932 7.40492 118.116 14.2405 118.969C21.076 119.813 53.9701 103.897 53.9701 103.897L32.5772 96.1825L19.8128 98.7977L28.7672 51.5182L28.7571 51.5088Z" fill="#407BFF"/>
<path d="M16.3798 55.4174C16.3798 55.4174 78.1135 152.413 78.0931 152.114C78.0728 151.814 85.3769 145.252 85.3769 145.252L22.4105 52.7085C22.4105 52.7085 18.2542 52.2867 16.39 55.4174H16.3798Z" fill="#407BFF"/>
<path opacity="0.3" d="M16.3798 55.4174C16.3798 55.4174 78.1135 152.413 78.0931 152.114C78.0728 151.814 85.3769 145.252 85.3769 145.252L22.4105 52.7085C22.4105 52.7085 18.2542 52.2867 16.39 55.4174H16.3798Z" fill="black"/>
<path d="M54.7544 88.9929C54.7544 88.9929 64.7072 82.216 68.8941 83.0408C73.081 83.8657 73.7024 87.9056 73.7024 87.9056L74.5989 93.7453L54.7544 89.0023V88.9929Z" fill="#895555"/>
<path opacity="0.4" d="M16.2474 97.0728C16.1047 96.9135 12.6819 99.538 12.142 102.228C14.3526 100.438 16.6039 99.0319 18.9877 98.8631L16.2575 97.0728H16.2474Z" fill="black"/>
<path opacity="0.3" d="M28.156 97.0728L44.598 108.246L50.099 105.715L28.156 97.0728Z" fill="black"/>
<path opacity="0.3" d="M44.2008 110.093H43.6914V148.355H44.2008V110.093Z" fill="black"/>
<path opacity="0.3" d="M55.9157 53.599L63.1995 43.8507C63.1995 43.8507 55.2434 43.2695 53.043 43.7007L55.9055 53.599H55.9157Z" fill="black"/>
<path opacity="0.3" d="M27.3716 51.5088C27.3716 51.5088 38.3431 59.3356 37.9254 59.3356C37.5078 59.3356 26.9845 52.0524 26.9845 52.0524L27.3716 51.5182V51.5088Z" fill="black"/>
<path opacity="0.3" d="M74.6296 53.899C74.3138 53.8615 61.4883 60.8822 61.4883 60.8822L76.7384 54.2458L74.6398 53.8896L74.6296 53.899Z" fill="black"/>
<path d="M48.194 61.7915C47.4096 60.826 46.2584 60.1136 45.1175 59.5512C43.9765 58.9888 42.5809 58.3983 41.2871 58.6045C40.7065 58.6983 40.136 59.0263 39.9323 59.5512C39.7285 60.0761 39.9832 60.6292 40.4111 61.0041C41.277 61.754 42.5503 61.9321 43.6811 62.0352C45.1379 62.1664 46.5946 62.1102 48.0514 62.1008C48.2449 62.1008 48.2449 61.8196 48.0514 61.8196C47.0225 61.829 45.9834 61.8571 44.9545 61.829C43.9256 61.8009 42.7439 61.7352 41.7252 61.3978C41.1853 61.2197 40.6148 60.9198 40.3194 60.4605C39.8915 59.7949 40.4212 59.1107 41.1547 58.9139C42.3364 58.6139 43.7728 59.2232 44.7915 59.7106C45.9426 60.2542 47.1345 60.9573 47.9189 61.9321C48.031 62.0727 48.2959 61.9321 48.1838 61.7915H48.194Z" fill="white"/>
<path d="M48.0819 61.9976C49.3247 62.2506 50.6694 62.11 51.902 61.8663C53.1347 61.6226 54.5099 61.2571 55.4064 60.4322C56.3028 59.6073 56.1806 58.1357 54.7544 57.9482C53.5218 57.7889 52.3299 58.4544 51.3621 59.0824C50.1498 59.8698 49.0598 60.7978 47.9494 61.6976C47.7966 61.8195 48.0207 62.0163 48.1633 61.8944C48.9783 61.2289 49.7933 60.554 50.649 59.926C51.5047 59.298 52.4623 58.6231 53.532 58.3325C54.0821 58.1826 54.8155 58.0982 55.3147 58.445C55.9871 58.9043 55.6916 59.7761 55.1924 60.2353C54.3877 60.9852 53.1245 61.3227 52.0446 61.5476C50.8018 61.8101 49.4266 61.9788 48.1735 61.7257C47.98 61.6882 47.8985 61.9601 48.092 61.9976H48.0819Z" fill="white"/>
<path d="M48.031 62.0258C47.3077 63.8911 46.9206 65.8595 46.8799 67.8467C46.8799 68.0248 47.1855 68.0248 47.1855 67.8467C47.216 65.8876 47.6031 63.9473 48.3162 62.1008C48.3875 61.932 48.0921 61.857 48.0208 62.0258H48.031Z" fill="white"/>
<path d="M48.3469 61.9134C48.5812 64.5379 48.9174 67.1437 49.3656 69.7401C49.3962 69.9182 49.6916 69.8433 49.6611 69.6652C49.223 67.0969 48.8869 64.5098 48.6526 61.9134C48.6322 61.7353 48.3265 61.7353 48.3469 61.9134Z" fill="white"/>
<path d="M77.105 54.4801C77.105 54.4801 81.2205 53.5521 85.5297 61.4258C89.8388 69.2994 97.4078 100.241 97.5403 105.921C97.7033 113.017 94.0869 116.71 87.4041 116.71C75.3528 116.71 28.156 97.0635 28.156 97.0635L36.2038 84.5875L74.4258 93.7266L70.5649 68.6058L77.105 54.4707V54.4801Z" fill="#407BFF"/>
<path d="M34.2479 87.6243C34.2479 87.6243 27.6262 84.4748 24.071 84.0343C21.9011 83.7718 18.2745 87.943 15.7888 91.2237C14.1997 93.3233 14.7599 96.2291 17.0317 97.7101C18.0198 98.3568 18.845 98.863 18.9774 98.863C19.334 98.863 28.5838 97.1195 28.5838 97.1195L34.258 87.6149L34.2479 87.6243Z" fill="#895555"/>
<path opacity="0.3" d="M74.4359 93.7358C74.4359 93.7358 81.5159 96.1636 83.645 100.054C83.645 100.054 82.7791 93.7358 74.0793 91.4487L74.4359 93.7358Z" fill="black"/>
<path d="M80.7009 143.902C81.5363 144.549 87.1901 143.274 88.657 145.262C90.124 147.249 104.997 183.477 99.9647 186.364C94.9323 189.251 78.8774 190.582 78.908 190.02C78.9386 189.457 76.7178 147.886 76.7178 147.886L80.7009 143.902Z" fill="#407BFF"/>
<path opacity="0.3" d="M80.7009 143.902C81.5363 144.549 87.1901 143.274 88.657 145.262C90.124 147.249 104.997 183.477 99.9647 186.364C94.9323 189.251 78.8774 190.582 78.908 190.02C78.9386 189.457 76.7178 147.886 76.7178 147.886L80.7009 143.902Z" fill="black"/>
<path opacity="0.2" d="M94.9733 174.629C94.1277 174.629 93.2415 174.46 92.3959 174.01C89.8186 172.632 87.2209 163.081 84.6741 145.618C84.5926 145.074 84.5315 144.634 84.5213 144.578C84.4907 144.456 84.5722 144.325 84.7047 144.296C84.8371 144.268 84.9696 144.334 85.0103 144.456C85.0307 144.512 85.051 144.69 85.1835 145.553C88.4943 168.246 91.2855 172.867 92.6608 173.598C95.2992 175.013 98.4471 173.326 98.8036 173.045C98.8342 172.998 98.8851 172.97 98.9462 172.951C99.0787 172.914 99.2213 172.998 99.2518 173.12C99.2926 173.279 99.1602 173.382 99.0787 173.429C98.5795 173.776 96.8783 174.62 94.9733 174.62V174.629Z" fill="black"/>
<path d="M56.028 53.5986C56.028 53.5986 49.824 58.4447 48.2043 58.8102C46.0242 59.307 39.2804 52.6144 39.2804 52.6144C39.9833 49.5587 41.0428 42.3411 40.4417 38.6668L57.118 28.1123C57.118 28.1123 57.118 28.1217 57.118 28.1592C56.6799 29.4808 56.028 37.6357 55.1111 47.5153L56.028 53.5892V53.5986Z" fill="#895555"/>
<g opacity="0.2">
<path d="M49.4064 41.3287C47.3385 43.5033 43.7424 44.7312 40.452 44.7969C40.5029 44.525 40.4927 44.122 40.5233 43.8501C40.5742 43.4283 40.5742 42.7816 40.6048 42.341C40.6354 41.7974 40.6455 41.2068 40.6048 40.6351C40.5742 40.4101 40.4826 40.4476 40.452 40.2226L40.3909 39.7633L50.3742 36.6514C51.179 37.195 51.0771 39.5665 49.4064 41.3287Z" fill="black"/>
</g>
<path d="M62.9145 18.7952C65.3084 8.93441 55.9974 -0.139058 44.8833 2.23242C33.6062 4.64138 29.5721 19.1983 30.3361 28.4874C31.1919 38.8075 43.7627 45.322 53.308 38.845C59.6546 34.5332 60.5103 28.6561 62.9043 18.7952H62.9145Z" fill="#895555"/>
<path d="M48.0921 20.3044C47.9902 21.3355 47.3179 22.1135 46.5946 22.0479C45.8611 21.9822 45.3518 21.0918 45.4536 20.0701C45.5555 19.039 46.2278 18.261 46.9511 18.3266C47.6846 18.3922 48.1939 19.2827 48.0921 20.3044Z" fill="#263238"/>
<path d="M37.1003 20.3044C36.9984 21.3355 36.3261 22.1135 35.6028 22.0479C34.8693 21.9822 34.3599 21.0918 34.4618 20.0701C34.5637 19.039 35.236 18.261 35.9593 18.3266C36.6928 18.3922 37.2022 19.2827 37.1003 20.3044Z" fill="#263238"/>
<path d="M39.7999 19.0767C39.7999 19.0767 35.776 23.8946 34.4415 25.8818C35.8677 27.2971 38.608 26.9222 38.608 26.9222L39.7999 19.0767Z" fill="#773737"/>
<path d="M50.3232 15.8335C50.1501 15.8804 49.9463 15.8429 49.8037 15.721C48.1228 14.2775 46.3605 14.6056 46.1771 14.6431C45.8919 14.7087 45.6066 14.5493 45.5353 14.2869C45.464 14.0244 45.6372 13.7713 45.9224 13.7057C46.0243 13.687 48.3877 13.1902 50.5168 15.018C50.7307 15.1961 50.7409 15.5054 50.5474 15.7023C50.4862 15.7679 50.4047 15.8054 50.3232 15.8335Z" fill="#263238"/>
<path d="M33.0357 15.7304C32.944 15.7023 32.8523 15.6461 32.781 15.5711C32.5977 15.3649 32.6282 15.0556 32.8523 14.8868C35.0833 13.1902 37.3856 13.8651 37.4875 13.8839C37.7625 13.9682 37.9153 14.2401 37.8338 14.4932C37.7523 14.7462 37.4569 14.8868 37.1819 14.8118C37.0902 14.7837 35.3074 14.2869 33.5145 15.6461C33.3719 15.7492 33.1885 15.7773 33.0255 15.7304H33.0357Z" fill="#263238"/>
<path d="M46.6355 29.0686C47.043 26.3972 39.2091 30.6152 39.2091 30.6152C39.2091 30.6152 40.0648 33.596 43.1006 33.3523C46.7679 33.0523 46.6355 29.0686 46.6355 29.0686Z" fill="white"/>
<path d="M58.1672 23.9976C58.1672 23.9976 61.0604 7.04106 55.6001 5.11951C50.1398 3.19796 47.97 7.82843 44.2415 7.10668C40.513 6.38493 41.2567 3.8916 41.2567 3.8916C38.7303 4.81019 36.1835 8.52207 33.8405 11.2966C33.8405 11.2966 37.2837 3.73225 41.9494 1.84819C51.0363 -1.81681 61.2539 0.264087 64.9824 5.49445C68.6396 10.6311 66.3169 19.414 66.3169 19.414C64.0146 26.041 62.4458 29.6966 58.4321 33.3616L58.1672 23.9976Z" fill="#263238"/>
<path d="M65.9095 25.9662C64.7482 28.572 62.3848 30.428 60.0418 31.2716C56.517 32.537 55.5798 29.0407 56.2216 25.7881C56.7921 22.8636 58.0757 19.3392 61.7736 19.4611C65.4206 19.5829 67.244 22.9855 65.9095 25.9662Z" fill="#895555"/>
<path opacity="0.2" d="M58.1367 25.8067C58.1367 25.8067 58.1061 25.8067 58.0858 25.8067C57.9431 25.7786 57.8616 25.6568 57.882 25.5349C58.0857 24.6069 58.5543 23.7352 59.2369 23.0228C59.6953 22.5448 60.4492 21.9449 61.4475 21.7949C62.4254 21.6543 63.3932 22.0574 63.8211 22.7604C63.8924 22.8729 63.8415 23.0135 63.7192 23.0791C63.597 23.1447 63.4441 23.0978 63.3728 22.9853C63.057 22.4511 62.2726 22.1511 61.5188 22.2542C60.6733 22.3761 60.0213 22.901 59.6138 23.3228C58.9924 23.9695 58.5646 24.7663 58.371 25.6099C58.3506 25.7224 58.2386 25.7974 58.1163 25.7974L58.1367 25.8067Z" fill="black"/>
<path d="M59.8277 8.93418C59.6546 6.80641 58.7479 4.63179 56.904 3.32888C56.0381 2.71024 54.999 2.32592 53.96 1.99785C51.1993 1.1355 53.308 0.694945 50.425 0.254395H47.6236C45.4232 0.526224 41.1955 1.62292 39.1581 2.44778C35.9288 3.76006 32.4245 4.50993 28.8997 4.64115C28.2987 4.6599 27.5754 4.74426 27.3309 5.24105C27.0864 5.74722 27.5245 6.30963 27.9727 6.68457C30.8251 9.11228 35.1546 9.96525 38.8321 8.81232C37.5893 10.5839 33.2292 10.5839 34.7064 11.0713C39.0868 13.0679 44.6591 12.6179 48.6015 9.96526C48.4487 10.5277 48.2858 11.1182 48.3876 11.69C48.4895 12.2617 48.9276 12.8335 49.549 12.9272C50.0583 13.0022 50.5575 12.7679 50.965 12.4867C52.4115 11.5025 53.2673 9.95588 54.0618 8.47488C55.5186 10.8557 56.5271 18.7575 58.371 20.904C63.5868 17.0047 59.9907 11.0713 59.8175 8.93418H59.8277Z" fill="#263238"/>
</svg>
