<svg width="579" height="66" viewBox="0 0 579 66" fill="none" xmlns="http://www.w3.org/2000/svg">
<path d="M15.846 17.4257C14.824 16.4317 13.186 16.4737 12.192 17.4957L12.15 17.5517C9.462 20.5057 4.842 26.0917 6.452 28.1777C7.04 28.9477 10.204 27.1137 10.204 27.1137C10.204 27.1137 10.764 28.8357 11.31 28.9617C12.276 29.1717 14.6 26.7357 14.6 26.7357C14.6 26.7357 16.532 29.1017 17.414 28.9617C18.086 28.8637 18.968 26.7357 18.968 26.7357C18.968 26.7357 21.824 28.6117 22.37 27.8977C23.994 25.7557 18.814 20.2677 15.86 17.4397L15.846 17.4257Z" fill="#407BFF"/>
<path opacity="0.3" d="M15.846 17.4257C14.824 16.4317 13.186 16.4737 12.192 17.4957L12.15 17.5517C9.462 20.5057 4.842 26.0917 6.452 28.1777C7.04 28.9477 10.204 27.1137 10.204 27.1137C10.204 27.1137 10.764 28.8357 11.31 28.9617C12.276 29.1717 14.6 26.7357 14.6 26.7357C14.6 26.7357 16.532 29.1017 17.414 28.9617C18.086 28.8637 18.968 26.7357 18.968 26.7357C18.968 26.7357 21.824 28.6117 22.37 27.8977C23.994 25.7557 18.814 20.2677 15.86 17.4397L15.846 17.4257Z" fill="black"/>
<path d="M13.5641 28.9619L12.4021 64.1719H15.4541L14.2921 28.9619H13.5641Z" fill="#263238"/>
<path d="M13.6061 36.6615C13.6061 36.6615 -3.13795 53.2515 0.684051 58.2355C1.70605 59.5655 7.15205 56.3874 7.15205 56.3874C7.15205 56.3874 8.14605 59.3695 9.05605 59.5655C10.7361 59.9435 14.74 55.7155 14.74 55.7155C14.74 55.7155 18.0581 59.7895 19.5841 59.5655C20.7461 59.3975 22.2581 55.7155 22.2581 55.7155C22.2581 55.7155 27.1721 58.9495 28.1101 57.7315C31.9741 52.6215 13.592 36.6475 13.592 36.6475L13.6061 36.6615Z" fill="#407BFF"/>
<path opacity="0.3" d="M13.6061 36.6615C13.6061 36.6615 -3.13795 53.2515 0.684051 58.2355C1.70605 59.5655 7.15205 56.3874 7.15205 56.3874C7.15205 56.3874 8.14605 59.3695 9.05605 59.5655C10.7361 59.9435 14.74 55.7155 14.74 55.7155C14.74 55.7155 18.0581 59.7895 19.5841 59.5655C20.7461 59.3975 22.2581 55.7155 22.2581 55.7155C22.2581 55.7155 27.1721 58.9495 28.1101 57.7315C31.9741 52.6215 13.592 36.6475 13.592 36.6475L13.6061 36.6615Z" fill="black"/>
<path d="M13.8301 21.3735C13.8301 21.3735 1.9721 33.1195 4.6881 36.6475C5.4161 37.5855 9.2661 35.3455 9.2661 35.3455C9.2661 35.3455 9.9801 37.4595 10.6101 37.5995C11.8001 37.8655 14.6281 34.8695 14.6281 34.8695C14.6281 34.8695 16.9801 37.7535 18.0581 37.5995C18.8841 37.4735 19.9481 34.8695 19.9481 34.8695C19.9481 34.8695 23.4341 37.1655 24.0921 36.2835C26.8361 32.6855 13.8161 21.3735 13.8161 21.3735H13.8301Z" fill="#407BFF"/>
<path opacity="0.3" d="M13.8301 21.3735C13.8301 21.3735 1.9721 33.1195 4.6881 36.6475C5.4161 37.5855 9.2661 35.3455 9.2661 35.3455C9.2661 35.3455 9.9801 37.4595 10.6101 37.5995C11.8001 37.8655 14.6281 34.8695 14.6281 34.8695C14.6281 34.8695 16.9801 37.7535 18.0581 37.5995C18.8841 37.4735 19.9481 34.8695 19.9481 34.8695C19.9481 34.8695 23.4341 37.1655 24.0921 36.2835C26.8361 32.6855 13.8161 21.3735 13.8161 21.3735H13.8301Z" fill="black"/>
<path d="M13.704 27.7578C13.704 27.7578 -0.841964 42.1638 2.49004 46.5038C3.37204 47.6658 8.10404 44.9078 8.10404 44.9078C8.10404 44.9078 8.97204 47.4978 9.75604 47.6658C11.212 47.9878 14.698 44.3198 14.698 44.3198C14.698 44.3198 17.582 47.8618 18.912 47.6658C19.92 47.5118 21.236 44.3198 21.236 44.3198C21.236 44.3198 25.506 47.1338 26.318 46.0698C29.678 41.6458 13.718 27.7718 13.718 27.7718L13.704 27.7578Z" fill="#407BFF"/>
<path opacity="0.3" d="M13.704 27.7578C13.704 27.7578 -0.841964 42.1638 2.49004 46.5038C3.37204 47.6658 8.10404 44.9078 8.10404 44.9078C8.10404 44.9078 8.97204 47.4978 9.75604 47.6658C11.212 47.9878 14.698 44.3198 14.698 44.3198C14.698 44.3198 17.582 47.8618 18.912 47.6658C19.92 47.5118 21.236 44.3198 21.236 44.3198C21.236 44.3198 25.506 47.1338 26.318 46.0698C29.678 41.6458 13.718 27.7718 13.718 27.7718L13.704 27.7578Z" fill="black"/>
<path d="M57.9301 17.4257C56.9081 16.4317 55.2701 16.4737 54.2761 17.4957L54.2341 17.5517C51.5461 20.5057 46.9261 26.0917 48.5361 28.1777C49.1241 28.9477 52.2881 27.1137 52.2881 27.1137C52.2881 27.1137 52.8481 28.8357 53.3941 28.9617C54.3601 29.1717 56.6841 26.7357 56.6841 26.7357C56.6841 26.7357 58.6161 29.1017 59.4981 28.9617C60.1701 28.8637 61.0521 26.7357 61.0521 26.7357C61.0521 26.7357 63.9081 28.6117 64.4541 27.8977C66.0781 25.7557 60.8981 20.2677 57.9441 17.4397L57.9301 17.4257Z" fill="#407BFF"/>
<path opacity="0.3" d="M57.9301 17.4257C56.9081 16.4317 55.2701 16.4737 54.2761 17.4957L54.2341 17.5517C51.5461 20.5057 46.9261 26.0917 48.5361 28.1777C49.1241 28.9477 52.2881 27.1137 52.2881 27.1137C52.2881 27.1137 52.8481 28.8357 53.3941 28.9617C54.3601 29.1717 56.6841 26.7357 56.6841 26.7357C56.6841 26.7357 58.6161 29.1017 59.4981 28.9617C60.1701 28.8637 61.0521 26.7357 61.0521 26.7357C61.0521 26.7357 63.9081 28.6117 64.4541 27.8977C66.0781 25.7557 60.8981 20.2677 57.9441 17.4397L57.9301 17.4257Z" fill="black"/>
<path d="M55.6621 28.9619L54.5001 64.1719H57.5521L56.3901 28.9619H55.6621Z" fill="#263238"/>
<path d="M55.7041 36.6615C55.7041 36.6615 38.9601 53.2515 42.7821 58.2355C43.8041 59.5655 49.2501 56.3874 49.2501 56.3874C49.2501 56.3874 50.2441 59.3695 51.1541 59.5655C52.8341 59.9435 56.8381 55.7155 56.8381 55.7155C56.8381 55.7155 60.1561 59.7895 61.6821 59.5655C62.8441 59.3975 64.3561 55.7155 64.3561 55.7155C64.3561 55.7155 69.2701 58.9495 70.2081 57.7315C74.0721 52.6215 55.6901 36.6475 55.6901 36.6475L55.7041 36.6615Z" fill="#407BFF"/>
<path opacity="0.3" d="M55.7041 36.6615C55.7041 36.6615 38.9601 53.2515 42.7821 58.2355C43.8041 59.5655 49.2501 56.3874 49.2501 56.3874C49.2501 56.3874 50.2441 59.3695 51.1541 59.5655C52.8341 59.9435 56.8381 55.7155 56.8381 55.7155C56.8381 55.7155 60.1561 59.7895 61.6821 59.5655C62.8441 59.3975 64.3561 55.7155 64.3561 55.7155C64.3561 55.7155 69.2701 58.9495 70.2081 57.7315C74.0721 52.6215 55.6901 36.6475 55.6901 36.6475L55.7041 36.6615Z" fill="black"/>
<path d="M55.9281 21.3735C55.9281 21.3735 44.0701 33.1195 46.7861 36.6475C47.5141 37.5855 51.3641 35.3455 51.3641 35.3455C51.3641 35.3455 52.0781 37.4595 52.7081 37.5995C53.8981 37.8655 56.7261 34.8695 56.7261 34.8695C56.7261 34.8695 59.0781 37.7535 60.1561 37.5995C60.9821 37.4735 62.0461 34.8695 62.0461 34.8695C62.0461 34.8695 65.5321 37.1655 66.1901 36.2835C68.9341 32.6855 55.9141 21.3735 55.9141 21.3735H55.9281Z" fill="#407BFF"/>
<path opacity="0.3" d="M55.9281 21.3735C55.9281 21.3735 44.0701 33.1195 46.7861 36.6475C47.5141 37.5855 51.3641 35.3455 51.3641 35.3455C51.3641 35.3455 52.0781 37.4595 52.7081 37.5995C53.8981 37.8655 56.7261 34.8695 56.7261 34.8695C56.7261 34.8695 59.0781 37.7535 60.1561 37.5995C60.9821 37.4735 62.0461 34.8695 62.0461 34.8695C62.0461 34.8695 65.5321 37.1655 66.1901 36.2835C68.9341 32.6855 55.9141 21.3735 55.9141 21.3735H55.9281Z" fill="black"/>
<path d="M55.8021 27.7578C55.8021 27.7578 41.2561 42.1638 44.5881 46.5038C45.4701 47.6658 50.2021 44.9078 50.2021 44.9078C50.2021 44.9078 51.0701 47.4978 51.8541 47.6658C53.3101 47.9878 56.7961 44.3198 56.7961 44.3198C56.7961 44.3198 59.6801 47.8618 61.0101 47.6658C62.0181 47.5118 63.3341 44.3198 63.3341 44.3198C63.3341 44.3198 67.6041 47.1338 68.4161 46.0698C71.7621 41.6458 55.8161 27.7718 55.8161 27.7718L55.8021 27.7578Z" fill="#407BFF"/>
<path opacity="0.3" d="M55.8021 27.7578C55.8021 27.7578 41.2561 42.1638 44.5881 46.5038C45.4701 47.6658 50.2021 44.9078 50.2021 44.9078C50.2021 44.9078 51.0701 47.4978 51.8541 47.6658C53.3101 47.9878 56.7961 44.3198 56.7961 44.3198C56.7961 44.3198 59.6801 47.8618 61.0101 47.6658C62.0181 47.5118 63.3341 44.3198 63.3341 44.3198C63.3341 44.3198 67.6041 47.1338 68.4161 46.0698C71.7621 41.6458 55.8161 27.7718 55.8161 27.7718L55.8021 27.7578Z" fill="black"/>
<path d="M36.818 16.7119L35.264 64.1719H39.366L37.812 16.7119H36.818Z" fill="#263238"/>
<path d="M36.8741 27.0859C36.8741 27.0859 14.3061 49.4439 19.4581 56.1779C20.8441 57.9699 28.1661 53.6999 28.1661 53.6999C28.1661 53.6999 29.51 57.7179 30.728 57.9839C32.982 58.4879 38.4001 52.7899 38.4001 52.7899C38.4001 52.7899 42.8801 58.2779 44.9381 57.9839C46.5061 57.7599 48.5501 52.7899 48.5501 52.7899C48.5501 52.7899 55.1861 57.1579 56.4461 55.4919C61.6541 48.6039 36.8881 27.0859 36.8881 27.0859H36.8741Z" fill="#407BFF"/>
<path d="M37.0141 15.0879C37.0141 15.0879 17.4141 34.5059 21.8941 40.3439C23.0841 41.8979 29.4541 38.1879 29.4541 38.1879C29.4541 38.1879 30.6301 41.6739 31.6801 41.9119C33.6401 42.3459 38.3301 37.4039 38.3301 37.4039C38.3301 37.4039 42.2221 42.1779 44.0141 41.9119C45.3721 41.7159 47.1501 37.4039 47.1501 37.4039C47.1501 37.4039 52.9181 41.1979 54.0101 39.7559C58.5321 33.7919 37.0141 15.0879 37.0141 15.0879Z" fill="#407BFF"/>
<path d="M37.1681 6.47788C37.1681 6.47788 21.1941 22.2979 24.8481 27.0579C25.8281 28.3319 31.0081 25.2939 31.0081 25.2939C31.0081 25.2939 31.9601 28.1359 32.8281 28.3319C34.4241 28.6819 38.2461 24.6639 38.2461 24.6639C38.2461 24.6639 41.4101 28.5559 42.8801 28.3319C43.9861 28.1639 45.4281 24.6639 45.4281 24.6639C45.4281 24.6639 50.1181 27.7579 51.0141 26.5679C54.7101 21.7099 37.1681 6.46387 37.1681 6.46387V6.47788Z" fill="#407BFF"/>
<path d="M39.884 1.17183C38.498 -0.158168 36.3 -0.116158 34.97 1.26984C34.942 1.29784 34.928 1.31185 34.9 1.33985C31.274 5.31585 25.058 12.8478 27.214 15.6618C28.012 16.6978 32.268 14.2198 32.268 14.2198C32.268 14.2198 33.038 16.5438 33.752 16.6978C35.068 16.9918 38.19 13.6878 38.19 13.6878C38.19 13.6878 40.794 16.8658 41.984 16.6978C42.894 16.5578 44.07 13.6878 44.07 13.6878C44.07 13.6878 47.92 16.2218 48.648 15.2558C50.832 12.3578 43.86 4.97984 39.87 1.15784L39.884 1.17183Z" fill="#407BFF"/>
<path d="M535.806 29.3397C535.008 28.5697 533.734 28.5977 532.964 29.3957L532.922 29.4377C530.822 31.7337 527.224 36.1017 528.47 37.7257C528.932 38.3277 531.396 36.8997 531.396 36.8997C531.396 36.8997 531.844 38.2437 532.25 38.3417C533.006 38.5097 534.826 36.6057 534.826 36.6057C534.826 36.6057 536.324 38.4397 537.024 38.3417C537.542 38.2577 538.228 36.6057 538.228 36.6057C538.228 36.6057 540.454 38.0757 540.874 37.5157C542.134 35.8357 538.102 31.5657 535.792 29.3537L535.806 29.3397Z" fill="#407BFF"/>
<path opacity="0.3" d="M535.806 29.3397C535.008 28.5697 533.734 28.5977 532.964 29.3957L532.922 29.4377C530.822 31.7337 527.224 36.1017 528.47 37.7257C528.932 38.3277 531.396 36.8997 531.396 36.8997C531.396 36.8997 531.844 38.2437 532.25 38.3417C533.006 38.5097 534.826 36.6057 534.826 36.6057C534.826 36.6057 536.324 38.4397 537.024 38.3417C537.542 38.2577 538.228 36.6057 538.228 36.6057C538.228 36.6057 540.454 38.0757 540.874 37.5157C542.134 35.8357 538.102 31.5657 535.792 29.3537L535.806 29.3397Z" fill="black"/>
<path d="M534.028 38.3276L533.118 65.7816H535.498L534.602 38.3276H534.028Z" fill="#263238"/>
<path d="M534.056 44.3335C534.056 44.3335 520.994 57.2695 523.976 61.1615C524.774 62.1975 529.016 59.7195 529.016 59.7195C529.016 59.7195 529.8 62.0435 530.5 62.1975C531.802 62.4915 534.938 59.2015 534.938 59.2015C534.938 59.2015 537.528 62.3795 538.718 62.1975C539.628 62.0715 540.804 59.2015 540.804 59.2015C540.804 59.2015 544.64 61.7215 545.368 60.7695C548.378 56.7935 534.056 44.3335 534.056 44.3335Z" fill="#407BFF"/>
<path opacity="0.3" d="M534.056 44.3335C534.056 44.3335 520.994 57.2695 523.976 61.1615C524.774 62.1975 529.016 59.7195 529.016 59.7195C529.016 59.7195 529.8 62.0435 530.5 62.1975C531.802 62.4915 534.938 59.2015 534.938 59.2015C534.938 59.2015 537.528 62.3795 538.718 62.1975C539.628 62.0715 540.804 59.2015 540.804 59.2015C540.804 59.2015 544.64 61.7215 545.368 60.7695C548.378 56.7935 534.056 44.3335 534.056 44.3335Z" fill="black"/>
<path d="M534.238 32.4056C534.238 32.4056 524.998 41.5616 527.112 44.3196C527.672 45.0476 530.682 43.2976 530.682 43.2976C530.682 43.2976 531.228 44.9356 531.732 45.0476C532.656 45.2576 534.868 42.9196 534.868 42.9196C534.868 42.9196 536.702 45.1736 537.542 45.0476C538.186 44.9496 539.012 42.9196 539.012 42.9196C539.012 42.9196 541.728 44.7116 542.246 44.0256C544.374 41.2116 534.238 32.3916 534.238 32.3916V32.4056Z" fill="#407BFF"/>
<path opacity="0.3" d="M534.238 32.4056C534.238 32.4056 524.998 41.5616 527.112 44.3196C527.672 45.0476 530.682 43.2976 530.682 43.2976C530.682 43.2976 531.228 44.9356 531.732 45.0476C532.656 45.2576 534.868 42.9196 534.868 42.9196C534.868 42.9196 536.702 45.1736 537.542 45.0476C538.186 44.9496 539.012 42.9196 539.012 42.9196C539.012 42.9196 541.728 44.7116 542.246 44.0256C544.374 41.2116 534.238 32.3916 534.238 32.3916V32.4056Z" fill="black"/>
<path d="M534.14 37.3896C534.14 37.3896 522.8 48.6176 525.39 52.0056C526.076 52.9016 529.772 50.7596 529.772 50.7596C529.772 50.7596 530.444 52.7756 531.06 52.9156C532.194 53.1676 534.91 50.3116 534.91 50.3116C534.91 50.3116 537.164 53.0696 538.2 52.9156C538.984 52.8036 540.006 50.3116 540.006 50.3116C540.006 50.3116 543.338 52.5096 543.968 51.6696C546.586 48.2116 534.14 37.3896 534.14 37.3896Z" fill="#407BFF"/>
<path opacity="0.3" d="M534.14 37.3896C534.14 37.3896 522.8 48.6176 525.39 52.0056C526.076 52.9016 529.772 50.7596 529.772 50.7596C529.772 50.7596 530.444 52.7756 531.06 52.9156C532.194 53.1676 534.91 50.3116 534.91 50.3116C534.91 50.3116 537.164 53.0696 538.2 52.9156C538.984 52.8036 540.006 50.3116 540.006 50.3116C540.006 50.3116 543.338 52.5096 543.968 51.6696C546.586 48.2116 534.14 37.3896 534.14 37.3896Z" fill="black"/>
<path d="M568.622 29.3397C567.824 28.5697 566.55 28.5977 565.78 29.3957L565.738 29.4377C563.638 31.7337 560.04 36.1017 561.286 37.7257C561.748 38.3277 564.212 36.8997 564.212 36.8997C564.212 36.8997 564.66 38.2437 565.066 38.3417C565.822 38.5097 567.642 36.6057 567.642 36.6057C567.642 36.6057 569.14 38.4397 569.84 38.3417C570.358 38.2577 571.044 36.6057 571.044 36.6057C571.044 36.6057 573.27 38.0757 573.69 37.5157C574.95 35.8357 570.918 31.5657 568.608 29.3537L568.622 29.3397Z" fill="#407BFF"/>
<path opacity="0.3" d="M568.622 29.3397C567.824 28.5697 566.55 28.5977 565.78 29.3957L565.738 29.4377C563.638 31.7337 560.04 36.1017 561.286 37.7257C561.748 38.3277 564.212 36.8997 564.212 36.8997C564.212 36.8997 564.66 38.2437 565.066 38.3417C565.822 38.5097 567.642 36.6057 567.642 36.6057C567.642 36.6057 569.14 38.4397 569.84 38.3417C570.358 38.2577 571.044 36.6057 571.044 36.6057C571.044 36.6057 573.27 38.0757 573.69 37.5157C574.95 35.8357 570.918 31.5657 568.608 29.3537L568.622 29.3397Z" fill="black"/>
<path d="M566.858 38.3276L565.948 65.7816H568.328L567.418 38.3276H566.858Z" fill="#263238"/>
<path d="M566.886 44.3335C566.886 44.3335 553.824 57.2695 556.806 61.1615C557.604 62.1975 561.846 59.7195 561.846 59.7195C561.846 59.7195 562.63 62.0435 563.33 62.1975C564.632 62.4915 567.768 59.2015 567.768 59.2015C567.768 59.2015 570.358 62.3795 571.548 62.1975C572.458 62.0715 573.634 59.2015 573.634 59.2015C573.634 59.2015 577.47 61.7215 578.198 60.7695C581.208 56.7935 566.886 44.3335 566.886 44.3335Z" fill="#407BFF"/>
<path opacity="0.3" d="M566.886 44.3335C566.886 44.3335 553.824 57.2695 556.806 61.1615C557.604 62.1975 561.846 59.7195 561.846 59.7195C561.846 59.7195 562.63 62.0435 563.33 62.1975C564.632 62.4915 567.768 59.2015 567.768 59.2015C567.768 59.2015 570.358 62.3795 571.548 62.1975C572.458 62.0715 573.634 59.2015 573.634 59.2015C573.634 59.2015 577.47 61.7215 578.198 60.7695C581.208 56.7935 566.886 44.3335 566.886 44.3335Z" fill="black"/>
<path d="M567.054 32.4056C567.054 32.4056 557.814 41.5616 559.928 44.3196C560.488 45.0476 563.498 43.2976 563.498 43.2976C563.498 43.2976 564.044 44.9356 564.548 45.0476C565.472 45.2576 567.684 42.9196 567.684 42.9196C567.684 42.9196 569.518 45.1736 570.358 45.0476C571.002 44.9496 571.828 42.9196 571.828 42.9196C571.828 42.9196 574.544 44.7116 575.062 44.0256C577.19 41.2116 567.054 32.3916 567.054 32.3916V32.4056Z" fill="#407BFF"/>
<path opacity="0.3" d="M567.054 32.4056C567.054 32.4056 557.814 41.5616 559.928 44.3196C560.488 45.0476 563.498 43.2976 563.498 43.2976C563.498 43.2976 564.044 44.9356 564.548 45.0476C565.472 45.2576 567.684 42.9196 567.684 42.9196C567.684 42.9196 569.518 45.1736 570.358 45.0476C571.002 44.9496 571.828 42.9196 571.828 42.9196C571.828 42.9196 574.544 44.7116 575.062 44.0256C577.19 41.2116 567.054 32.3916 567.054 32.3916V32.4056Z" fill="black"/>
<path d="M566.956 37.3896C566.956 37.3896 555.616 48.6176 558.206 52.0056C558.892 52.9016 562.588 50.7596 562.588 50.7596C562.588 50.7596 563.26 52.7756 563.876 52.9156C565.01 53.1676 567.726 50.3116 567.726 50.3116C567.726 50.3116 569.98 53.0696 571.016 52.9156C571.8 52.8036 572.822 50.3116 572.822 50.3116C572.822 50.3116 576.154 52.5096 576.784 51.6696C579.402 48.2116 566.956 37.3896 566.956 37.3896Z" fill="#407BFF"/>
<path opacity="0.3" d="M566.956 37.3896C566.956 37.3896 555.616 48.6176 558.206 52.0056C558.892 52.9016 562.588 50.7596 562.588 50.7596C562.588 50.7596 563.26 52.7756 563.876 52.9156C565.01 53.1676 567.726 50.3116 567.726 50.3116C567.726 50.3116 569.98 53.0696 571.016 52.9156C571.8 52.8036 572.822 50.3116 572.822 50.3116C572.822 50.3116 576.154 52.5096 576.784 51.6696C579.402 48.2116 566.956 37.3896 566.956 37.3896Z" fill="black"/>
<path d="M552.158 28.7798L550.94 65.7818H554.146L552.928 28.7798H552.158Z" fill="#263238"/>
<path d="M552.2 36.8716C552.2 36.8716 534.602 54.3016 538.62 59.5516C539.698 60.9516 545.41 57.6196 545.41 57.6196C545.41 57.6196 546.46 60.7556 547.412 60.9656C549.176 61.3576 553.39 56.9196 553.39 56.9196C553.39 56.9196 556.876 61.2036 558.486 60.9656C559.704 60.7836 561.3 56.9196 561.3 56.9196C561.3 56.9196 566.466 60.3216 567.46 59.0336C571.52 53.6716 552.214 36.8716 552.214 36.8716H552.2Z" fill="#407BFF"/>
<path d="M552.312 27.52C552.312 27.52 537.024 42.668 540.524 47.218C541.462 48.436 546.418 45.538 546.418 45.538C546.418 45.538 547.328 48.254 548.154 48.436C549.68 48.772 553.348 44.922 553.348 44.922C553.348 44.922 556.372 48.646 557.772 48.436C558.836 48.282 560.208 44.922 560.208 44.922C560.208 44.922 564.702 47.876 565.556 46.756C569.084 42.108 552.312 27.52 552.312 27.52Z" fill="#407BFF"/>
<path d="M552.438 20.7998C552.438 20.7998 539.978 33.1338 542.834 36.8578C543.59 37.8518 547.636 35.4858 547.636 35.4858C547.636 35.4858 548.378 37.6978 549.05 37.8518C550.296 38.1318 553.278 34.9958 553.278 34.9958C553.278 34.9958 555.742 38.0198 556.89 37.8518C557.744 37.7258 558.878 34.9958 558.878 34.9958C558.878 34.9958 562.532 37.4038 563.232 36.4798C566.116 32.6998 552.438 20.8138 552.438 20.8138V20.7998Z" fill="#407BFF"/>
<path d="M554.552 16.6698C553.474 15.6338 551.752 15.6618 550.716 16.7398L550.66 16.7958C547.832 19.9038 542.988 25.7698 544.668 27.9678C545.284 28.7798 548.602 26.8478 548.602 26.8478C548.602 26.8478 549.204 28.6678 549.764 28.7798C550.786 29.0038 553.222 26.4418 553.222 26.4418C553.222 26.4418 555.252 28.9198 556.176 28.7798C556.876 28.6818 557.8 26.4418 557.8 26.4418C557.8 26.4418 560.796 28.4158 561.37 27.6598C563.078 25.4058 557.632 19.6518 554.524 16.6698H554.552Z" fill="#407BFF"/>
</svg>
