<svg width="532" height="182" viewBox="0 0 532 182" fill="none" xmlns="http://www.w3.org/2000/svg">
<path d="M437.644 181.53H529.904V94.4643L437.644 94.4643V181.53Z" fill="#263238"/>
<path opacity="0.5" d="M437.644 181.53H529.904V94.4643L437.644 94.4643V181.53Z" fill="white"/>
<path d="M438.974 94.4784H531.724L527.23 86.3584H438.974V94.4784Z" fill="#263238"/>
<path d="M439.506 148.687H529.4C529.686 148.687 529.918 148.455 529.918 148.169V148.127C529.918 147.84 529.686 147.609 529.4 147.609H439.506C439.22 147.609 438.988 147.84 438.988 148.127V148.169C438.988 148.455 439.22 148.687 439.506 148.687Z" fill="white"/>
<path opacity="0.3" d="M437.546 181.53H529.806V148.14H437.546V181.53Z" fill="white"/>
<path d="M509.786 117.145H517.038V102.529H509.786V117.145Z" fill="#407BFF"/>
<path opacity="0.2" d="M509.8 104.937L517.052 111.041C517.052 111.041 517.052 114.695 517.052 114.667C517.052 114.639 509.8 108.955 509.8 108.983C509.8 109.011 509.8 104.937 509.8 104.937Z" fill="white"/>
<path d="M495.254 117.145H502.506V102.529H495.254V117.145Z" fill="#407BFF"/>
<path opacity="0.4" d="M495.254 117.145H502.506V102.529H495.254V117.145Z" fill="white"/>
<path opacity="0.2" d="M495.254 104.937L502.506 111.041C502.506 111.041 502.506 114.695 502.506 114.667C502.506 114.639 495.254 108.955 495.254 108.983C495.254 109.011 495.254 104.937 495.254 104.937Z" fill="white"/>
<path d="M480.708 117.145H487.96V102.529H480.708V117.145Z" fill="#407BFF"/>
<path opacity="0.4" d="M480.708 117.145H487.96V102.529H480.708V117.145Z" fill="white"/>
<path opacity="0.2" d="M480.722 104.937L487.974 111.041C487.974 111.041 487.974 114.695 487.974 114.667C487.974 114.639 480.722 108.955 480.722 108.983C480.722 109.011 480.722 104.937 480.722 104.937Z" fill="white"/>
<path d="M466.19 117.145H473.442V102.529H466.19V117.145Z" fill="#407BFF"/>
<path opacity="0.4" d="M466.19 117.145H473.442V102.529H466.19V117.145Z" fill="white"/>
<path opacity="0.2" d="M466.176 104.937L473.428 111.041C473.428 111.041 473.428 114.695 473.428 114.667C473.428 114.639 466.176 108.955 466.176 108.983C466.176 109.011 466.176 104.937 466.176 104.937Z" fill="white"/>
<path d="M508.54 118.194H517.892V117.116H508.54V118.194Z" fill="white"/>
<path d="M494.12 118.194H503.472V117.116H494.12V118.194Z" fill="white"/>
<path d="M479.714 118.194H489.066V117.116H479.714V118.194Z" fill="white"/>
<path d="M465.294 118.194H474.646V117.116H465.294V118.194Z" fill="white"/>
<path d="M451.882 117.145H459.134V102.529H451.882V117.145Z" fill="#407BFF"/>
<path opacity="0.4" d="M451.882 117.145H459.134V102.529H451.882V117.145Z" fill="white"/>
<path opacity="0.2" d="M451.896 104.937L459.148 111.041C459.148 111.041 459.148 114.695 459.148 114.667C459.148 114.639 451.896 108.955 451.896 108.983C451.896 109.011 451.896 104.937 451.896 104.937Z" fill="white"/>
<path d="M451 118.194H460.352V117.116H451V118.194Z" fill="white"/>
<path opacity="0.4" d="M509.786 117.145H517.038V102.529H509.786V117.145Z" fill="white"/>
<path d="M509.786 141.183H517.038V126.567H509.786V141.183Z" fill="#407BFF"/>
<path opacity="0.2" d="M509.8 128.975L517.052 135.079C517.052 135.079 517.052 138.733 517.052 138.705C517.052 138.677 509.8 132.993 509.8 133.035C509.8 133.077 509.8 128.989 509.8 128.989V128.975Z" fill="white"/>
<path d="M495.254 141.183H502.506V126.567H495.254V141.183Z" fill="#407BFF"/>
<path opacity="0.4" d="M495.254 141.183H502.506V126.567H495.254V141.183Z" fill="white"/>
<path opacity="0.2" d="M495.254 128.975L502.506 135.079C502.506 135.079 502.506 138.733 502.506 138.705C502.506 138.677 495.254 132.993 495.254 133.035C495.254 133.077 495.254 128.989 495.254 128.989V128.975Z" fill="white"/>
<path d="M480.708 141.183H487.96V126.567H480.708V141.183Z" fill="#407BFF"/>
<path opacity="0.4" d="M480.708 141.183H487.96V126.567H480.708V141.183Z" fill="white"/>
<path opacity="0.2" d="M480.722 128.975L487.974 135.079C487.974 135.079 487.974 138.733 487.974 138.705C487.974 138.677 480.722 132.993 480.722 133.035C480.722 133.077 480.722 128.989 480.722 128.989V128.975Z" fill="white"/>
<path d="M466.19 141.183H473.442V126.567H466.19V141.183Z" fill="#407BFF"/>
<path opacity="0.4" d="M466.19 141.183H473.442V126.567H466.19V141.183Z" fill="white"/>
<path opacity="0.2" d="M466.176 128.975L473.428 135.079C473.428 135.079 473.428 138.733 473.428 138.705C473.428 138.677 466.176 132.993 466.176 133.035C466.176 133.077 466.176 128.989 466.176 128.989V128.975Z" fill="white"/>
<path d="M508.54 142.218H517.892V141.14H508.54V142.218Z" fill="white"/>
<path d="M494.12 142.218H503.472V141.14H494.12V142.218Z" fill="white"/>
<path d="M479.714 142.218H489.066V141.14H479.714V142.218Z" fill="white"/>
<path d="M465.294 142.218H474.646V141.14H465.294V142.218Z" fill="white"/>
<path d="M451.882 141.183H459.134V126.567H451.882V141.183Z" fill="#407BFF"/>
<path opacity="0.4" d="M451.882 141.183H459.134V126.567H451.882V141.183Z" fill="white"/>
<path opacity="0.2" d="M451.896 128.975L459.148 135.079C459.148 135.079 459.148 138.733 459.148 138.705C459.148 138.677 451.896 132.993 451.896 133.035C451.896 133.077 451.896 128.989 451.896 128.989V128.975Z" fill="white"/>
<path d="M451 142.218H460.352V141.14H451V142.218Z" fill="white"/>
<path opacity="0.4" d="M509.786 141.183H517.038V126.567H509.786V141.183Z" fill="white"/>
<path d="M509.786 170.653H517.038V156.037H509.786V170.653Z" fill="#407BFF"/>
<path opacity="0.2" d="M509.8 158.431L517.052 164.535C517.052 164.535 517.052 168.189 517.052 168.161C517.052 168.133 509.8 162.449 509.8 162.477C509.8 162.505 509.8 158.431 509.8 158.431Z" fill="white"/>
<path d="M495.254 170.653H502.506V156.037H495.254V170.653Z" fill="#407BFF"/>
<path opacity="0.4" d="M495.254 170.653H502.506V156.037H495.254V170.653Z" fill="white"/>
<path opacity="0.2" d="M495.254 158.431L502.506 164.535C502.506 164.535 502.506 168.189 502.506 168.161C502.506 168.133 495.254 162.449 495.254 162.477C495.254 162.505 495.254 158.431 495.254 158.431Z" fill="white"/>
<path d="M480.708 170.653H487.96V156.037H480.708V170.653Z" fill="#407BFF"/>
<path opacity="0.4" d="M480.708 170.653H487.96V156.037H480.708V170.653Z" fill="white"/>
<path opacity="0.2" d="M480.722 158.431L487.974 164.535C487.974 164.535 487.974 168.189 487.974 168.161C487.974 168.133 480.722 162.449 480.722 162.477C480.722 162.505 480.722 158.431 480.722 158.431Z" fill="white"/>
<path d="M466.19 170.653H473.442V156.037H466.19V170.653Z" fill="#407BFF"/>
<path opacity="0.4" d="M466.19 170.653H473.442V156.037H466.19V170.653Z" fill="white"/>
<path opacity="0.2" d="M466.176 158.431L473.428 164.535C473.428 164.535 473.428 168.189 473.428 168.161C473.428 168.133 466.176 162.449 466.176 162.477C466.176 162.505 466.176 158.431 466.176 158.431Z" fill="white"/>
<path d="M508.54 171.688H517.892V170.61H508.54V171.688Z" fill="white"/>
<path d="M494.12 171.688H503.472V170.61H494.12V171.688Z" fill="white"/>
<path d="M479.714 171.688H489.066V170.61H479.714V171.688Z" fill="white"/>
<path d="M465.294 171.688H474.646V170.61H465.294V171.688Z" fill="white"/>
<path d="M451.882 170.653H459.134V156.037H451.882V170.653Z" fill="#407BFF"/>
<path opacity="0.4" d="M451.882 170.653H459.134V156.037H451.882V170.653Z" fill="white"/>
<path opacity="0.2" d="M451.896 158.431L459.148 164.535C459.148 164.535 459.148 168.189 459.148 168.161C459.148 168.133 451.896 162.449 451.896 162.477C451.896 162.505 451.896 158.431 451.896 158.431Z" fill="white"/>
<path d="M451 171.688H460.352V170.61H451V171.688Z" fill="white"/>
<path opacity="0.4" d="M509.786 170.653H517.038V156.037H509.786V170.653Z" fill="white"/>
<path opacity="0.3" d="M438.974 94.4784H531.724L527.23 86.3584H438.974V94.4784Z" fill="white"/>
<path opacity="0.2" d="M437.644 95.6963L529.904 95.6963V94.4783L437.644 94.4783V95.6963Z" fill="black"/>
<path opacity="0.1" d="M459.4 181.376H465.294V86.358H459.4V181.376Z" fill="black"/>
<path d="M94.84 94.4785H2.57996V181.545H94.84V94.4785Z" fill="#263238"/>
<path opacity="0.5" d="M94.84 94.4785H2.57996V181.545H94.84V94.4785Z" fill="white"/>
<path d="M93.51 94.4784H0.76001L5.26801 86.3584H93.51V94.4784Z" fill="#263238"/>
<path d="M92.992 147.608H3.09795C2.81187 147.608 2.57996 147.84 2.57996 148.126V148.168C2.57996 148.454 2.81187 148.686 3.09795 148.686H92.992C93.278 148.686 93.5099 148.454 93.5099 148.168V148.126C93.5099 147.84 93.278 147.608 92.992 147.608Z" fill="white"/>
<path opacity="0.3" d="M94.952 148.154H2.69202V181.544H94.952V148.154Z" fill="white"/>
<path d="M22.6979 102.542H15.4459V117.158H22.6979V102.542Z" fill="#407BFF"/>
<path opacity="0.2" d="M22.6979 104.937L15.4459 111.041C15.4459 111.041 15.4459 114.695 15.4459 114.667C15.4459 114.639 22.6979 108.955 22.6979 108.983C22.6979 109.011 22.6979 104.937 22.6979 104.937Z" fill="white"/>
<path d="M37.2439 102.542H29.9919V117.158H37.2439V102.542Z" fill="#407BFF"/>
<path opacity="0.4" d="M37.2439 102.542H29.9919V117.158H37.2439V102.542Z" fill="white"/>
<path opacity="0.2" d="M37.2299 104.937L29.9779 111.041C29.9779 111.041 29.9779 114.695 29.9779 114.667C29.9779 114.639 37.2299 108.955 37.2299 108.983C37.2299 109.011 37.2299 104.937 37.2299 104.937Z" fill="white"/>
<path d="M51.7759 102.542H44.5239V117.158H51.7759V102.542Z" fill="#407BFF"/>
<path opacity="0.4" d="M51.7759 102.542H44.5239V117.158H51.7759V102.542Z" fill="white"/>
<path opacity="0.2" d="M51.7759 104.937L44.5239 111.041C44.5239 111.041 44.5239 114.695 44.5239 114.667C44.5239 114.639 51.7759 108.955 51.7759 108.983C51.7759 109.011 51.7759 104.937 51.7759 104.937Z" fill="white"/>
<path d="M66.3079 102.542H59.0559V117.158H66.3079V102.542Z" fill="#407BFF"/>
<path opacity="0.4" d="M66.3079 102.542H59.0559V117.158H66.3079V102.542Z" fill="white"/>
<path opacity="0.2" d="M66.3079 104.937L59.0559 111.041C59.0559 111.041 59.0559 114.695 59.0559 114.667C59.0559 114.639 66.3079 108.955 66.3079 108.983C66.3079 109.011 66.3079 104.937 66.3079 104.937Z" fill="white"/>
<path d="M23.958 117.13H14.606V118.208H23.958V117.13Z" fill="white"/>
<path d="M38.378 117.13H29.026V118.208H38.378V117.13Z" fill="white"/>
<path d="M52.784 117.13H43.432V118.208H52.784V117.13Z" fill="white"/>
<path d="M67.2039 117.13H57.8519V118.208H67.2039V117.13Z" fill="white"/>
<path d="M80.602 102.542H73.35V117.158H80.602V102.542Z" fill="#407BFF"/>
<path opacity="0.4" d="M80.602 102.542H73.35V117.158H80.602V102.542Z" fill="white"/>
<path opacity="0.2" d="M80.602 104.937L73.35 111.041C73.35 111.041 73.35 114.695 73.35 114.667C73.35 114.639 80.602 108.955 80.602 108.983C80.602 109.011 80.602 104.937 80.602 104.937Z" fill="white"/>
<path d="M81.498 117.13H72.146V118.208H81.498V117.13Z" fill="white"/>
<path opacity="0.4" d="M22.6979 102.542H15.4459V117.158H22.6979V102.542Z" fill="white"/>
<path d="M22.6979 126.566H15.4459V141.182H22.6979V126.566Z" fill="#407BFF"/>
<path opacity="0.2" d="M22.6979 128.975L15.4459 135.079C15.4459 135.079 15.4459 138.733 15.4459 138.705C15.4459 138.677 22.6979 132.993 22.6979 133.035C22.6979 133.077 22.6979 128.989 22.6979 128.989V128.975Z" fill="white"/>
<path d="M37.2439 126.566H29.9919V141.182H37.2439V126.566Z" fill="#407BFF"/>
<path opacity="0.4" d="M37.2439 126.566H29.9919V141.182H37.2439V126.566Z" fill="white"/>
<path opacity="0.2" d="M37.2299 128.975L29.9779 135.079C29.9779 135.079 29.9779 138.733 29.9779 138.705C29.9779 138.677 37.2299 132.993 37.2299 133.035C37.2299 133.077 37.2299 128.989 37.2299 128.989V128.975Z" fill="white"/>
<path d="M51.7759 126.566H44.5239V141.182H51.7759V126.566Z" fill="#407BFF"/>
<path opacity="0.4" d="M51.7759 126.566H44.5239V141.182H51.7759V126.566Z" fill="white"/>
<path opacity="0.2" d="M51.7759 128.975L44.5239 135.079C44.5239 135.079 44.5239 138.733 44.5239 138.705C44.5239 138.677 51.7759 132.993 51.7759 133.035C51.7759 133.077 51.7759 128.989 51.7759 128.989V128.975Z" fill="white"/>
<path d="M66.3079 126.566H59.0559V141.182H66.3079V126.566Z" fill="#407BFF"/>
<path opacity="0.4" d="M66.3079 126.566H59.0559V141.182H66.3079V126.566Z" fill="white"/>
<path opacity="0.2" d="M66.3079 128.975L59.0559 135.079C59.0559 135.079 59.0559 138.733 59.0559 138.705C59.0559 138.677 66.3079 132.993 66.3079 133.035C66.3079 133.077 66.3079 128.989 66.3079 128.989V128.975Z" fill="white"/>
<path d="M23.958 141.154H14.606V142.232H23.958V141.154Z" fill="white"/>
<path d="M38.378 141.154H29.026V142.232H38.378V141.154Z" fill="white"/>
<path d="M52.784 141.154H43.432V142.232H52.784V141.154Z" fill="white"/>
<path d="M67.2039 141.154H57.8519V142.232H67.2039V141.154Z" fill="white"/>
<path d="M80.602 126.566H73.35V141.182H80.602V126.566Z" fill="#407BFF"/>
<path opacity="0.4" d="M80.602 126.566H73.35V141.182H80.602V126.566Z" fill="white"/>
<path opacity="0.2" d="M80.602 128.975L73.35 135.079C73.35 135.079 73.35 138.733 73.35 138.705C73.35 138.677 80.602 132.993 80.602 133.035C80.602 133.077 80.602 128.989 80.602 128.989V128.975Z" fill="white"/>
<path d="M81.498 141.154H72.146V142.232H81.498V141.154Z" fill="white"/>
<path opacity="0.4" d="M22.6979 126.566H15.4459V141.182H22.6979V126.566Z" fill="white"/>
<path d="M22.6979 156.022H15.4459V170.638H22.6979V156.022Z" fill="#407BFF"/>
<path opacity="0.2" d="M22.6979 158.431L15.4459 164.535C15.4459 164.535 15.4459 168.189 15.4459 168.161C15.4459 168.133 22.6979 162.449 22.6979 162.477C22.6979 162.505 22.6979 158.431 22.6979 158.431Z" fill="white"/>
<path d="M37.2439 156.022H29.9919V170.638H37.2439V156.022Z" fill="#407BFF"/>
<path opacity="0.4" d="M37.2439 156.022H29.9919V170.638H37.2439V156.022Z" fill="white"/>
<path opacity="0.2" d="M37.2299 158.431L29.9779 164.535C29.9779 164.535 29.9779 168.189 29.9779 168.161C29.9779 168.133 37.2299 162.449 37.2299 162.477C37.2299 162.505 37.2299 158.431 37.2299 158.431Z" fill="white"/>
<path d="M51.7759 156.022H44.5239V170.638H51.7759V156.022Z" fill="#407BFF"/>
<path opacity="0.4" d="M51.7759 156.022H44.5239V170.638H51.7759V156.022Z" fill="white"/>
<path opacity="0.2" d="M51.7759 158.431L44.5239 164.535C44.5239 164.535 44.5239 168.189 44.5239 168.161C44.5239 168.133 51.7759 162.449 51.7759 162.477C51.7759 162.505 51.7759 158.431 51.7759 158.431Z" fill="white"/>
<path d="M66.3079 156.022H59.0559V170.638H66.3079V156.022Z" fill="#407BFF"/>
<path opacity="0.4" d="M66.3079 156.022H59.0559V170.638H66.3079V156.022Z" fill="white"/>
<path opacity="0.2" d="M66.3079 158.431L59.0559 164.535C59.0559 164.535 59.0559 168.189 59.0559 168.161C59.0559 168.133 66.3079 162.449 66.3079 162.477C66.3079 162.505 66.3079 158.431 66.3079 158.431Z" fill="white"/>
<path d="M23.958 170.61H14.606V171.688H23.958V170.61Z" fill="white"/>
<path d="M38.378 170.61H29.026V171.688H38.378V170.61Z" fill="white"/>
<path d="M52.784 170.61H43.432V171.688H52.784V170.61Z" fill="white"/>
<path d="M67.2039 170.61H57.8519V171.688H67.2039V170.61Z" fill="white"/>
<path d="M80.602 156.022H73.35V170.638H80.602V156.022Z" fill="#407BFF"/>
<path opacity="0.4" d="M80.602 156.022H73.35V170.638H80.602V156.022Z" fill="white"/>
<path opacity="0.2" d="M80.602 158.431L73.35 164.535C73.35 164.535 73.35 168.189 73.35 168.161C73.35 168.133 80.602 162.449 80.602 162.477C80.602 162.505 80.602 158.431 80.602 158.431Z" fill="white"/>
<path d="M81.498 170.61H72.146V171.688H81.498V170.61Z" fill="white"/>
<path opacity="0.4" d="M22.6979 156.022H15.4459V170.638H22.6979V156.022Z" fill="white"/>
<path opacity="0.3" d="M93.51 94.4784H0.76001L5.26801 86.3584H93.51V94.4784Z" fill="white"/>
<path opacity="0.2" d="M94.84 94.4785H2.57996V95.6965H94.84V94.4785Z" fill="black"/>
<path d="M328.388 48.894H204.978V169.112H328.388V48.894Z" fill="#263238"/>
<path opacity="0.5" d="M328.388 48.894H204.978V169.112H328.388V48.894Z" fill="white"/>
<path opacity="0.3" d="M322.788 123.836H211.922V166.83H322.788V123.836Z" fill="white"/>
<path d="M322.06 123.836H212.986V126.314H322.06V123.836Z" fill="white"/>
<path opacity="0.1" d="M217.116 166.746C218.362 166.746 217.116 61.3541 217.116 61.3541L223.64 56.1181H314.724L317.986 59.3801V166.76H329.438V46.9341H210.354C210.354 46.9341 208.52 169.924 210.354 168.09C212.188 166.256 217.13 166.746 217.13 166.746H217.116Z" fill="black"/>
<path d="M199.126 62.6421H73.126V181.53H199.126V62.6421Z" fill="#263238"/>
<path opacity="0.5" d="M199.126 62.6421H73.126V181.53H199.126V62.6421Z" fill="white"/>
<path d="M197.292 62.6422H70.634L76.78 51.5542H197.292V62.6422Z" fill="#263238"/>
<path d="M73.8261 135.204H196.578C196.97 135.204 197.292 135.526 197.292 135.918V135.974C197.292 136.366 196.97 136.688 196.578 136.688H73.8261C73.4341 136.688 73.1121 136.366 73.1121 135.974V135.918C73.1121 135.526 73.4341 135.204 73.8261 135.204Z" fill="white"/>
<path opacity="0.3" d="M199.252 135.946H73.2521V181.544H199.252V135.946Z" fill="white"/>
<path d="M100.58 73.6602H90.682V93.6242H100.58V73.6602Z" fill="#407BFF"/>
<path opacity="0.2" d="M100.594 76.9364L90.696 85.2664C90.696 85.2664 90.696 90.2504 90.696 90.2084C90.696 90.1664 100.594 82.4104 100.594 82.4524C100.594 82.4944 100.594 76.9224 100.594 76.9224V76.9364Z" fill="white"/>
<path d="M120.432 73.6602H110.534V93.6242H120.432V73.6602Z" fill="#407BFF"/>
<path opacity="0.4" d="M120.432 73.6602H110.534V93.6242H120.432V73.6602Z" fill="white"/>
<path opacity="0.2" d="M120.446 76.9364L110.548 85.2664C110.548 85.2664 110.548 90.2504 110.548 90.2084C110.548 90.1664 120.446 82.4104 120.446 82.4524C120.446 82.4944 120.446 76.9224 120.446 76.9224V76.9364Z" fill="white"/>
<path d="M140.284 73.6602H130.386V93.6242H140.284V73.6602Z" fill="#407BFF"/>
<path opacity="0.4" d="M140.284 73.6602H130.386V93.6242H140.284V73.6602Z" fill="white"/>
<path opacity="0.2" d="M140.298 76.9364L130.4 85.2664C130.4 85.2664 130.4 90.2504 130.4 90.2084C130.4 90.1664 140.298 82.4104 140.298 82.4524C140.298 82.4944 140.298 76.9224 140.298 76.9224V76.9364Z" fill="white"/>
<path d="M160.136 73.6602H150.238V93.6242H160.136V73.6602Z" fill="#407BFF"/>
<path opacity="0.4" d="M160.136 73.6602H150.238V93.6242H160.136V73.6602Z" fill="white"/>
<path opacity="0.2" d="M160.15 76.9364L150.252 85.2664C150.252 85.2664 150.252 90.2504 150.252 90.2084C150.252 90.1664 160.15 82.4104 160.15 82.4524C160.15 82.4944 160.15 76.9224 160.15 76.9224V76.9364Z" fill="white"/>
<path d="M102.302 93.582H89.5341V95.052H102.302V93.582Z" fill="white"/>
<path d="M121.986 93.582H109.218V95.052H121.986V93.582Z" fill="white"/>
<path d="M141.67 93.582H128.902V95.052H141.67V93.582Z" fill="white"/>
<path d="M161.354 93.582H148.586V95.052H161.354V93.582Z" fill="white"/>
<path d="M179.666 73.6602H169.768V93.6242H179.666V73.6602Z" fill="#407BFF"/>
<path opacity="0.4" d="M179.666 73.6602H169.768V93.6242H179.666V73.6602Z" fill="white"/>
<path opacity="0.2" d="M179.666 76.9364L169.768 85.2664C169.768 85.2664 169.768 90.2504 169.768 90.2084C169.768 90.1664 179.666 82.4104 179.666 82.4524C179.666 82.4944 179.666 76.9224 179.666 76.9224V76.9364Z" fill="white"/>
<path d="M180.87 93.582H168.102V95.052H180.87V93.582Z" fill="white"/>
<path opacity="0.4" d="M100.58 73.6602H90.682V93.6242H100.58V73.6602Z" fill="white"/>
<path d="M100.58 106.462H90.682V126.426H100.58V106.462Z" fill="#407BFF"/>
<path opacity="0.2" d="M100.594 109.752L90.696 118.082C90.696 118.082 90.696 123.066 90.696 123.024C90.696 122.982 100.594 115.226 100.594 115.268C100.594 115.31 100.594 109.738 100.594 109.738V109.752Z" fill="white"/>
<path d="M120.432 106.462H110.534V126.426H120.432V106.462Z" fill="#407BFF"/>
<path opacity="0.4" d="M120.432 106.462H110.534V126.426H120.432V106.462Z" fill="white"/>
<path opacity="0.2" d="M120.446 109.752L110.548 118.082C110.548 118.082 110.548 123.066 110.548 123.024C110.548 122.982 120.446 115.226 120.446 115.268C120.446 115.31 120.446 109.738 120.446 109.738V109.752Z" fill="white"/>
<path d="M140.284 106.462H130.386V126.426H140.284V106.462Z" fill="#407BFF"/>
<path opacity="0.4" d="M140.284 106.462H130.386V126.426H140.284V106.462Z" fill="white"/>
<path opacity="0.2" d="M140.298 109.752L130.4 118.082C130.4 118.082 130.4 123.066 130.4 123.024C130.4 122.982 140.298 115.226 140.298 115.268C140.298 115.31 140.298 109.738 140.298 109.738V109.752Z" fill="white"/>
<path d="M160.136 106.462H150.238V126.426H160.136V106.462Z" fill="#407BFF"/>
<path opacity="0.4" d="M160.136 106.462H150.238V126.426H160.136V106.462Z" fill="white"/>
<path opacity="0.2" d="M160.15 109.752L150.252 118.082C150.252 118.082 150.252 123.066 150.252 123.024C150.252 122.982 160.15 115.226 160.15 115.268C160.15 115.31 160.15 109.738 160.15 109.738V109.752Z" fill="white"/>
<path d="M102.302 126.384H89.5341V127.854H102.302V126.384Z" fill="white"/>
<path d="M121.986 126.384H109.218V127.854H121.986V126.384Z" fill="white"/>
<path d="M141.67 126.384H128.902V127.854H141.67V126.384Z" fill="white"/>
<path d="M161.354 126.384H148.586V127.854H161.354V126.384Z" fill="white"/>
<path d="M179.666 106.462H169.768V126.426H179.666V106.462Z" fill="#407BFF"/>
<path opacity="0.4" d="M179.666 106.462H169.768V126.426H179.666V106.462Z" fill="white"/>
<path opacity="0.2" d="M179.666 109.752L169.768 118.082C169.768 118.082 169.768 123.066 169.768 123.024C169.768 122.982 179.666 115.226 179.666 115.268C179.666 115.31 179.666 109.738 179.666 109.738V109.752Z" fill="white"/>
<path d="M180.87 126.384H168.102V127.854H180.87V126.384Z" fill="white"/>
<path opacity="0.4" d="M100.58 106.462H90.682V126.426H100.58V106.462Z" fill="white"/>
<path d="M100.58 146.698H90.682V166.662H100.58V146.698Z" fill="#407BFF"/>
<path opacity="0.2" d="M100.594 149.988L90.696 158.318C90.696 158.318 90.696 163.302 90.696 163.26C90.696 163.218 100.594 155.462 100.594 155.504C100.594 155.546 100.594 149.974 100.594 149.974V149.988Z" fill="white"/>
<path d="M120.432 146.698H110.534V166.662H120.432V146.698Z" fill="#407BFF"/>
<path opacity="0.4" d="M120.432 146.698H110.534V166.662H120.432V146.698Z" fill="white"/>
<path opacity="0.2" d="M120.446 149.988L110.548 158.318C110.548 158.318 110.548 163.302 110.548 163.26C110.548 163.218 120.446 155.462 120.446 155.504C120.446 155.546 120.446 149.974 120.446 149.974V149.988Z" fill="white"/>
<path d="M140.284 146.698H130.386V166.662H140.284V146.698Z" fill="#407BFF"/>
<path opacity="0.4" d="M140.284 146.698H130.386V166.662H140.284V146.698Z" fill="white"/>
<path opacity="0.2" d="M140.298 149.988L130.4 158.318C130.4 158.318 130.4 163.302 130.4 163.26C130.4 163.218 140.298 155.462 140.298 155.504C140.298 155.546 140.298 149.974 140.298 149.974V149.988Z" fill="white"/>
<path d="M160.136 146.698H150.238V166.662H160.136V146.698Z" fill="#407BFF"/>
<path opacity="0.4" d="M160.136 146.698H150.238V166.662H160.136V146.698Z" fill="white"/>
<path opacity="0.2" d="M160.15 149.988L150.252 158.318C150.252 158.318 150.252 163.302 150.252 163.26C150.252 163.218 160.15 155.462 160.15 155.504C160.15 155.546 160.15 149.974 160.15 149.974V149.988Z" fill="white"/>
<path d="M102.302 166.62H89.5341V168.09H102.302V166.62Z" fill="white"/>
<path d="M121.986 166.62H109.218V168.09H121.986V166.62Z" fill="white"/>
<path d="M141.67 166.62H128.902V168.09H141.67V166.62Z" fill="white"/>
<path d="M161.354 166.62H148.586V168.09H161.354V166.62Z" fill="white"/>
<path d="M179.666 146.698H169.768V166.662H179.666V146.698Z" fill="#407BFF"/>
<path opacity="0.4" d="M179.666 146.698H169.768V166.662H179.666V146.698Z" fill="white"/>
<path opacity="0.2" d="M179.666 149.988L169.768 158.318C169.768 158.318 169.768 163.302 169.768 163.26C169.768 163.218 179.666 155.462 179.666 155.504C179.666 155.546 179.666 149.974 179.666 149.974V149.988Z" fill="white"/>
<path d="M180.87 166.62H168.102V168.09H180.87V166.62Z" fill="white"/>
<path opacity="0.4" d="M100.58 146.698H90.682V166.662H100.58V146.698Z" fill="white"/>
<path opacity="0.3" d="M197.292 62.6422H70.634L76.78 51.5542H197.292V62.6422Z" fill="white"/>
<path opacity="0.2" d="M199.126 62.6421H73.126V64.3081H199.126V62.6421Z" fill="black"/>
<path d="M334.576 180.984L460.576 180.984V62.0964L334.576 62.0964V180.984Z" fill="#263238"/>
<path opacity="0.5" d="M334.576 180.984L460.576 180.984V62.0964L334.576 62.0964V180.984Z" fill="white"/>
<path d="M336.41 62.0823H463.068L456.922 51.0083H336.41V62.0823Z" fill="#263238"/>
<path d="M459.876 136.128L337.124 136.128C336.732 136.128 336.41 135.806 336.41 135.414V135.358C336.41 134.966 336.732 134.644 337.124 134.644L459.876 134.644C460.268 134.644 460.59 134.966 460.59 135.358V135.414C460.59 135.806 460.268 136.128 459.876 136.128Z" fill="white"/>
<path opacity="0.3" d="M334.45 180.984L460.45 180.984V135.386H334.45V180.984Z" fill="white"/>
<path d="M433.108 93.064H443.006V73.1H433.108V93.064Z" fill="#407BFF"/>
<path opacity="0.2" d="M433.122 76.3763L443.02 84.7063C443.02 84.7063 443.02 89.6903 443.02 89.6483C443.02 89.6063 433.122 81.8503 433.122 81.8923C433.122 81.9343 433.122 76.3623 433.122 76.3623V76.3763Z" fill="white"/>
<path d="M413.256 93.064H423.154V73.1H413.256V93.064Z" fill="#407BFF"/>
<path opacity="0.4" d="M413.256 93.064H423.154V73.1H413.256V93.064Z" fill="white"/>
<path opacity="0.2" d="M413.27 76.3763L423.168 84.7063C423.168 84.7063 423.168 89.6903 423.168 89.6483C423.168 89.6063 413.27 81.8503 413.27 81.8923C413.27 81.9343 413.27 76.3623 413.27 76.3623V76.3763Z" fill="white"/>
<path d="M393.404 93.064H403.302V73.1H393.404V93.064Z" fill="#407BFF"/>
<path opacity="0.4" d="M393.404 93.064H403.302V73.1H393.404V93.064Z" fill="white"/>
<path opacity="0.2" d="M393.418 76.3763L403.316 84.7063C403.316 84.7063 403.316 89.6903 403.316 89.6483C403.316 89.6063 393.418 81.8503 393.418 81.8923C393.418 81.9343 393.418 76.3623 393.418 76.3623V76.3763Z" fill="white"/>
<path d="M373.552 93.064H383.45V73.1H373.552V93.064Z" fill="#407BFF"/>
<path opacity="0.4" d="M373.552 93.064H383.45V73.1H373.552V93.064Z" fill="white"/>
<path opacity="0.2" d="M373.566 76.3763L383.464 84.7063C383.464 84.7063 383.464 89.6903 383.464 89.6483C383.464 89.6063 373.566 81.8503 373.566 81.8923C373.566 81.9343 373.566 76.3623 373.566 76.3623V76.3763Z" fill="white"/>
<path d="M431.4 94.478H444.168V93.008H431.4V94.478Z" fill="white"/>
<path d="M411.716 94.478H424.484V93.008H411.716V94.478Z" fill="white"/>
<path d="M392.032 94.478H404.8V93.008H392.032V94.478Z" fill="white"/>
<path d="M372.348 94.478H385.116V93.008H372.348V94.478Z" fill="white"/>
<path d="M354.05 93.064H363.948V73.1H354.05V93.064Z" fill="#407BFF"/>
<path opacity="0.4" d="M354.05 93.064H363.948V73.1H354.05V93.064Z" fill="white"/>
<path opacity="0.2" d="M354.036 76.3763L363.934 84.7063C363.934 84.7063 363.934 89.6903 363.934 89.6483C363.934 89.6063 354.036 81.8503 354.036 81.8923C354.036 81.9343 354.036 76.3623 354.036 76.3623V76.3763Z" fill="white"/>
<path d="M352.832 94.478H365.6V93.008H352.832V94.478Z" fill="white"/>
<path opacity="0.4" d="M433.108 93.064H443.006V73.1H433.108V93.064Z" fill="white"/>
<path d="M433.108 125.866H443.006V105.902H433.108V125.866Z" fill="#407BFF"/>
<path opacity="0.2" d="M433.122 109.192L443.02 117.522C443.02 117.522 443.02 122.506 443.02 122.464C443.02 122.422 433.122 114.666 433.122 114.708C433.122 114.75 433.122 109.178 433.122 109.178V109.192Z" fill="white"/>
<path d="M413.256 125.866H423.154V105.902H413.256V125.866Z" fill="#407BFF"/>
<path opacity="0.4" d="M413.256 125.866H423.154V105.902H413.256V125.866Z" fill="white"/>
<path opacity="0.2" d="M413.27 109.192L423.168 117.522C423.168 117.522 423.168 122.506 423.168 122.464C423.168 122.422 413.27 114.666 413.27 114.708C413.27 114.75 413.27 109.178 413.27 109.178V109.192Z" fill="white"/>
<path d="M393.404 125.866H403.302V105.902H393.404V125.866Z" fill="#407BFF"/>
<path opacity="0.4" d="M393.404 125.866H403.302V105.902H393.404V125.866Z" fill="white"/>
<path opacity="0.2" d="M393.418 109.192L403.316 117.522C403.316 117.522 403.316 122.506 403.316 122.464C403.316 122.422 393.418 114.666 393.418 114.708C393.418 114.75 393.418 109.178 393.418 109.178V109.192Z" fill="white"/>
<path d="M373.552 125.866H383.45V105.902H373.552V125.866Z" fill="#407BFF"/>
<path opacity="0.4" d="M373.552 125.866H383.45V105.902H373.552V125.866Z" fill="white"/>
<path opacity="0.2" d="M373.566 109.192L383.464 117.522C383.464 117.522 383.464 122.506 383.464 122.464C383.464 122.422 373.566 114.666 373.566 114.708C373.566 114.75 373.566 109.178 373.566 109.178V109.192Z" fill="white"/>
<path d="M431.4 127.294H444.168V125.824H431.4V127.294Z" fill="white"/>
<path d="M411.716 127.294H424.484V125.824H411.716V127.294Z" fill="white"/>
<path d="M392.032 127.294H404.8V125.824H392.032V127.294Z" fill="white"/>
<path d="M372.348 127.294H385.116V125.824H372.348V127.294Z" fill="white"/>
<path d="M354.05 125.866H363.948V105.902H354.05V125.866Z" fill="#407BFF"/>
<path opacity="0.4" d="M354.05 125.866H363.948V105.902H354.05V125.866Z" fill="white"/>
<path opacity="0.2" d="M354.036 109.192L363.934 117.522C363.934 117.522 363.934 122.506 363.934 122.464C363.934 122.422 354.036 114.666 354.036 114.708C354.036 114.75 354.036 109.178 354.036 109.178V109.192Z" fill="white"/>
<path d="M352.832 127.294H365.6V125.824H352.832V127.294Z" fill="white"/>
<path opacity="0.4" d="M433.108 125.866H443.006V105.902H433.108V125.866Z" fill="white"/>
<path d="M433.108 166.102H443.006V146.138H433.108V166.102Z" fill="#407BFF"/>
<path opacity="0.2" d="M433.122 149.428L443.02 157.758C443.02 157.758 443.02 162.742 443.02 162.7C443.02 162.658 433.122 154.902 433.122 154.944C433.122 154.986 433.122 149.414 433.122 149.414V149.428Z" fill="white"/>
<path d="M413.256 166.102H423.154V146.138H413.256V166.102Z" fill="#407BFF"/>
<path opacity="0.4" d="M413.256 166.102H423.154V146.138H413.256V166.102Z" fill="white"/>
<path opacity="0.2" d="M413.27 149.428L423.168 157.758C423.168 157.758 423.168 162.742 423.168 162.7C423.168 162.658 413.27 154.902 413.27 154.944C413.27 154.986 413.27 149.414 413.27 149.414V149.428Z" fill="white"/>
<path d="M393.404 166.102H403.302V146.138H393.404V166.102Z" fill="#407BFF"/>
<path opacity="0.4" d="M393.404 166.102H403.302V146.138H393.404V166.102Z" fill="white"/>
<path opacity="0.2" d="M393.418 149.428L403.316 157.758C403.316 157.758 403.316 162.742 403.316 162.7C403.316 162.658 393.418 154.902 393.418 154.944C393.418 154.986 393.418 149.414 393.418 149.414V149.428Z" fill="white"/>
<path d="M373.552 166.102H383.45V146.138H373.552V166.102Z" fill="#407BFF"/>
<path opacity="0.4" d="M373.552 166.102H383.45V146.138H373.552V166.102Z" fill="white"/>
<path opacity="0.2" d="M373.566 149.428L383.464 157.758C383.464 157.758 383.464 162.742 383.464 162.7C383.464 162.658 373.566 154.902 373.566 154.944C373.566 154.986 373.566 149.414 373.566 149.414V149.428Z" fill="white"/>
<path d="M431.4 167.53H444.168V166.06H431.4V167.53Z" fill="white"/>
<path d="M411.716 167.53H424.484V166.06H411.716V167.53Z" fill="white"/>
<path d="M392.032 167.53H404.8V166.06H392.032V167.53Z" fill="white"/>
<path d="M372.348 167.53H385.116V166.06H372.348V167.53Z" fill="white"/>
<path d="M354.05 166.102H363.948V146.138H354.05V166.102Z" fill="#407BFF"/>
<path opacity="0.4" d="M354.05 166.102H363.948V146.138H354.05V166.102Z" fill="white"/>
<path opacity="0.2" d="M354.036 149.428L363.934 157.758C363.934 157.758 363.934 162.742 363.934 162.7C363.934 162.658 354.036 154.902 354.036 154.944C354.036 154.986 354.036 149.414 354.036 149.414V149.428Z" fill="white"/>
<path d="M352.832 167.53H365.6V166.06H352.832V167.53Z" fill="white"/>
<path opacity="0.4" d="M433.108 166.102H443.006V146.138H433.108V166.102Z" fill="white"/>
<path opacity="0.3" d="M336.41 62.0823H463.068L456.922 51.0083H336.41V62.0823Z" fill="white"/>
<path opacity="0.2" d="M334.576 63.7622L460.576 63.7622V62.0962L334.576 62.0962V63.7622Z" fill="black"/>
<path d="M240.846 72.2603H230.052V100.456H240.846V72.2603Z" fill="#407BFF"/>
<path opacity="0.4" d="M240.846 72.2603H230.052V100.456H240.846V72.2603Z" fill="white"/>
<path opacity="0.2" d="M240.832 76.894L230.038 88.668C230.038 88.668 230.038 95.724 230.038 95.654C230.038 95.584 240.832 84.636 240.832 84.706C240.832 84.776 240.832 76.894 240.832 76.894Z" fill="white"/>
<path d="M262.476 72.2603H251.682V100.456H262.476V72.2603Z" fill="#407BFF"/>
<path opacity="0.4" d="M262.476 72.2603H251.682V100.456H262.476V72.2603Z" fill="white"/>
<path opacity="0.2" d="M262.476 76.894L251.682 88.668C251.682 88.668 251.682 95.724 251.682 95.654C251.682 95.584 262.476 84.636 262.476 84.706C262.476 84.776 262.476 76.894 262.476 76.894Z" fill="white"/>
<path d="M284.106 72.2603H273.312V100.456H284.106V72.2603Z" fill="#407BFF"/>
<path opacity="0.4" d="M284.106 72.2603H273.312V100.456H284.106V72.2603Z" fill="white"/>
<path opacity="0.2" d="M284.106 76.894L273.312 88.668C273.312 88.668 273.312 95.724 273.312 95.654C273.312 95.584 284.106 84.636 284.106 84.706C284.106 84.776 284.106 76.894 284.106 76.894Z" fill="white"/>
<path d="M305.736 72.2603H294.942V100.456H305.736V72.2603Z" fill="#407BFF"/>
<path opacity="0.4" d="M305.736 72.2603H294.942V100.456H305.736V72.2603Z" fill="white"/>
<path opacity="0.2" d="M305.736 76.894L294.942 88.668C294.942 88.668 294.942 95.724 294.942 95.654C294.942 95.584 305.736 84.636 305.736 84.706C305.736 84.776 305.736 76.894 305.736 76.894Z" fill="white"/>
<path d="M242.708 100.414H228.792V102.01H242.708V100.414Z" fill="white"/>
<path d="M264.156 100.414H250.24V102.01H264.156V100.414Z" fill="white"/>
<path d="M285.604 100.414H271.688V102.01H285.604V100.414Z" fill="white"/>
<path d="M307.052 100.414H293.136V102.01H307.052V100.414Z" fill="white"/>
<path d="M193.512 53.402V48.894H217.116V53.402L212.65 56.118H197.292L193.512 53.402Z" fill="#263238"/>
<path d="M212.65 56.1182H197.292V171.702H212.65V56.1182Z" fill="#263238"/>
<g opacity="0.4">
<path d="M193.512 53.402V48.894H217.116V53.402L212.65 56.118H197.292L193.512 53.402Z" fill="white"/>
<path d="M212.65 56.1182H197.292V171.702H212.65V56.1182Z" fill="white"/>
</g>
<path opacity="0.2" d="M193.512 53.4019H217.116L212.65 56.1179H197.292L193.512 53.4019Z" fill="black"/>
<path opacity="0.2" d="M200.974 59.0581H200.918C200.57 59.0581 200.288 59.3402 200.288 59.6881V168.118C200.288 168.466 200.57 168.748 200.918 168.748H200.974C201.322 168.748 201.604 168.466 201.604 168.118V59.6881C201.604 59.3402 201.322 59.0581 200.974 59.0581Z" fill="black"/>
<path opacity="0.2" d="M205.342 59.0581H205.286C204.938 59.0581 204.656 59.3402 204.656 59.6881V168.118C204.656 168.466 204.938 168.748 205.286 168.748H205.342C205.69 168.748 205.972 168.466 205.972 168.118V59.6881C205.972 59.3402 205.69 59.0581 205.342 59.0581Z" fill="black"/>
<path opacity="0.2" d="M209.71 59.0581H209.654C209.306 59.0581 209.024 59.3402 209.024 59.6881V168.118C209.024 168.466 209.306 168.748 209.654 168.748H209.71C210.058 168.748 210.34 168.466 210.34 168.118V59.6881C210.34 59.3402 210.058 59.0581 209.71 59.0581Z" fill="black"/>
<path d="M318.28 53.402V48.894H341.884V53.402L337.418 56.118H322.06L318.28 53.402Z" fill="#263238"/>
<path d="M337.418 56.1182H322.06V171.702H337.418V56.1182Z" fill="#263238"/>
<g opacity="0.4">
<path d="M318.28 53.402V48.894H341.884V53.402L337.418 56.118H322.06L318.28 53.402Z" fill="white"/>
<path d="M337.418 56.1182H322.06V171.702H337.418V56.1182Z" fill="white"/>
</g>
<path opacity="0.2" d="M318.28 53.4019H341.884L337.418 56.1179H322.06L318.28 53.4019Z" fill="black"/>
<path opacity="0.2" d="M325.742 59.0581H325.686C325.338 59.0581 325.056 59.3402 325.056 59.6881V168.118C325.056 168.466 325.338 168.748 325.686 168.748H325.742C326.09 168.748 326.372 168.466 326.372 168.118V59.6881C326.372 59.3402 326.09 59.0581 325.742 59.0581Z" fill="black"/>
<path opacity="0.2" d="M330.11 59.0581H330.054C329.706 59.0581 329.424 59.3402 329.424 59.6881V168.118C329.424 168.466 329.706 168.748 330.054 168.748H330.11C330.458 168.748 330.74 168.466 330.74 168.118V59.6881C330.74 59.3402 330.458 59.0581 330.11 59.0581Z" fill="black"/>
<path opacity="0.2" d="M334.478 59.0581H334.422C334.074 59.0581 333.792 59.3402 333.792 59.6881V168.118C333.792 168.466 334.074 168.748 334.422 168.748H334.478C334.826 168.748 335.108 168.466 335.108 168.118V59.6881C335.108 59.3402 334.826 59.0581 334.478 59.0581Z" fill="black"/>
<path d="M356.374 171.702H173.73V176.644H356.374V171.702Z" fill="#263238"/>
<path d="M349.486 166.746H181.066V171.688H349.486V166.746Z" fill="#263238"/>
<path d="M362.38 176.588H166.548V181.53H362.38V176.588Z" fill="#263238"/>
<path d="M186.036 39.9762C186.848 39.9762 268.44 0.930176 268.44 0.930176L350.298 39.9762H186.036Z" fill="#263238"/>
<path opacity="0.2" d="M204.754 35.8603C216.528 30.3163 236.002 21.0343 268.44 5.5083L332.07 35.8603H204.754Z" fill="white"/>
<path opacity="0.3" d="M186.036 39.9762C186.848 39.9762 268.44 0.930176 268.44 0.930176L350.298 39.9762H186.036Z" fill="white"/>
<path d="M350.298 48.8941H187.674H185.798V39.9761H350.298V48.8941Z" fill="#263238"/>
<path opacity="0.3" d="M350.298 48.8941H187.674H185.798V39.9761H350.298V48.8941Z" fill="white"/>
<path opacity="0.2" d="M350.298 39.9761H185.798V41.0681H350.298V39.9761Z" fill="black"/>
<path opacity="0.2" d="M208.618 34.04C209.318 33.676 327.912 33.872 327.912 33.872L332.07 35.86H204.754L208.604 34.04H208.618Z" fill="black"/>
<g opacity="0.3">
<path d="M356.374 171.702H173.73V176.644H356.374V171.702Z" fill="white"/>
<path d="M349.486 166.746H181.066V171.688H349.486V166.746Z" fill="white"/>
<path d="M362.38 176.588H166.548V181.53H362.38V176.588Z" fill="white"/>
</g>
<path opacity="0.2" d="M349.486 170.568H181.066V171.702H349.486V170.568Z" fill="black"/>
<path opacity="0.2" d="M356.374 175.454H173.73V176.588H356.374V175.454Z" fill="black"/>
<path opacity="0.2" d="M362.366 180.41H166.59V181.544H362.366V180.41Z" fill="black"/>
<path d="M308.074 133.188H230.514V166.732H308.074V133.188Z" fill="#263238"/>
<path opacity="0.5" d="M308.074 133.188H230.514V166.732H308.074V133.188Z" fill="white"/>
<path d="M248.252 135.19H232.642V166.732H248.252V135.19Z" fill="#407BFF"/>
<path opacity="0.4" d="M248.252 135.19H232.642V166.732H248.252V135.19Z" fill="white"/>
<path d="M306.324 135.19H290.098V166.732H306.324V135.19Z" fill="#407BFF"/>
<path d="M268.048 135.19H250.338V166.732H268.048V135.19Z" fill="#407BFF"/>
<path opacity="0.4" d="M268.048 135.19H250.338V166.732H268.048V135.19Z" fill="white"/>
<path d="M288.124 135.19H270.414V166.732H288.124V135.19Z" fill="#407BFF"/>
<path opacity="0.4" d="M306.324 135.19H290.098V166.732H306.324V135.19Z" fill="white"/>
<path opacity="0.4" d="M288.124 135.19H270.414V166.732H288.124V135.19Z" fill="white"/>
<path d="M288.292 138.228H249.82V139.292H288.292V138.228Z" fill="#263238"/>
<path opacity="0.5" d="M288.292 138.228H249.82V139.292H288.292V138.228Z" fill="white"/>
<path opacity="0.2" d="M248.252 138.242C248.252 138.13 232.642 149.638 232.642 149.96V157.898L248.252 146.166V138.228V138.242Z" fill="white"/>
<path opacity="0.2" d="M248.252 149.96L232.642 161.356V163.68L248.252 152.2V150.464" fill="white"/>
<path opacity="0.2" d="M306.324 138.242C306.324 138.13 290.098 149.638 290.098 149.96V157.898L306.324 146.166V138.228V138.242Z" fill="white"/>
<path opacity="0.2" d="M306.324 149.96L290.098 161.356V163.68L306.324 152.2V150.464" fill="white"/>
<path opacity="0.2" d="M268.048 142.274L250.338 152.69V159.606L268.048 148.546V142.274Z" fill="white"/>
<path opacity="0.2" d="M288.124 146.782L270.414 158.108V165.01L288.124 153.95V146.782Z" fill="white"/>
<path d="M268.048 149.386H265.304V157.898H268.048V149.386Z" fill="#263238"/>
<path opacity="0.7" d="M268.048 149.386H265.304V157.898H268.048V149.386Z" fill="white"/>
<path d="M273.172 149.386H270.428V157.898H273.172V149.386Z" fill="#263238"/>
<path opacity="0.7" d="M273.172 149.386H270.428V157.898H273.172V149.386Z" fill="white"/>
<path opacity="0.1" d="M73.098 86.3584H67.204V181.376H73.098V86.3584Z" fill="black"/>
</svg>
