<svg width="166" height="174" viewBox="0 0 166 174" fill="none" xmlns="http://www.w3.org/2000/svg">
<path d="M16.9518 156.574L14.6418 147.364L37.2819 136.934L40.9419 150.924L16.9518 156.574Z" fill="#EEC1BB"/>
<path d="M17.5618 144.433L18.9218 147.523C19.2318 148.223 19.1618 149.023 18.7818 149.683C17.1418 152.533 18.6518 153.463 21.7918 154.393C22.4818 155.563 21.2118 156.513 20.8818 156.783L13.5118 162.793C12.9018 163.303 11.9918 163.223 11.4818 162.603C11.3918 162.493 11.3218 162.373 11.2618 162.243C9.6018 158.493 8.8218 156.723 6.7618 152.053L0.461808 137.783C-1.25819 133.893 2.30182 131.353 3.38182 132.803C8.15182 139.303 12.5318 143.463 15.6118 144.763C16.1618 145.013 16.2518 144.473 17.5818 144.413L17.5618 144.433Z" fill="#263238"/>
<path d="M12.6719 141.093C13.1219 142.053 13.6819 142.973 14.3219 143.823C14.3919 143.893 14.5119 143.903 14.5819 143.823C14.6219 143.783 14.6419 143.733 14.6419 143.673C14.6619 143.143 14.7619 138.493 13.6519 137.823C13.4519 137.693 13.2019 137.693 12.9919 137.813C12.5919 137.993 12.3019 138.353 12.2119 138.783C12.1119 139.583 12.2719 140.383 12.6619 141.083L12.6719 141.093ZM14.2819 143.113C13.5719 142.073 12.3519 140.073 12.6219 138.913C12.7019 138.603 12.9019 138.353 13.1919 138.203C13.2719 138.143 13.3819 138.143 13.4719 138.203C14.0819 138.573 14.2919 141.203 14.2919 143.113H14.2819Z" fill="#407BFF"/>
<path d="M14.2917 143.783C14.2917 143.783 14.3117 143.873 14.3417 143.903C14.4117 143.933 14.4917 143.923 14.5417 143.873C14.7017 143.803 18.1017 141.213 16.9217 139.213C16.6217 138.723 16.3017 138.683 16.0817 138.753C15.0117 139.063 14.1817 142.333 14.2117 143.713L14.2817 143.793L14.2917 143.783ZM16.7217 139.553C17.3117 140.893 15.4417 142.643 14.6717 143.303C14.7817 141.753 15.5817 139.293 16.2417 139.123C16.2917 139.103 16.4317 139.043 16.6517 139.413L16.7217 139.553Z" fill="#407BFF"/>
<path d="M13.7017 146.963C13.7017 146.963 13.6018 146.953 13.5618 146.923C13.4518 146.843 13.4218 146.693 13.4918 146.573C14.1118 145.653 14.2918 144.473 13.9918 143.413C13.9518 143.283 14.0318 143.143 14.1618 143.103C14.3018 143.063 14.4318 143.143 14.4718 143.273C14.8218 144.473 14.6118 145.813 13.9118 146.853C13.8618 146.923 13.7817 146.963 13.7017 146.963Z" fill="#407BFF"/>
<path d="M11.4117 145.683C11.4117 145.683 11.3117 145.673 11.2717 145.643C11.1617 145.563 11.1317 145.413 11.2017 145.293C11.8217 144.373 12.0017 143.193 11.7017 142.133C11.6617 142.003 11.7417 141.863 11.8717 141.823C12.0017 141.783 12.1417 141.863 12.1817 141.993C12.5317 143.193 12.3117 144.533 11.6217 145.573C11.5717 145.643 11.4917 145.683 11.4117 145.683Z" fill="#407BFF"/>
<path d="M9.14169 143.833C9.14169 143.833 9.0417 143.823 9.0017 143.793C8.8917 143.713 8.8617 143.563 8.9317 143.443C9.5517 142.523 9.7317 141.343 9.4317 140.283C9.3917 140.153 9.47168 140.013 9.60168 139.973C9.73168 139.933 9.87171 140.013 9.91171 140.143C10.2617 141.343 10.0517 142.683 9.35168 143.723C9.30168 143.793 9.22169 143.833 9.14169 143.833Z" fill="#407BFF"/>
<path opacity="0.3" d="M25.3118 142.443L22.5417 143.723L25.8618 154.473L29.0518 153.723L25.3118 142.443Z" fill="black"/>
<path d="M84.9118 101.333L72.0918 107.113C56.3118 106.723 3.17176 103.484 1.56176 120.184C-5.36824 139.524 42.8817 140.933 74.8317 143.393C75.0517 143.413 75.2217 143.544 75.3317 143.724C75.5817 144.134 78.5618 145.753 82.4718 146.583C87.2918 147.603 98.4018 148.963 105.662 148.453C118.182 147.573 122.662 137.414 121.572 122.634C121.122 116.554 117.802 111.423 117.312 103.863L84.9118 101.333Z" fill="#263238"/>
<path opacity="0.2" d="M116.512 125.854L116.372 126.534C116.372 126.534 76.4418 117.844 50.5518 130.484C50.5518 130.484 24.3618 122.864 19.3118 118.084C47.6818 133.874 75.5618 119.744 75.5618 119.744L89.0618 115.484C100.092 112.004 110.542 115.954 116.512 125.864V125.854Z" fill="black"/>
<path d="M74.8017 146.123L70.0117 154.313L46.5317 145.953L53.6917 133.383L74.8017 146.123Z" fill="#EEC1BB"/>
<path d="M64.7319 153.723L66.9219 151.153C67.4219 150.573 68.1719 150.283 68.9319 150.343C72.2119 150.583 72.4019 148.823 71.8719 145.593C72.6219 144.463 74.0319 145.193 74.4219 145.383L83.0419 149.423C83.7619 149.753 84.0819 150.613 83.7519 151.333C83.6919 151.463 83.6119 151.583 83.5219 151.693C80.8619 154.813 79.6019 156.283 76.2919 160.163L66.1719 172.033C63.4119 175.263 59.5819 173.153 60.4119 171.563C64.2019 164.443 66.0519 158.693 65.8919 155.353C65.8819 154.753 65.3519 154.903 64.7219 153.723H64.7319Z" fill="#263238"/>
<path d="M63.8419 159.584C64.5119 158.754 65.1019 157.864 65.5819 156.914C65.6219 156.814 65.5719 156.714 65.4719 156.674C65.4219 156.654 65.3619 156.654 65.3119 156.684C64.8319 156.894 60.5919 158.824 60.4719 160.114C60.4419 160.344 60.5519 160.584 60.7419 160.714C61.0819 160.994 61.5219 161.094 61.9519 160.994C62.7119 160.734 63.3719 160.244 63.8319 159.584H63.8419ZM64.9619 157.254C64.3319 158.354 63.0619 160.314 61.9019 160.574C61.5919 160.634 61.2719 160.564 61.0219 160.374C60.9319 160.324 60.8819 160.224 60.9019 160.124C60.9719 159.414 63.2519 158.084 64.9719 157.254H64.9619Z" fill="#407BFF"/>
<path d="M65.5718 156.954C65.5718 156.954 65.6419 156.894 65.6619 156.854C65.6619 156.784 65.6118 156.714 65.5518 156.684C65.4218 156.574 61.6119 154.634 60.3119 156.564C60.0019 157.054 60.1018 157.354 60.2618 157.524C61.0018 158.344 64.3118 157.684 65.5418 157.054L65.5818 156.954H65.5718ZM60.7119 156.594C61.6619 155.484 64.0518 156.404 64.9818 156.814C63.5318 157.394 60.9719 157.734 60.5319 157.204C60.4919 157.164 60.3719 157.064 60.6219 156.714L60.7119 156.594Z" fill="#407BFF"/>
<path d="M65.1919 157.443C65.1219 157.443 65.0519 157.413 65.0019 157.363C64.9119 157.263 64.9219 157.103 65.0219 157.013C65.9519 156.183 67.2419 155.783 68.4919 155.973C68.6319 155.993 68.7219 156.123 68.7019 156.253C68.6819 156.393 68.5619 156.483 68.4219 156.463C67.3319 156.303 66.1819 156.653 65.3619 157.383C65.3119 157.423 65.2519 157.443 65.1919 157.443Z" fill="#407BFF"/>
<path d="M65.032 160.073C64.962 160.073 64.892 160.043 64.842 159.993C64.752 159.893 64.762 159.733 64.862 159.643C65.792 158.813 67.092 158.413 68.332 158.603C68.472 158.623 68.562 158.753 68.542 158.883C68.522 159.023 68.402 159.113 68.262 159.093C67.162 158.933 66.022 159.283 65.202 160.013C65.152 160.053 65.092 160.073 65.032 160.073Z" fill="#407BFF"/>
<path d="M64.3518 162.914C64.2818 162.914 64.2118 162.884 64.1618 162.834C64.0718 162.734 64.0818 162.574 64.1818 162.484C65.1118 161.654 66.4118 161.254 67.6518 161.444C67.7918 161.464 67.8818 161.594 67.8618 161.724C67.8418 161.864 67.7218 161.954 67.5818 161.934C66.4918 161.774 65.3418 162.124 64.5218 162.854C64.4718 162.894 64.4118 162.914 64.3518 162.914Z" fill="#407BFF"/>
<path d="M24.6218 141.613C24.6218 141.613 82.0818 115.043 101.042 115.913C120.002 116.793 121.042 131.233 113.232 141.683C105.422 152.133 88.3818 145.453 88.3818 145.453C88.3818 145.453 102.462 143.023 101.042 139.153C99.6218 135.283 94.0718 140.693 94.0718 140.693C94.0718 140.693 59.5518 151.843 29.3118 154.413L24.6218 141.623V141.613Z" fill="#263238"/>
<path opacity="0.2" d="M73.9417 145.054L95.8217 137.304C95.8217 137.304 90.1617 143.064 75.2917 147.614C60.3017 152.194 52.7417 150.994 52.7417 150.994C53.5717 151.444 73.9417 145.054 73.9417 145.054Z" fill="black"/>
<path opacity="0.2" d="M50.8217 130.384L29.8918 139.244L27.7917 138.894L47.6818 129.624L50.8217 130.384Z" fill="black"/>
<path d="M58.8817 71.2136L50.1617 69.4536L46.7617 74.7436L54.7817 78.4936L58.8817 71.2136Z" fill="#EEC1BB"/>
<path d="M52.7918 69.6035C52.7918 69.6035 53.1518 66.5335 51.5418 64.5535C49.9318 62.5735 49.1819 60.5535 47.8819 59.1635C46.5819 57.7735 46.6818 60.3335 47.0118 61.6935C47.3418 63.0535 47.7018 64.5935 46.6418 64.6735C45.5818 64.7535 37.3418 60.8335 35.8918 61.1135C34.4418 61.3935 35.5718 62.4435 35.5718 62.4435C35.5718 62.4435 33.5419 61.5435 32.9719 62.2535C32.8219 62.4335 32.7719 63.1035 33.6319 63.6635C35.5619 64.9135 39.7618 67.3135 39.7618 67.3135C39.5218 67.1735 34.1319 64.5735 33.2819 64.2835C32.1619 63.9135 31.4419 64.3135 31.2519 64.9635C30.9719 65.9035 37.5519 69.3535 37.7219 69.6935C37.7219 69.6935 34.0018 67.5835 32.9318 68.2435C31.8618 68.9035 34.1318 70.3634 36.3718 71.2634C38.4318 72.0934 42.2418 74.2635 44.4218 74.9035C47.1018 75.6935 49.0719 75.6235 50.7819 73.6435C52.4919 71.6635 52.8118 69.6035 52.8118 69.6035H52.7918Z" fill="#EEC1BB"/>
<path opacity="0.3" d="M40.5119 65.1834C40.5119 65.1834 40.4719 65.1834 40.4519 65.1634C38.9319 64.2734 37.3519 63.4334 35.7519 62.6734C35.6919 62.6434 35.6619 62.5734 35.6919 62.5034C35.7219 62.4434 35.7919 62.4134 35.8619 62.4434C37.4719 63.2034 39.0619 64.0434 40.5819 64.9434C40.6419 64.9834 40.6619 65.0534 40.6219 65.1134C40.6019 65.1534 40.5619 65.1734 40.5119 65.1734V65.1834Z" fill="black"/>
<path opacity="0.3" d="M39.0717 70.7333H39.0517C38.9817 70.7233 38.9417 70.6533 38.9517 70.5833C39.3617 68.3133 40.4617 66.1333 42.0617 64.4633C42.1117 64.4133 42.1917 64.4133 42.2417 64.4633C42.2917 64.5133 42.2917 64.5933 42.2417 64.6433C40.6817 66.2833 39.6017 68.4033 39.2017 70.6333C39.1917 70.6933 39.1417 70.7333 39.0817 70.7333H39.0717Z" fill="black"/>
<path opacity="0.3" d="M48.8119 70.7336C48.8119 70.7336 48.7719 70.7336 48.7519 70.7236C47.9019 70.2836 47.2018 69.5236 46.8318 68.6436C46.4518 67.7536 46.4018 66.7436 46.6818 65.8136C46.7018 65.7436 46.7718 65.7136 46.8418 65.7336C46.9118 65.7536 46.9418 65.8236 46.9218 65.8936C46.6618 66.7536 46.7119 67.7236 47.0619 68.5536C47.4119 69.3836 48.0718 70.0936 48.8718 70.5136C48.9318 70.5436 48.9518 70.6236 48.9218 70.6836C48.9018 70.7236 48.8519 70.7536 48.8119 70.7536V70.7336Z" fill="black"/>
<path d="M100.292 49.5237C100.292 49.5237 93.4117 50.4237 89.6017 55.8037C85.7917 61.1737 74.8918 76.6037 74.8918 76.6037L55.2917 70.5137L51.5618 79.2837C51.5618 79.2837 71.6118 90.0137 78.1918 90.1537C84.7718 90.2937 92.7518 77.4637 92.7518 77.4637L100.292 49.5137V49.5237Z" fill="#407BFF"/>
<g opacity="0.3">
<path d="M94.4919 58.3838C93.2819 59.8338 92.532 60.5838 91.912 62.4538C87.362 76.1838 91.0119 79.6738 90.5819 81.3838L92.7219 70.6838C93.3019 66.4138 93.9119 62.6538 94.4919 58.3838Z" fill="black"/>
</g>
<path d="M133.942 77.9537L142.142 60.9837C139.652 55.4937 123.912 48.9737 123.912 48.9737L113.022 47.7637C113.022 47.7637 108.722 48.0037 104.982 48.5637C99.9819 49.3237 97.2119 50.1337 95.6519 52.5737C95.6519 52.5737 92.7019 58.0737 91.8919 70.2737C91.6719 73.6337 89.5219 91.1737 87.6519 96.6937L78.1819 103.574C80.9619 107.464 86.1319 113.444 91.1819 113.894C110.702 115.644 120.272 116.424 120.272 116.424C120.782 112.894 120.752 108.424 120.792 105.704C121.642 102.374 123.422 99.3537 126.952 93.2137C127.542 92.1837 133.272 78.9837 133.932 77.9537H133.942Z" fill="#407BFF"/>
<path opacity="0.3" d="M128.312 90.1638C128.312 90.1638 126.902 78.5838 129.282 69.4238L134.452 76.8239L128.302 90.1638H128.312Z" fill="black"/>
<path d="M160.162 51.7239C159.902 51.4039 159.512 51.2238 159.132 51.0538C154.352 48.8238 150.662 44.3939 149.312 39.2939C148.252 35.2739 148.602 31.0438 148.722 26.8938C148.842 22.7438 148.662 18.4038 146.692 14.7438C144.722 11.0838 140.732 7.65385 135.282 13.2438L136.942 15.9739C136.282 25.2139 135.632 34.4639 135.292 43.7239C135.172 46.9439 135.112 50.2339 136.132 53.2839C137.392 57.0439 140.332 60.2039 143.992 61.7239C147.652 63.2439 151.962 63.1039 155.522 61.3439C157.262 60.4839 158.952 59.0039 159.032 57.0639C156.932 57.2539 154.752 56.2639 153.522 54.5439C154.392 54.0839 155.442 54.2038 156.422 54.3338C157.402 54.4638 158.442 54.5939 159.332 54.1639C160.222 53.7339 160.782 52.5039 160.172 51.7239H160.162Z" fill="#263238"/>
<path d="M139.122 14.7436C138.862 14.1036 138.512 13.4536 137.922 13.0836C136.912 12.4436 135.592 12.8436 134.462 13.2536L135.332 19.5936C135.252 20.0836 135.622 20.5536 136.062 20.7536C136.512 20.9636 137.022 20.9636 137.512 20.9536C138.242 20.9536 139.082 20.8936 139.542 20.3336C139.852 19.9536 139.902 19.4236 139.912 18.9336C139.932 17.5036 139.662 16.0736 139.122 14.7436Z" fill="#407BFF"/>
<path d="M104.772 11.0439C102.582 13.2439 101.812 16.5638 102.042 19.6638C102.272 22.7638 103.392 25.7238 104.512 28.6238C105.492 22.5838 107.102 16.6438 109.282 10.9238L104.772 11.0538V11.0439Z" fill="#263238"/>
<path d="M126.322 50.0836C126.322 50.0836 122.552 52.1036 117.622 55.0936C116.592 55.7136 115.492 56.2236 114.362 56.6036C111.292 57.6336 108.572 58.0636 108.102 56.5836C107.992 56.2636 107.932 55.9136 107.902 55.5636C107.692 53.1836 108.462 50.0236 110.552 48.8636C112.902 47.5536 114.142 46.3036 114.142 44.0136C114.152 42.7136 113.912 41.3236 113.592 39.9636L116.232 38.9236L126.212 31.7236C124.352 36.8536 122.352 46.2136 126.332 50.0936L126.322 50.0836Z" fill="#EEC1BB"/>
<path opacity="0.2" d="M114.122 44.5138C116.702 43.5138 119.682 41.5138 119.842 38.7038C119.902 37.5138 119.832 36.3738 119.672 35.6138L113.842 41.1438C114.062 42.2238 114.092 42.9238 114.122 44.5138Z" fill="black"/>
<path d="M129.482 22.2735C127.212 30.9235 126.442 34.6235 121.142 38.4735C113.172 44.2635 103.072 40.1935 102.712 31.1835C102.392 23.0735 106.152 10.2935 115.382 8.04355C124.482 5.82355 131.742 13.6235 129.472 22.2735H129.482Z" fill="#EEC1BB"/>
<path d="M117.162 23.1838C116.962 24.1038 116.332 24.7838 115.752 24.7038C115.172 24.6238 114.862 23.8038 115.062 22.8838C115.262 21.9638 115.892 21.2838 116.472 21.3638C117.052 21.4438 117.362 22.2638 117.162 23.1838Z" fill="#263238"/>
<path d="M108.252 21.6535C108.062 22.5435 107.432 23.2035 106.852 23.1235C106.272 23.0435 105.962 22.2435 106.152 21.3535C106.342 20.4635 106.972 19.8035 107.552 19.8835C108.132 19.9635 108.442 20.7635 108.252 21.6535Z" fill="#263238"/>
<path d="M120.002 20.3039C119.892 20.3039 119.782 20.2439 119.702 20.1539C118.562 18.6739 116.962 18.8639 116.942 18.8639C116.702 18.8939 116.502 18.7239 116.482 18.4839C116.472 18.2439 116.652 18.0239 116.892 17.9939C116.972 17.9839 118.982 17.7439 120.402 19.5839C120.542 19.7639 120.502 20.0439 120.312 20.1939C120.222 20.2639 120.102 20.3039 120.002 20.2939V20.3039Z" fill="#263238"/>
<path d="M106.792 16.8737C106.712 16.8337 106.642 16.7537 106.622 16.6437C106.572 16.4337 106.712 16.1937 106.932 16.1137C109.122 15.3237 110.472 16.4237 110.532 16.4737C110.692 16.6037 110.692 16.8637 110.532 17.0437C110.372 17.2237 110.122 17.2637 109.962 17.1337C109.912 17.0937 108.852 16.2537 107.112 16.8837C107.002 16.9237 106.892 16.9137 106.802 16.8637L106.792 16.8737Z" fill="#263238"/>
<path d="M111.402 21.7339C111.402 21.7339 109.482 24.7939 107.592 26.5839C107.262 26.8939 107.342 27.4439 107.742 27.6739C108.762 28.2539 110.092 28.1039 110.092 28.1039L111.412 21.7339H111.402Z" fill="#D4827D"/>
<path d="M116.802 21.4536L114.862 20.6436C114.862 20.6436 115.712 22.3336 116.802 21.4536Z" fill="#263238"/>
<path d="M107.852 19.9638L105.912 19.1538C105.912 19.1538 106.762 20.8438 107.852 19.9638Z" fill="#263238"/>
<path d="M125.712 33.7737C155.152 15.5437 122.242 3.15371 122.242 3.15371C109.022 -6.10629 108.562 7.97372 108.562 7.97372C101.942 14.8837 111.312 20.9337 111.312 20.9337C107.362 15.2537 113.472 11.8537 113.472 11.8537C112.532 19.4037 119.902 22.3737 119.902 22.3737C117.022 15.5537 118.862 12.0337 118.862 12.0337C120.972 24.1837 127.052 26.6137 127.052 26.6137L125.712 33.7637V33.7737Z" fill="#263238"/>
<path d="M130.942 29.874C129.602 31.504 127.732 32.354 126.122 32.484C123.702 32.684 123.122 28.744 124.302 26.544C125.362 24.564 127.882 23.554 130.062 24.394C132.212 25.214 132.462 28.014 130.942 29.874Z" fill="#EEC1BB"/>
<path opacity="0.2" d="M126.112 28.8336C126.112 28.8336 126.072 28.8336 126.052 28.8336C125.922 28.8036 125.832 28.6636 125.862 28.5336C126.072 27.6436 126.642 26.8536 127.412 26.3736C128.192 25.8936 129.142 25.7336 130.042 25.9436C130.172 25.9736 130.262 26.1136 130.232 26.2436C130.202 26.3736 130.072 26.4636 129.932 26.4336C129.162 26.2536 128.352 26.3936 127.682 26.8036C127.012 27.2136 126.532 27.8936 126.352 28.6536C126.322 28.7736 126.222 28.8436 126.112 28.8436V28.8336Z" fill="black"/>
<path d="M112.952 31.5138C112.552 31.5138 112.102 31.4338 111.622 31.2438C111.492 31.1938 111.432 31.0538 111.482 30.9238C111.532 30.7938 111.682 30.7338 111.802 30.7838C114.082 31.6638 115.202 29.7738 115.242 29.6938C115.312 29.5738 115.462 29.5338 115.582 29.6038C115.702 29.6738 115.742 29.8238 115.672 29.9438C115.662 29.9638 114.752 31.5238 112.952 31.5238V31.5138Z" fill="#263238"/>
<path d="M105.252 5.53379C103.562 6.51379 102.352 8.15379 101.422 9.87379C100.382 11.7838 99.6317 14.0738 100.372 16.1238C101.142 14.8138 102.142 13.6438 103.312 12.6738C103.522 14.0338 104.252 15.3038 105.312 16.1838C106.342 14.4238 107.482 12.7338 108.732 11.1238L110.832 5.39378C109.192 4.33378 106.952 4.55379 105.262 5.53379H105.252Z" fill="#263238"/>
<path d="M142.262 142.904L142.842 146.374C142.972 147.144 143.642 147.714 144.422 147.714H164.992C164.992 147.714 165.632 146.604 161.802 145.964C157.972 145.324 151.382 143.364 151.382 143.364L149.752 140.724L142.252 142.914L142.262 142.904Z" fill="#EEC1BB"/>
<path d="M144.112 88.9235L143.332 76.6335C143.452 70.1135 143.212 61.0335 141.022 59.3135C136.602 55.8435 132.142 58.1635 129.532 62.2035C128.482 64.0235 129.132 76.7035 129.682 85.0335C129.682 85.0335 130.792 104.663 133.272 114.213C134.952 120.683 142.142 143.703 142.142 143.703L150.952 142.443L144.112 88.9235Z" fill="#407BFF"/>
</svg>
