<svg width="127" height="387" viewBox="0 0 127 387" fill="none" xmlns="http://www.w3.org/2000/svg">
<path d="M79.2373 150.621C82.3083 127.636 82.559 104.2 79.9894 81.1457L98.0893 78.5532C104.294 74.896 112.441 77.7894 117.217 83.4372C121.993 89.085 124.023 96.8161 125.264 104.362C127.107 115.634 127.495 127.196 126.367 138.585C125.891 143.376 125.114 148.272 122.757 152.357C119.398 158.19 113.231 161.558 106.989 162.738C100.747 163.919 94.354 163.178 88.0616 162.437C85.0157 162.079 81.5687 161.465 79.9016 158.676C78.5228 156.361 78.8738 153.364 79.2373 150.633V150.621Z" fill="#263238"/>
<path d="M69.6483 362.901L57.966 365.713L44.4412 339.257L62.1776 334.801L69.6483 362.901Z" fill="#EBB373"/>
<path d="M55.4215 361.118L59.6582 360.493C60.6109 360.354 61.576 360.667 62.2654 361.303C65.2361 364.023 66.8781 362.588 69.0341 359.313C70.6887 358.885 71.4533 360.609 71.6789 361.072L76.6677 371.245C77.0938 372.09 76.6927 373.097 75.7777 373.49C75.6148 373.56 75.4393 373.606 75.2638 373.629C70.1246 374.381 67.6804 374.74 61.2752 375.678L41.6961 378.548C36.3564 379.323 34.401 374.52 36.5194 373.745C46.0582 370.284 52.6012 366.569 55.2084 363.468C55.6973 362.924 55.058 362.658 55.4215 361.13V361.118Z" fill="#263238"/>
<path d="M49.7307 365.667C51.0593 365.447 52.363 365.088 53.6164 364.613C53.7292 364.555 53.7793 364.417 53.7167 364.312C53.6791 364.255 53.6164 364.22 53.5537 364.197C52.9145 364.011 47.2238 362.507 46.0455 363.572C45.8199 363.757 45.7322 364.046 45.8199 364.312C45.9076 364.822 46.2586 365.25 46.76 365.481C47.7126 365.829 48.753 365.898 49.7432 365.655L49.7307 365.667ZM52.739 364.44C51.2223 364.937 48.377 365.724 47.0358 365.065C46.6848 364.879 46.4341 364.567 46.3463 364.208C46.2962 364.093 46.3463 363.977 46.4341 363.896C47.0859 363.317 50.3825 363.873 52.739 364.44Z" fill="#407BFF"/>
<path d="M53.5539 364.637C53.5539 364.637 53.6667 364.637 53.7169 364.614C53.7795 364.544 53.7921 364.451 53.742 364.37C53.7044 364.162 51.6361 359.533 48.7782 360.262C48.0763 360.459 47.9259 360.806 47.9384 361.084C47.9761 362.391 51.7239 364.313 53.4161 364.695L53.5289 364.637H53.5539ZM49.1418 360.609C50.9843 360.343 52.5261 362.993 53.0776 364.07C51.21 363.479 48.4398 361.824 48.4524 361.026C48.4524 360.956 48.4147 360.783 48.9412 360.655L49.1292 360.609H49.1418Z" fill="#407BFF"/>
<path d="M56.9632 366.477C56.8755 366.477 56.7877 366.442 56.7251 366.384C55.8226 365.435 54.4689 364.868 53.1026 364.868C53.065 364.868 53.065 364.868 53.0023 364.868C52.8268 364.868 52.689 364.741 52.689 364.579C52.689 364.417 52.8268 364.29 53.0023 364.29C53.0399 364.29 53.0775 364.29 53.1151 364.29C54.6694 364.29 56.1861 364.926 57.2139 366.002C57.3267 366.118 57.3142 366.303 57.1889 366.407C57.1262 366.454 57.051 366.477 56.9758 366.477H56.9632Z" fill="#407BFF"/>
<path d="M54.6444 368.687C54.5567 368.687 54.4689 368.653 54.4063 368.595C53.4787 367.623 52.0874 367.021 50.6835 367.079C50.508 367.079 50.3701 366.951 50.3701 366.789C50.3701 366.627 50.508 366.5 50.6835 366.5C50.7211 366.5 50.7587 366.5 50.7963 366.5C52.3506 366.5 53.8673 367.137 54.8951 368.213C55.0079 368.329 54.9954 368.514 54.87 368.618C54.8074 368.664 54.7321 368.687 54.6569 368.687H54.6444Z" fill="#407BFF"/>
<path d="M51.6361 370.713C51.5483 370.713 51.4606 370.678 51.3979 370.62C50.4704 369.648 49.0665 369.046 47.6752 369.104C47.4997 369.104 47.3618 368.977 47.3618 368.815C47.3618 368.653 47.4997 368.525 47.6752 368.525C47.7128 368.525 47.7504 368.525 47.788 368.525C49.3423 368.525 50.8589 369.162 51.8868 370.238C51.9996 370.354 51.9871 370.539 51.8617 370.643C51.7991 370.69 51.7238 370.713 51.6486 370.713H51.6361Z" fill="#407BFF"/>
<path opacity="0.3" d="M51.5859 353.237L53.253 356.477L66.8781 352.462L66.1386 349.707L51.5859 353.237Z" fill="black"/>
<path d="M73.4337 377.182L61.6387 374.833L62.466 345.587L80.4782 348.99L73.4337 377.182Z" fill="#EBB373"/>
<path d="M60.4228 371.083H64.7097C65.6748 371.083 66.5773 371.535 67.1539 372.264C69.6232 375.389 71.4909 374.208 74.1733 371.269C75.878 371.084 76.3418 372.901 76.4796 373.387L79.6885 384.161C79.9642 385.064 79.4002 386.002 78.435 386.256C78.2595 386.303 78.0841 386.326 77.896 386.326H43.9148C38.5124 386.326 37.3842 381.291 39.6154 380.828C49.6305 378.78 56.7126 376.06 59.8086 373.375C60.3852 372.901 59.7961 372.553 60.4228 371.095V371.083Z" fill="#263238"/>
<path d="M54.0301 374.764C55.3838 374.729 56.725 374.578 58.0537 374.289C58.179 374.243 58.2417 374.127 58.1916 374.011C58.1665 373.954 58.1164 373.896 58.0537 373.884C57.452 373.618 52.0872 371.303 50.746 372.183C50.4953 372.333 50.3574 372.611 50.395 372.877C50.395 373.386 50.6708 373.872 51.1221 374.173C51.9995 374.659 53.0148 374.868 54.0301 374.787V374.764ZM57.2139 373.988C55.6345 374.254 52.6889 374.625 51.473 373.78C51.1597 373.548 50.9591 373.201 50.9466 372.831C50.9215 372.715 50.9716 372.599 51.0844 372.53C51.824 372.055 54.9952 373.074 57.2139 373.977V373.988Z" fill="#407BFF"/>
<path d="M57.991 374.289C57.991 374.289 58.1038 374.301 58.1539 374.289C58.2291 374.231 58.2542 374.139 58.2291 374.058C58.2291 373.849 56.9631 368.977 54.03 369.289C53.303 369.382 53.09 369.706 53.0649 369.972C52.8769 371.268 56.2612 373.71 57.8656 374.324L57.991 374.289ZM54.3184 369.671C56.186 369.671 57.264 372.518 57.6275 373.653C55.8726 372.796 53.4284 370.771 53.5788 369.984C53.5788 369.914 53.5788 369.741 54.1303 369.683H54.3309L54.3184 369.671Z" fill="#407BFF"/>
<path d="M61.0871 376.604C60.9868 376.604 60.8866 376.557 60.8239 376.465C60.0718 375.365 58.7933 374.601 57.4019 374.428C57.2265 374.405 57.1137 374.254 57.1387 374.104C57.1638 373.942 57.3142 373.837 57.4897 373.861C59.0691 374.057 60.5105 374.925 61.3503 376.164C61.4381 376.303 61.4005 376.476 61.2501 376.557C61.1999 376.592 61.1373 376.604 61.0871 376.604Z" fill="#407BFF"/>
<path d="M58.4299 378.456C58.3296 378.456 58.2294 378.409 58.1667 378.317C57.4146 377.217 56.1361 376.454 54.7447 376.28C54.5692 376.257 54.4564 376.106 54.4815 375.956C54.5066 375.794 54.657 375.701 54.8325 375.713C56.3993 375.91 57.8533 376.766 58.6931 378.016C58.7809 378.155 58.7433 378.328 58.5929 378.421C58.5427 378.456 58.48 378.467 58.4299 378.467V378.456Z" fill="#407BFF"/>
<path d="M55.1081 380.007C55.0078 380.007 54.9075 379.96 54.8449 379.868C54.0928 378.768 52.8143 378.004 51.4229 377.831C51.2475 377.808 51.1347 377.657 51.1597 377.507C51.1848 377.345 51.3352 377.252 51.5107 377.264C53.0901 377.46 54.5315 378.328 55.3713 379.567C55.4591 379.706 55.4215 379.879 55.2711 379.96C55.2209 379.995 55.1583 380.007 55.1081 380.007Z" fill="#407BFF"/>
<path d="M10.5729 269.144C15.3987 277.917 20.2371 287.361 24.8373 296.793C30.904 309.246 36.5696 321.699 41.3578 332.833C44.7923 340.784 49.2672 350.818 51.5861 356.871C59.7336 356.419 63.6443 354.012 66.9535 352.033C65.512 341.212 61.6137 313.146 52.9398 288.264C48.3772 275.174 42.5486 262.223 35.1031 251.587C75.7653 173.733 71.5537 140.263 71.5537 140.263L30.8288 139.591C30.8288 139.591 22.3805 168.976 15.0352 199.206C11.1996 215.062 7.6899 231.126 5.84732 243.312V243.44C4.51865 252.212 6.13563 261.101 10.5603 269.144H10.5729Z" fill="#407BFF"/>
<path opacity="0.3" d="M10.5729 269.144C15.3987 277.917 20.2371 287.361 24.8373 296.793C30.904 309.246 36.5696 321.699 41.3578 332.833C44.7923 340.784 49.2672 350.818 51.5861 356.871C59.7336 356.419 63.6443 354.012 66.9535 352.033C65.512 341.212 61.6137 313.146 52.9398 288.264C48.3772 275.174 42.5486 262.223 35.1031 251.587C75.7653 173.733 71.5537 140.263 71.5537 140.263L30.8288 139.591C30.8288 139.591 22.3805 168.976 15.0352 199.206C11.1996 215.062 7.6899 231.126 5.84732 243.312V243.44C4.51865 252.212 6.13563 261.101 10.5603 269.144H10.5729Z" fill="black"/>
<path opacity="0.2" d="M46.5598 228.406C52.6767 215.131 57.2643 203.581 60.6487 193.651C58.8061 185.619 55.8103 178.663 51.3104 174.335C51.3104 174.335 42.4735 195.885 46.5724 228.406H46.5598Z" fill="black"/>
<path opacity="0.2" d="M41.3579 332.833C44.7924 340.784 49.2672 350.818 51.5861 356.871C59.7336 356.42 63.6444 354.012 66.9535 352.033C65.5121 341.212 61.6138 313.147 52.9399 288.264C48.9539 301.318 44.3286 317.834 41.3579 332.833Z" fill="black"/>
<path d="M46.1086 139.603C46.1086 139.603 54.8828 210.664 59.8215 246.171C64.9982 283.472 63.1306 342.994 60.2978 367.194C62.7546 368.479 71.8296 370.227 76.8309 369.104C76.8309 369.104 103.655 294.849 90.1426 250.801C112.128 163.572 86.0564 139.603 86.0564 139.603H46.1086Z" fill="#407BFF"/>
<g opacity="0.3">
<path d="M46.1086 139.603C46.1086 139.603 54.8828 210.664 59.8215 246.171C64.9982 283.472 63.1306 342.994 60.2978 367.194C62.7546 368.479 71.8296 370.227 76.8309 369.104C76.8309 369.104 103.655 294.849 90.1426 250.801C112.128 163.572 86.0564 139.603 86.0564 139.603H46.1086Z" fill="black"/>
</g>
<path d="M87.4726 93.3788C93.414 78.993 96.3972 71.4009 92.875 61.4362C89.3527 51.4715 102.978 1.18492 62.4786 0.0391459C53.5915 -0.203896 39.6907 -0.122887 37.447 26.0215C35.2033 52.1659 20.9264 44.5737 26.2661 59.6191C31.6059 74.6646 3.79161 83.8076 11.6759 100.728C19.5601 117.648 -4.99515 122.37 0.93371 131.247C4.34312 130.692 7.7776 130.321 11.2371 130.148C10.8235 128.712 10.9488 126.398 13.531 123.053C18.2941 116.873 25.3636 109.709 21.879 100.543C21.879 100.543 28.936 104.79 20.9765 119.627C18.3693 124.5 17.5546 127.729 17.6298 129.87C20.6005 129.87 23.8469 129.997 27.2313 130.286C26.6421 128.377 26.6798 126.34 27.3566 124.442C29.3872 118.817 32.734 117.127 33.6991 112.452C33.6991 112.452 34.6894 119.778 32.1072 123.516C30.6532 125.657 30.2897 128.284 31.0919 130.703C39.9038 131.71 48.3646 134.453 55.9355 138.747C78.6733 152.23 91.2078 134.14 91.2078 134.14C91.2078 134.14 81.5813 107.741 87.46 93.3672L87.4726 93.3788Z" fill="#263238"/>
<path d="M35.9803 63.982C25.0501 75.1041 19.4973 87.233 19.4973 87.233L45.8826 93.066C45.8826 93.066 52.4507 77.06 49.7934 71.2038C47.0233 65.1046 42.7239 59.2253 35.9803 63.9936V63.982Z" fill="#407BFF"/>
<g opacity="0.3">
<path d="M34.5013 74.3748C33.1476 76.5044 32.6838 77.7196 31.844 80.1731C30.9916 82.6267 30.227 87.2214 30.0139 89.5245L34.8899 90.6124C34.7144 84.9761 34.6894 79.9995 34.5139 74.3633L34.5013 74.3748Z" fill="black"/>
</g>
<path d="M32.245 124.939C33.5736 117.428 34.1001 94.6748 33.6363 90.2884C31.9316 74.375 34.7644 66.6439 34.7644 66.6439C36.3814 63.1603 40.0666 61.5053 46.8728 59.4568C51.9744 57.9176 57.9284 56.6908 57.9284 56.6908L73.4211 55.9038C73.4211 55.9038 91.3957 61.4938 99.117 65.4635L94.1784 91.1333C93.489 92.6031 85.6925 112.752 85.2914 114.269C83.2357 122.115 91.1952 141.987 90.7815 146.466L27.6448 147.936L32.27 124.916L32.245 124.939Z" fill="#407BFF"/>
<path d="M98.3274 65.1626C104.269 67.0143 110.674 84.8721 110.674 84.8721L85.9934 96.0983C85.9934 96.0983 82.5088 80.9834 84.3514 73.7269C85.9307 67.6046 90.7942 62.8016 98.34 65.1626H98.3274Z" fill="#407BFF"/>
<path d="M93.9403 63.1603C93.9403 63.1603 83.2984 76.817 83.687 86.909C84.0756 97.001 93.1506 125.842 93.1506 125.842L88.7008 130.344C88.7008 130.344 75.6649 99.8481 76.0534 88.7029C76.442 77.5577 87.0338 60.51 87.0338 60.51C87.0338 60.51 90.0295 59.3758 93.9278 63.1487L93.9403 63.1603Z" fill="#263238"/>
<path d="M47.8757 59.1791C47.8757 59.1791 32.947 73.7963 32.596 99.362C32.596 99.362 29.0738 70.4285 40.2296 61.8294C40.2296 61.8294 44.341 57.7209 47.8632 59.1675L47.8757 59.1791Z" fill="#263238"/>
<path opacity="0.3" d="M88.024 134.001C88.024 134.001 81.9448 133.261 82.1704 133.457C82.396 133.654 81.8821 149.579 81.8821 149.579L33.3105 149.753L33.6114 146.859L56.2363 127.266L65.5495 123.261L87.1592 130.807L88.0115 134.013L88.024 134.001Z" fill="black"/>
<path d="M32.0695 147.438H80.428L80.428 85.7864H32.0695L32.0695 147.438Z" fill="#263238"/>
<path opacity="0.3" d="M32.0695 147.438H80.428L80.428 85.7864H32.0695L32.0695 147.438Z" fill="white"/>
<path d="M67.4298 142.751H34.9778C33.2731 142.751 31.8817 141.466 31.8817 139.892L31.8817 96.735H67.4298C69.1345 96.735 70.5259 98.0197 70.5259 99.5937V139.892C70.5259 141.466 69.1345 142.751 67.4298 142.751Z" fill="#263238"/>
<path d="M106.926 86.3536C107.44 86.0411 110.261 121.988 105.159 127.439C102.439 130.344 98.8039 132.358 95.9836 132.381C81.5061 132.532 48.7031 123.99 49.2797 123.99C49.9691 123.99 51.3479 113.308 51.3479 113.308L88.7261 115.507L87.3473 95.3577L106.939 86.3536H106.926Z" fill="#EBB373"/>
<path d="M56.274 115.808C56.274 115.808 55.6222 111.63 52.5638 109.558C49.5053 107.498 47.6627 105.102 45.2812 103.714C42.8996 102.325 44.0026 105.681 44.9928 107.359C45.9705 109.037 47.0736 110.947 45.582 111.421C44.1029 111.896 30.8162 109.604 28.8357 110.484C26.8553 111.364 28.8859 112.359 28.8859 112.359C28.8859 112.359 25.6394 111.884 25.0879 113.019C24.95 113.308 25.1255 114.211 26.567 114.65C29.8134 115.623 36.72 117.335 36.72 117.335C36.3189 117.231 27.6199 115.68 26.2912 115.599C24.5489 115.495 23.6715 116.271 23.6339 117.208C23.5963 118.539 34.3134 120.807 34.6894 121.201C34.6894 121.201 28.5725 119.708 27.2815 120.958C26.0029 122.208 29.8009 123.342 33.3482 123.759C36.6072 124.141 42.8996 125.668 46.2463 125.761C50.3827 125.865 53.178 125.09 54.8827 121.872C56.5874 118.655 56.2614 115.819 56.2614 115.819L56.274 115.808Z" fill="#EBB373"/>
<path opacity="0.3" d="M37.0208 114.153C37.0208 114.153 36.9957 114.153 36.9832 114.153C34.4637 113.493 31.8816 112.937 29.312 112.498C29.2243 112.486 29.1742 112.405 29.1867 112.324C29.1993 112.243 29.287 112.197 29.3747 112.208C31.9569 112.648 34.5515 113.204 37.0835 113.863C37.1712 113.886 37.2088 113.967 37.1963 114.037C37.1712 114.106 37.1086 114.141 37.0459 114.141L37.0208 114.153Z" fill="black"/>
<path opacity="0.3" d="M69.2599 128.724C68.583 128.585 62.8798 125.484 63.3687 124.627C63.8575 123.771 70.8518 121.201 69.2599 119.546C67.668 117.891 61.0748 118.1 56.9134 118.956C52.7519 119.813 30.9918 110.288 30.8163 110.288C30.6408 110.288 25.5518 110.832 26.354 111.098C27.1688 111.364 63.3687 127.451 63.3687 127.451L69.2599 128.712V128.724Z" fill="black"/>
<path d="M49.4801 124.604C49.4801 124.604 52.3881 121.34 56.161 121.051C59.9339 120.762 62.8545 119.593 65.6748 119.558C68.4951 119.523 65.6497 121.861 63.8698 122.822C62.0899 123.782 60.0718 124.893 61.0746 126.004C62.0773 127.127 74.7122 131.548 75.903 133.249C77.0938 134.951 74.8125 134.823 74.8125 134.823C74.8125 134.823 77.8459 135.969 77.6829 137.207C77.6453 137.532 76.981 138.214 75.5019 137.89C72.1802 137.161 65.3113 135.309 65.3113 135.309C65.7124 135.414 74.0103 138.261 75.2011 138.839C76.7428 139.592 77.0562 140.679 76.5548 141.49C75.8403 142.647 65.4116 139.43 64.86 139.58C64.86 139.58 70.9268 141.247 71.3279 142.925C71.7165 144.603 67.8307 143.746 64.5717 142.392C61.576 141.154 55.3463 139.441 52.4257 137.902C48.8408 136.015 46.8854 133.99 47.2364 130.425C47.5874 126.861 49.4676 124.604 49.4676 124.604H49.4801Z" fill="#EBB373"/>
<path opacity="0.3" d="M74.449 134.731C74.449 134.731 74.4113 134.731 74.3988 134.731C71.9546 133.874 69.4351 133.111 66.9156 132.451C66.8279 132.428 66.7778 132.347 66.8028 132.277C66.8279 132.208 66.9156 132.15 66.9909 132.173C69.5228 132.833 72.0549 133.597 74.4991 134.453C74.5743 134.488 74.6244 134.569 74.5868 134.638C74.5617 134.696 74.4991 134.731 74.4364 134.731H74.449Z" fill="black"/>
<path d="M21.2898 87.6268C21.2898 87.6268 2.66335 115.114 7.07553 119.905C11.4877 124.696 50.4201 134.592 50.4201 134.592L55.2209 123.562L26.7173 109.107L32.057 99.3623V89.9994L21.2772 87.6152L21.2898 87.6268Z" fill="#EBB373"/>
<path d="M34.4638 100.01H67.6679C68.381 100.01 68.959 99.4766 68.959 98.8182V98.795C68.959 98.1367 68.381 97.603 67.6679 97.603H34.4638C33.7508 97.603 33.1727 98.1367 33.1727 98.795V98.8182C33.1727 99.4766 33.7508 100.01 34.4638 100.01Z" fill="white"/>
<path d="M78.7109 86.6895C78.1093 86.7357 32.7466 86.6895 32.7466 86.6895V87.6269H78.7109V86.6895Z" fill="white"/>
<path d="M56.462 56.61C58.1792 55.0475 58.5427 53.8092 58.2294 51.5292C58.0163 49.7701 57.4146 47.9415 56.6876 46.1592L59.2447 43.6246L72.5313 32.2363C71.8545 40.1526 70.0244 52.3857 76.5424 56.9456C76.5424 56.9456 60.4981 67.6626 59.6207 67.7667C58.7558 67.8825 56.4495 56.6215 56.4495 56.6215L56.462 56.61Z" fill="#EBB373"/>
<path opacity="0.2" d="M58.2043 52.5358C61.8519 51.7604 67.1164 49.5383 68.0064 45.6959C68.3824 44.1104 68.42 42.548 68.3323 41.5063L57.4397 47.7444C57.565 49.249 58.455 50.3832 58.2043 52.5358Z" fill="black"/>
<path d="M77.8961 19.6562C76.0911 31.7042 75.6022 36.8196 68.5327 42.8725C57.8908 51.9808 42.4106 48.1037 40.3173 35.9979C38.4371 25.1073 41.6961 7.23794 54.8073 2.71273C67.7305 -1.75461 79.701 7.61987 77.8961 19.6562Z" fill="#EBB373"/>
<path d="M61.1875 23.7412C61.1624 24.8754 60.4479 25.836 59.5831 25.8823C58.7182 25.9286 58.0413 25.049 58.0663 23.9148C58.0914 22.7806 58.8059 21.82 59.6708 21.7737C60.5357 21.7274 61.2126 22.607 61.1875 23.7412Z" fill="#263238"/>
<path d="M63.2304 20.0958C63.0675 20.0958 62.892 20.0496 62.7792 19.9338C60.8614 18.1052 58.555 18.5913 58.53 18.6029C58.1915 18.6723 57.8531 18.4871 57.803 18.1631C57.7403 17.839 57.9785 17.515 58.3295 17.4455C58.4548 17.4224 61.3503 16.809 63.7193 19.0774C63.9575 19.3089 63.9324 19.6792 63.6817 19.9222C63.5564 20.038 63.3934 20.0958 63.243 20.1074L63.2304 20.0958Z" fill="#263238"/>
<path d="M44.4662 17.8508C44.3157 17.8045 44.1904 17.7119 44.1152 17.573C43.9648 17.2837 44.1152 16.9481 44.4536 16.7976C47.7753 15.3509 50.3449 16.6587 50.4452 16.7166C50.746 16.8786 50.8337 17.2258 50.6332 17.5036C50.4326 17.7814 50.0315 17.874 49.7307 17.7119C49.6304 17.6541 47.6249 16.6819 44.9801 17.8276C44.8046 17.8971 44.6291 17.9087 44.4662 17.8624V17.8508Z" fill="#263238"/>
<path d="M51.3729 21.8433C51.3729 21.8433 49.0917 26.2875 46.6474 29.0072C46.2212 29.4817 46.4343 30.2109 47.0485 30.4539C48.6404 31.0673 50.5582 30.6506 50.5582 30.6506L51.3729 21.8433Z" fill="#D58745"/>
<path d="M60.2099 21.7855L57.1765 21.23C57.1765 21.23 59.3199 23.2438 60.2099 21.7855Z" fill="#263238"/>
<path d="M48.5527 22.9658C48.5276 24.1 47.8131 25.0606 46.9483 25.1069C46.0834 25.1532 45.4065 24.2736 45.4316 23.1394C45.4567 22.0052 46.1711 21.0446 47.036 20.9983C47.9009 20.952 48.5778 21.8316 48.5527 22.9658Z" fill="#263238"/>
<path d="M47.3994 20.9984L44.366 20.4429C44.366 20.4429 46.5094 22.4566 47.3994 20.9984Z" fill="#263238"/>
<path d="M53.09 36.1711C52.9396 36.1711 52.7892 36.1711 52.6388 36.1596C52.4633 36.1596 52.3379 36.0091 52.3505 35.8471C52.363 35.685 52.5134 35.5577 52.6889 35.5809C54.9702 35.7313 57.2766 34.5971 58.4172 32.7685C58.505 32.6297 58.693 32.5834 58.8434 32.6644C58.9938 32.7454 59.044 32.919 58.9562 33.0579C57.7654 34.9559 55.459 36.1711 53.09 36.1711Z" fill="#263238"/>
<path d="M55.196 14.4596C62.3157 15.8137 67.2418 21.7972 67.2418 21.7972C66.0259 18.0589 70.9771 14.3439 70.9771 14.3439C68.1317 29.8523 75.6525 27.4681 75.6525 27.4681L78.8739 26.3108C78.8739 26.3108 83.3362 2.52741 64.1332 1.16174C44.9302 -0.192347 39.9038 20.038 39.9038 20.038C41.5584 18.3367 43.5388 16.89 45.7574 15.7674C46.7602 12.4343 49.5178 9.58719 53.1779 8.08265C50.6585 9.73765 48.9413 12.1334 48.3772 14.749C49.7309 14.3555 51.1348 14.1587 52.5387 14.1587C52.8646 11.8556 53.93 9.63349 55.5971 7.72387C54.7698 9.9344 54.6319 12.2607 55.1709 14.448L55.196 14.4596Z" fill="#263238"/>
<path d="M70.5635 1.70569C74.4492 3.45328 77.3071 5.64065 79.1246 9.26313C80.9296 12.8856 81.8947 19.0195 80.1148 22.6652L74.537 22.8966C75.1512 21.5425 75.3141 19.9454 75.4269 18.7186C75.6149 16.4502 75.8029 14.1471 75.2389 11.9366C74.3865 8.63817 71.8796 5.83739 68.8337 3.93935C65.7878 2.04131 63.1681 0.791387 59.5957 0.00439453C63.8951 0.0854085 66.6777 -0.0303243 70.5635 1.70569Z" fill="#407BFF"/>
<path d="M81.3681 29.6784C79.701 32.0973 77.1064 33.544 74.775 33.9837C71.2653 34.6434 69.736 29.4122 71.0772 26.2643C72.2931 23.4172 75.7902 21.6581 79.137 22.4335C82.4336 23.1973 83.2859 26.9355 81.3681 29.69V29.6784Z" fill="#EBB373"/>
<path opacity="0.2" d="M75.6022 30.9866C75.4643 30.9866 75.3264 30.894 75.3013 30.7667C75.2637 30.6163 75.364 30.4542 75.5395 30.4195C77.4322 30.026 78.2971 29.1348 78.6731 28.4636C79.0993 27.7229 79.0742 27.0401 78.9238 26.6813C78.623 25.9522 77.6327 25.3735 76.7052 25.6975C76.5422 25.7554 76.3668 25.6744 76.3041 25.5239C76.2414 25.3735 76.3292 25.2115 76.4921 25.1536C77.7832 24.7138 79.0993 25.4776 79.513 26.473C79.726 26.9706 79.7511 27.8155 79.2246 28.7298C78.7734 29.5052 77.7957 30.5352 75.6774 30.975C75.6523 30.975 75.6272 30.975 75.6022 30.975V30.9866Z" fill="black"/>
</svg>
