<svg width="124" height="370" viewBox="0 0 124 370" fill="none" xmlns="http://www.w3.org/2000/svg">
<path d="M93.7676 85.7935L100.004 121.142L110.222 156.742L102.544 165.536C102.544 165.536 88.1606 132.704 86.3069 124.996C84.4531 117.277 81.6497 90.7567 81.6497 90.7567L93.7676 85.7935Z" fill="#EEC1BB"/>
<path d="M81.7985 61.3892C81.7985 61.3892 84.3388 62.2354 86.7989 65.2316C89.2591 68.2393 101.217 86.6398 101.217 86.6398L82.4621 95.4226L81.7985 61.3892Z" fill="#263238"/>
<path opacity="0.2" d="M81.7985 61.3892C81.7985 61.3892 84.3388 62.2354 86.7989 65.2316C89.2591 68.2393 101.217 86.6398 101.217 86.6398L82.4621 95.4226L81.7985 61.3892Z" fill="white"/>
<path opacity="0.3" d="M89.3392 92.2091C89.3392 92.2091 89.6482 86.6397 89.3392 82.5457C89.0303 78.4402 87.1537 74.4604 87.1537 74.4604C87.1537 74.4604 90.9069 79.3207 91.9596 83.3348C93.0124 87.3488 93.7676 90.1391 93.7676 90.1391L89.3392 92.2091Z" fill="black"/>
<path d="M72.9989 142.756H115.703C118.747 142.756 121.219 145.226 121.219 148.268V179.717H72.9989V142.756Z" fill="#263238"/>
<path d="M119.193 179.729H114.639V147.411C114.639 146.153 115.658 145.135 116.916 145.135C118.175 145.135 119.193 146.153 119.193 147.411V179.729Z" fill="white"/>
<path d="M113.037 178.711C113.037 178.711 110.485 172.124 108.666 171.415C106.847 170.705 107.167 173.473 107.167 173.473C107.167 173.473 106.629 170.454 105.313 170.511C103.734 170.58 104.089 173.473 104.089 173.473C104.089 173.473 103.551 171.026 102.384 171.151C101.171 171.289 101.331 174.571 101.331 174.571C101.331 174.571 100.622 172.924 99.8666 173.462C99.1114 174.01 99.3059 180.998 100.748 182.976C102.189 184.943 111.184 184.406 113.094 183.834C113.644 183.662 114.536 183.216 115.177 180.666C115.314 180.129 115.017 179.568 114.49 179.385L113.106 178.905L113.026 178.711H113.037Z" fill="#EEC1BB"/>
<path opacity="0.2" d="M107.03 173.484L108.22 178.711C108.231 178.779 108.311 178.825 108.392 178.814C108.472 178.802 108.529 178.722 108.506 178.653L107.316 173.439C107.304 173.37 107.224 173.324 107.144 173.336C107.064 173.347 107.018 173.416 107.03 173.484Z" fill="black"/>
<path opacity="0.2" d="M103.963 173.633L104.707 178.733C104.707 178.802 104.787 178.848 104.867 178.836C104.947 178.836 104.993 178.768 104.993 178.688L104.249 173.587C104.249 173.518 104.169 173.473 104.089 173.484C104.009 173.484 103.952 173.564 103.963 173.633Z" fill="black"/>
<path opacity="0.2" d="M101.217 174.765L101.663 178.574C101.663 178.642 101.743 178.699 101.823 178.688C101.903 178.688 101.961 178.608 101.949 178.539L101.503 174.731C101.503 174.662 101.423 174.605 101.343 174.617C101.263 174.617 101.205 174.697 101.217 174.765Z" fill="black"/>
<path d="M24.0239 86.205C18.5199 84.7641 12.501 87.2686 8.67911 91.4656C4.85722 95.6626 2.95772 101.312 2.13384 106.938C1.30996 112.565 1.47015 118.271 1.20697 123.944C0.943787 129.502 0.280111 135.094 1.10399 140.594C1.92787 146.095 4.50249 151.653 9.26268 154.546C12.7184 156.651 16.9522 157.119 20.9915 156.845C25.0308 156.571 28.99 155.61 32.995 155.038C36.8512 154.501 41.2223 154.077 43.6368 151.036C45.2731 148.966 45.5706 146.175 45.6736 143.545C46.2915 128.621 42.9616 113.754 37.8582 99.7223C36.6567 96.4173 35.3064 93.078 33.0064 90.4135C30.7064 87.7489 27.2507 85.8391 23.7607 86.2279" fill="#407BFF"/>
<g opacity="0.3">
<path d="M24.0239 86.205C18.5199 84.7641 12.501 87.2686 8.67911 91.4656C4.85722 95.6626 2.95772 101.312 2.13384 106.938C1.30996 112.565 1.47015 118.271 1.20697 123.944C0.943787 129.502 0.280111 135.094 1.10399 140.594C1.92787 146.095 4.50249 151.653 9.26268 154.546C12.7184 156.651 16.9522 157.119 20.9915 156.845C25.0308 156.571 28.99 155.61 32.995 155.038C36.8512 154.501 41.2223 154.077 43.6368 151.036C45.2731 148.966 45.5706 146.175 45.6736 143.545C46.2915 128.621 42.9616 113.754 37.8582 99.7223C36.6567 96.4173 35.3064 93.078 33.0064 90.4135C30.7064 87.7489 27.2507 85.8391 23.7607 86.2279" fill="black"/>
</g>
<g opacity="0.3">
<path d="M9.26279 154.741C10.4872 155.484 11.8145 156.021 13.1877 156.387C15.6593 156.994 18.0852 157.119 20.019 157.074C20.3394 157.062 20.6712 157.051 20.9916 157.028C22.0215 156.959 23.0399 156.845 24.0583 156.696L34.7916 140.777H1.09265C1.91653 146.278 4.49116 151.836 9.25135 154.729L9.26279 154.741Z" fill="black"/>
</g>
<path opacity="0.3" d="M7.28322 140.126C7.11157 115.093 7.28321 115.035 7.52351 114.944L7.84391 115.024L7.62649 115.218L7.88968 115.31C7.74092 115.996 7.7867 130.531 7.85535 140.137H7.28322V140.126Z" fill="black"/>
<path opacity="0.2" d="M36.9656 108.128L33.8532 117.105C33.8532 117.105 30.3632 117.883 27.697 112.611C25.0308 107.339 25.6373 98.4646 25.6373 98.4646L33.9447 92.5522L36.9542 108.117L36.9656 108.128Z" fill="black"/>
<path opacity="0.3" d="M37.8926 120.685C37.8926 120.685 31.2672 124.436 31.702 124.996C32.1368 125.556 33.3841 129.639 33.8418 129.605C34.311 129.582 41.8403 124.916 41.8403 124.916L37.8811 120.685H37.8926Z" fill="black"/>
<path d="M49.69 359.971L61.0412 358.759L63.4099 328.911L46.1084 330.58L49.69 359.971Z" fill="#EEC1BB"/>
<path d="M61.888 354.425H57.8373C56.9218 354.425 56.0751 354.893 55.5258 355.625C53.1915 358.816 51.4293 357.615 48.889 354.608C47.2756 354.425 46.8408 356.277 46.7035 356.769L43.6711 367.793C43.4079 368.708 43.9457 369.669 44.8612 369.932C45.0214 369.977 45.193 370 45.3646 370H77.4845C82.5994 370 83.6522 364.854 81.5467 364.374C72.0835 362.281 65.3781 359.502 62.4602 356.746C61.9223 356.266 62.4716 355.9 61.888 354.413V354.425Z" fill="#263238"/>
<path d="M70.6874 357.558C71.1108 357.249 71.3739 356.757 71.3739 356.231C71.4083 355.945 71.2824 355.671 71.0421 355.522C69.7719 354.619 64.7028 356.986 64.1306 357.272C64.062 357.295 64.0162 357.341 63.9933 357.409C63.9476 357.524 64.0162 357.649 64.1306 357.695C65.3779 357.992 66.6481 358.153 67.9297 358.187C68.8909 358.278 69.852 358.061 70.6874 357.569V357.558ZM70.7217 355.9C70.8247 355.968 70.8819 356.083 70.859 356.208C70.8361 356.586 70.653 356.94 70.3555 357.169C69.1998 358.027 66.4192 357.661 64.9317 357.375C67.0371 356.449 70.0237 355.408 70.7331 355.888L70.7217 355.9Z" fill="#407BFF"/>
<path d="M64.3024 357.741C65.8243 357.1 69.0169 354.607 68.8452 353.281C68.8223 353.006 68.6164 352.675 67.9298 352.583C65.1492 352.263 63.9591 357.249 63.9591 357.466C63.9363 357.546 63.9591 357.649 64.0278 357.706C64.085 357.718 64.1308 357.718 64.188 357.706L64.3024 357.741ZM67.8382 352.995C68.3532 353.052 68.3532 353.235 68.3532 353.304C68.5019 354.116 66.179 356.185 64.5313 357.066C64.8746 355.9 65.893 352.995 67.6552 352.995H67.8382Z" fill="#407BFF"/>
<path d="M61.2587 360.051C61.2587 360.051 61.1557 360.039 61.1099 360.005C60.9726 359.925 60.9383 359.742 61.0184 359.616C61.8194 358.347 63.1811 357.466 64.6686 357.272C64.8174 357.249 64.9661 357.363 64.989 357.512C65.0119 357.672 64.8975 357.809 64.7487 357.832C63.4328 358.015 62.2199 358.793 61.5104 359.914C61.4532 360.005 61.3617 360.051 61.2701 360.051H61.2587Z" fill="#407BFF"/>
<path d="M63.776 361.949C63.776 361.949 63.673 361.938 63.6273 361.904C63.4899 361.824 63.4556 361.641 63.5357 361.515C64.3367 360.245 65.6984 359.365 67.186 359.17C67.3347 359.148 67.4835 359.262 67.5064 359.411C67.5293 359.571 67.4148 359.708 67.2661 359.731C65.9501 359.914 64.7372 360.691 64.0278 361.812C63.9705 361.904 63.879 361.949 63.7875 361.949H63.776Z" fill="#407BFF"/>
<path d="M66.9114 363.539C66.9114 363.539 66.8084 363.528 66.7626 363.493C66.6253 363.413 66.591 363.23 66.6711 363.105C67.4721 361.835 68.8338 360.955 70.3213 360.76C70.4701 360.749 70.6189 360.852 70.6417 361C70.6646 361.16 70.5502 361.298 70.4014 361.32C69.0855 361.503 67.8726 362.281 67.1631 363.402C67.1059 363.493 67.0144 363.539 66.9228 363.539H66.9114Z" fill="#407BFF"/>
<path opacity="0.3" d="M62.2771 345.744L61.7278 350.113H48.4885L48.1338 347.231L62.2771 345.744Z" fill="black"/>
<path d="M90.8039 360.016L102.144 358.804L104.524 328.956L87.2223 330.626L90.8039 360.016Z" fill="#EEC1BB"/>
<path d="M103.322 354.412H99.2715C98.3561 354.412 97.5093 354.881 96.96 355.613C94.6257 358.804 92.8635 357.603 90.3232 354.595C88.7098 354.412 88.275 356.265 88.1377 356.757L85.1053 367.781C84.8421 368.696 85.38 369.656 86.2954 369.919C86.4556 369.965 86.6272 369.988 86.7988 369.988H118.919C124.022 369.988 125.086 364.842 122.981 364.362C113.518 362.269 106.812 359.49 103.894 356.734C103.357 356.254 103.906 355.888 103.322 354.401V354.412Z" fill="#263238"/>
<path d="M112.122 357.546C112.545 357.237 112.808 356.745 112.808 356.219C112.843 355.933 112.717 355.659 112.477 355.51C111.206 354.607 106.137 356.974 105.565 357.26C105.496 357.283 105.451 357.328 105.428 357.397C105.382 357.511 105.451 357.637 105.565 357.683C106.812 357.98 108.082 358.14 109.364 358.175C110.325 358.266 111.286 358.049 112.122 357.557V357.546ZM112.156 355.887C112.259 355.956 112.316 356.07 112.293 356.196C112.271 356.574 112.087 356.928 111.79 357.157C110.634 358.015 107.854 357.649 106.366 357.363C108.472 356.436 111.458 355.396 112.168 355.876L112.156 355.887Z" fill="#407BFF"/>
<path d="M105.737 357.729C107.259 357.089 110.451 354.596 110.279 353.269C110.257 352.995 110.051 352.663 109.364 352.571C106.583 352.251 105.393 357.237 105.393 357.455C105.37 357.535 105.393 357.638 105.462 357.695C105.519 357.706 105.565 357.706 105.622 357.695L105.737 357.729ZM109.272 352.983C109.787 353.04 109.787 353.223 109.787 353.292C109.936 354.104 107.613 356.174 105.965 357.054C106.309 355.888 107.327 352.983 109.089 352.983H109.272Z" fill="#407BFF"/>
<path d="M102.693 360.039C102.693 360.039 102.59 360.028 102.544 359.993C102.407 359.913 102.372 359.73 102.453 359.605C103.254 358.335 104.615 357.455 106.103 357.26C106.252 357.249 106.4 357.352 106.423 357.5C106.446 357.66 106.332 357.798 106.183 357.821C104.867 358.004 103.654 358.781 102.945 359.902C102.887 359.993 102.796 360.039 102.704 360.039H102.693Z" fill="#407BFF"/>
<path d="M105.21 361.938C105.21 361.938 105.107 361.926 105.061 361.892C104.924 361.812 104.89 361.629 104.97 361.503C105.771 360.234 107.133 359.353 108.62 359.159C108.769 359.147 108.918 359.25 108.941 359.399C108.963 359.547 108.849 359.696 108.7 359.719C107.384 359.902 106.171 360.68 105.462 361.8C105.405 361.892 105.313 361.938 105.222 361.938H105.21Z" fill="#407BFF"/>
<path d="M108.346 363.527C108.346 363.527 108.243 363.516 108.197 363.481C108.06 363.401 108.025 363.218 108.105 363.092C108.906 361.823 110.268 360.942 111.756 360.748C111.904 360.725 112.053 360.84 112.076 360.988C112.099 361.148 111.984 361.286 111.836 361.308C110.52 361.491 109.307 362.269 108.597 363.39C108.54 363.481 108.449 363.527 108.357 363.527H108.346Z" fill="#407BFF"/>
<path opacity="0.3" d="M102.91 349.243L102.704 351.782L89.8426 352.171L89.4879 349.3L102.91 349.243Z" fill="black"/>
<path d="M23.2572 165.765C24.3099 135.14 39.4372 124.996 39.4372 124.996H86.2954C88.0461 131.881 90.4491 143.968 92.669 151.813L114.399 246.961C114.994 249.191 115.349 251.478 115.486 253.776L109.925 349.484L82.5765 349.713C81.5238 346.968 81.2949 287.661 78.0795 260.73C73.7999 246.046 70.2412 232.974 67.678 221.367L68.1472 264.16L69.8292 348.969L40.8447 348.626C30.5119 282.572 30.878 242.581 27.079 205.906C25.6716 192.308 22.9024 176.161 23.2572 165.777V165.765Z" fill="#407BFF"/>
<path d="M34.803 62.1784C34.2079 62.5787 30.7865 63.2534 25.6831 69.5546C21.106 75.204 -0.692521 97.6413 0.0169303 105.521C0.657725 112.554 29.2303 135.174 29.2303 135.174L34.5512 128.633L16.6776 105.669L29.9741 90.8598L34.803 62.167V62.1784Z" fill="#EEC1BB"/>
<path d="M33.2583 129.57C33.2583 129.57 37.5264 123.567 39.3344 123.178C41.1538 122.777 49.4383 123.807 49.5985 124.996C49.7587 126.185 48.4886 126.334 48.4886 126.334L50.5368 128.701C50.5368 128.701 50.5368 129.41 49.5871 129.57C49.5871 129.57 49.507 131.309 48.5572 131.389C47.6075 131.469 43.9 130.199 43.9 130.199L46.9781 132.327C46.9781 132.327 47.4473 133.116 45.0786 132.875C42.71 132.635 41.8747 131.457 41.8747 131.457C41.8747 131.457 36.3821 136.112 33.7045 136.112C31.0269 136.112 29.2075 135.163 29.2075 135.163L33.2354 129.559L33.2583 129.57Z" fill="#EEC1BB"/>
<path d="M39.2885 61.5492C39.2885 61.5492 33.0636 59.6852 27.0219 65.3002C21.3348 70.5836 11.4482 82.3627 11.4482 82.3627L25.6373 98.476L39.0711 88.9269L39.2885 61.5492Z" fill="#263238"/>
<path opacity="0.2" d="M39.2885 61.5492C39.2885 61.5492 33.0636 59.6852 27.0219 65.3002C21.3348 70.5836 11.4482 82.3627 11.4482 82.3627L25.6373 98.476L39.0711 88.9269L39.2885 61.5492Z" fill="white"/>
<path d="M76.5576 59.6281L81.7984 61.3893C81.7984 61.3893 89.3391 77.514 89.3391 84.1812C89.3391 90.8483 86.1466 126.734 86.1466 126.734L39.1512 125.842L36.588 109.397L33.1094 87.0973C33.1094 87.0973 39.9407 74.3348 37.1258 62.5329L39.9293 61.0119L76.569 59.6167L76.5576 59.6281Z" fill="#263238"/>
<path opacity="0.2" d="M76.5576 59.6281L81.7984 61.3893C81.7984 61.3893 89.3391 77.514 89.3391 84.1812C89.3391 90.8483 86.1466 126.734 86.1466 126.734L39.1512 125.842L36.588 109.397L33.1094 87.0973C33.1094 87.0973 39.9407 74.3348 37.1258 62.5329L39.9293 61.0119L76.569 59.6167L76.5576 59.6281Z" fill="white"/>
<path d="M35.1577 61.5608C35.1577 61.5608 37.4004 58.4731 40.8104 60.6002C45.2044 63.3448 49.9646 106.779 37.9039 120.685L33.8646 117.105C33.8646 117.105 39.7004 102.959 39.5975 93.1812C39.483 81.6881 35.1691 61.5494 35.1691 61.5494L35.1577 61.5608Z" fill="#407BFF"/>
<path opacity="0.3" d="M35.1577 61.5608C35.1577 61.5608 37.4004 58.4731 40.8104 60.6002C45.2044 63.3448 49.9646 106.779 37.9039 120.685L33.8646 117.105C33.8646 117.105 39.7004 102.959 39.5975 93.1812C39.483 81.6881 35.1691 61.5494 35.1691 61.5494L35.1577 61.5608Z" fill="black"/>
<g opacity="0.3">
<path d="M54.473 101.552C56.384 102.867 60.3546 103.473 62.8949 103.256C65.4352 103.05 67.9869 102.318 70.0123 100.763C72.0377 99.2192 73.4566 96.7605 73.365 94.2217C68.6277 99.3679 61.4417 102.147 54.473 101.552Z" fill="black"/>
</g>
<path d="M37.1716 18.001C35.9587 22.3352 35.3522 26.8181 35.3866 31.3239C35.3293 36.4701 37.1716 41.2046 35.8443 46.2707C34.288 52.1831 31.3587 56.5631 38.4418 59.8566C40.2955 60.5885 46.097 60.234 48.0423 59.8566C54.9537 58.9761 58.684 62.6585 65.5497 61.5034C74.1089 60.1197 71.3741 62.9787 78.377 60.0282C87.5885 52.1831 87.989 54.1387 87.1422 50.1475C87.4168 46.0992 92.4059 46.6367 92.8636 39.8094C93.3899 40.3355 87.8059 34.8119 87.0049 31.85C86.9248 26.395 89.7397 22.7698 87.3367 13.5295C85.9178 9.11526 81.7412 3.14569 77.0039 1.32737C66.7169 -2.68665 56.4985 3.68318 56.4985 3.68318C47.3786 2.85979 39.792 9.43547 37.1487 18.001H37.1716Z" fill="#263238"/>
<path d="M67.2431 55.831C65.7212 54.3329 65.3894 53.1435 65.664 50.9478C65.8586 49.2553 66.3849 47.5056 67.0257 45.7902L64.76 43.3544L52.974 32.4102C53.569 40.0151 55.6287 52.2973 49.8387 56.6773C49.8387 56.6773 45.2158 59.9251 42.1377 60.8628C44.1287 62.3609 60.6178 78.4856 72.0033 77.0905C82.359 75.8211 79.9103 62.9671 78.1252 60.0394C75.1387 59.2389 69.1083 57.5921 67.2317 55.8424L67.2431 55.831Z" fill="#EEC1BB"/>
<path opacity="0.2" d="M65.6984 51.9317C62.4601 51.1884 57.7914 49.0498 56.9904 45.356C56.6586 43.835 56.6128 42.3369 56.7043 41.3306L66.3735 47.323C66.2705 48.7639 65.4695 49.8618 65.6984 51.9317Z" fill="black"/>
<path d="M48.2139 20.3453C49.8159 31.9071 50.2507 36.8246 56.5214 42.6455C65.9616 51.394 79.7044 47.6658 81.5581 36.0469C83.2288 25.583 80.3338 8.42906 68.6965 4.07196C57.2308 -0.216527 46.6005 8.78357 48.2025 20.3568L48.2139 20.3453Z" fill="#EEC1BB"/>
<path d="M63.0551 24.2678C63.078 25.3542 63.7073 26.2805 64.474 26.3263C65.2407 26.372 65.8357 25.5258 65.8243 24.4279C65.8014 23.3415 65.172 22.4152 64.4053 22.3694C63.6387 22.3237 63.0437 23.17 63.0551 24.2678Z" fill="#263238"/>
<path d="M61.2358 20.2195C61.3846 20.2195 61.5333 20.1738 61.6363 20.0594C63.3299 18.2983 65.3781 18.7672 65.401 18.7786C65.7099 18.8472 65.996 18.6642 66.0532 18.3554C66.099 18.0467 65.893 17.7379 65.5841 17.6693C65.4811 17.6464 62.9065 17.0518 60.801 19.236C60.595 19.4533 60.6065 19.8193 60.8353 20.048C60.9498 20.1623 61.0871 20.2195 61.2244 20.2309L61.2358 20.2195Z" fill="#263238"/>
<path d="M78.1138 16.9145C78.2512 16.8688 78.3656 16.7773 78.4228 16.6401C78.5487 16.3656 78.4228 16.034 78.1253 15.8967C75.1731 14.513 72.9074 15.7595 72.8044 15.8167C72.5298 15.9653 72.4611 16.3084 72.6328 16.5714C72.8044 16.8345 73.1706 16.926 73.4338 16.7773C73.5253 16.7316 75.2989 15.7824 77.6447 16.8917C77.7934 16.9603 77.9651 16.9717 78.1024 16.9145H78.1138Z" fill="#263238"/>
<path d="M71.7631 22.438C71.7631 22.438 73.777 26.7036 75.9626 29.3224C76.3402 29.7799 76.1571 30.4775 75.6078 30.7176C74.2004 31.3123 72.4954 30.912 72.4954 30.912L71.7745 22.4494L71.7631 22.438Z" fill="#D8847C"/>
<path d="M63.9133 22.381L66.6024 21.855C66.6024 21.855 64.6914 23.7876 63.9133 22.381Z" fill="#263238"/>
<path d="M74.2576 23.5134C74.2805 24.5998 74.9099 25.5262 75.6765 25.5719C76.4432 25.6176 77.0382 24.7714 77.0268 23.6735C77.0039 22.5871 76.3745 21.6608 75.6078 21.6151C74.8412 21.5693 74.2462 22.4156 74.2576 23.5134Z" fill="#263238"/>
<path d="M75.2761 21.6261L77.9652 21.1001C77.9652 21.1001 76.0542 23.0328 75.2761 21.6261Z" fill="#263238"/>
<path d="M70.2298 36.2071C68.1244 36.2071 66.0647 35.0407 65.0119 33.2109C64.9318 33.0737 64.9776 32.9022 65.1149 32.8221C65.2522 32.7421 65.4239 32.7878 65.504 32.925C66.511 34.6862 68.5592 35.7611 70.5846 35.6239C70.7219 35.6125 70.8821 35.7268 70.8935 35.8869C70.8935 36.047 70.7906 36.1843 70.6304 36.1957C70.493 36.1957 70.3672 36.2071 70.2298 36.2071Z" fill="#263238"/>
<path d="M51.9442 39.1231C40.6044 31.7469 40.9705 3.52295 61.27 1.87617C81.5695 0.229388 81.6381 24.6223 81.6381 24.6223C78.1252 2.04771 58.2033 10.1215 58.2033 10.1215C62.1053 19.1102 54.1869 25.0111 54.1869 25.0111C51.372 31.1637 51.9327 39.1345 51.9327 39.1345L51.9442 39.1231Z" fill="#263238"/>
<path d="M45.1358 29.9746C46.6234 32.2961 48.9234 33.6913 50.9831 34.103C54.0955 34.732 55.4572 29.7116 54.2671 26.6811C53.1915 23.9479 50.0905 22.2553 47.1154 22.9987C44.1975 23.7306 43.4308 27.3215 45.1358 29.9746Z" fill="#EEC1BB"/>
<path opacity="0.2" d="M50.2621 31.2209C50.2621 31.2209 50.2163 31.2209 50.1934 31.2209C48.3053 30.7864 47.4357 29.8029 47.0352 29.0595C46.566 28.179 46.6004 27.3556 46.7834 26.8867C47.1496 25.9261 48.3282 25.1827 49.4725 25.6173C49.6213 25.6745 49.7014 25.8346 49.6441 25.9833C49.5869 26.1319 49.4267 26.2005 49.278 26.1548C48.4541 25.846 47.5844 26.4064 47.3213 27.104C47.1839 27.4471 47.1725 28.0989 47.5501 28.8079C47.8934 29.4484 48.6601 30.3061 50.3307 30.6834C50.4795 30.7177 50.5824 30.8664 50.5481 31.0265C50.5138 31.1638 50.3994 31.2438 50.2735 31.2438L50.2621 31.2209Z" fill="black"/>
<path d="M49.69 40.3927C48.8203 40.3927 47.9735 40.1068 47.2641 39.5693C46.4059 38.9175 45.8452 37.9683 45.6964 36.9048C45.5477 35.8298 45.8223 34.7777 46.4745 33.9085C47.1268 33.0508 48.0765 32.4905 49.1407 32.3418C51.3492 32.033 53.3974 33.5883 53.7064 35.7955C53.8551 36.8704 53.5805 37.9226 52.9283 38.7917C52.276 39.6494 51.3263 40.2098 50.2621 40.3584C50.079 40.3813 49.8845 40.3927 49.7014 40.3927H49.69ZM49.7014 32.5934C49.5298 32.5934 49.3581 32.6048 49.1865 32.6277C47.1382 32.9136 45.6964 34.812 45.9825 36.859C46.1198 37.8539 46.6347 38.7345 47.4357 39.3406C48.2367 39.9467 49.2208 40.1983 50.2163 40.0611C51.2118 39.9239 52.0929 39.4092 52.6994 38.6087C53.3059 37.8082 53.5576 36.8247 53.4203 35.8298C53.1571 33.9543 51.5437 32.5934 49.7014 32.5934Z" fill="#407BFF"/>
<g opacity="0.3">
<path d="M46.0512 58.4045C42.2865 57.3752 39.1283 50.8338 41.0736 48.5695C42.5497 46.8427 43.6596 44.8071 44.4721 42.68C45.3646 40.3471 45.3875 37.6939 44.5522 35.3495C43.8198 33.2911 42.4696 31.4842 41.8631 29.3914C41.1994 27.1271 41.4855 24.5998 42.6298 22.5298C43.877 20.2655 46.0397 18.653 48.2367 17.2922C50.4338 15.9313 52.791 14.742 54.6447 12.9351C58.2263 9.4471 56.3039 4.7126 54.7019 3.61475C54.9422 6.18784 54.1412 10.545 50.7999 12.9351C48.6945 14.4332 46.589 15.9199 44.392 17.2922C42.195 18.653 40.0437 20.2655 38.785 22.5298C37.6407 24.5998 37.3661 27.1157 38.0183 29.3914C38.6248 31.4842 39.9751 33.2911 40.7074 35.3495C41.5427 37.7054 41.5084 40.3471 40.6273 42.68C39.8263 44.7957 38.3616 46.6025 37.2288 48.5695C36.096 50.5365 35.2721 52.8695 35.9014 55.0537C35.9014 55.0537 36.1074 58.0728 41.7945 60.0169L46.0626 58.393L46.0512 58.4045Z" fill="#407BFF"/>
</g>
<path opacity="0.3" d="M55.7203 4.80376C55.48 4.43781 71.7287 0.023522 78.48 8.28029C85.2198 16.5371 84.9909 29.677 84.9909 29.677C84.9909 29.677 88.8586 8.7263 76.4546 3.62586C64.0506 -1.48602 55.7203 4.81519 55.7203 4.81519V4.80376Z" fill="#407BFF"/>
</svg>
