<svg width="16" height="24" viewBox="0 0 16 24" fill="none" xmlns="http://www.w3.org/2000/svg">
<path d="M15.8474 16.2954C15.2474 14.7954 11.1674 17.6353 11.1674 17.6353C11.1674 17.6353 17.5474 10.2754 15.1074 9.11536C12.6674 7.95536 9.17738 15.1653 9.17738 15.1653C9.17738 15.1653 15.0774 0.335345 11.3574 0.00534515C7.63737 -0.324655 6.32737 14.7354 6.32737 14.7354C6.32737 14.7354 6.44736 3.64535 4.02736 4.72535C1.60736 5.79535 3.27736 15.8854 3.27736 15.8854C3.27736 15.8854 0.607365 11.6653 0.0373653 13.5253C-0.532635 15.3953 5.60737 23.8054 5.60737 23.8054C9.69737 21.8954 16.4574 17.7953 15.8574 16.2853L15.8474 16.2954Z" fill="#407BFF"/>
</svg>
