<svg width="572" height="423" viewBox="0 0 572 423" fill="none" xmlns="http://www.w3.org/2000/svg">
<path d="M549.904 133.246C526.967 105.777 493.932 89.8434 460.639 79.1251C427.346 68.4068 392.796 62.1179 360.049 49.7215C339.988 42.1326 317.626 27.3627 318.292 5.01903L196.794 0C204.303 38.8067 240.2 64.4309 275.916 77.2959C311.631 90.1609 350.208 94.7415 383.728 112.973C410.056 127.29 434.219 156.24 427.149 186.444C421.29 211.434 396.914 226.037 374.144 235.607C316.839 259.689 255.386 270.377 195.295 285.253C135.204 300.113 74.6444 320.038 25.6514 359.419C16.6582 366.645 7.86184 374.824 3.12302 385.618C-1.6158 396.412 -1.32814 410.395 6.52952 418.967L527.088 422.641C505.741 413.631 483.909 404.318 466.831 388.158C449.753 371.997 438.095 347.31 443.076 323.757C449.359 294.006 478.231 276.666 504.53 263.71C530.828 250.754 560.139 235.501 569.298 206.581C577.277 181.38 566.604 153.246 549.919 133.276L549.904 133.246Z" fill="#F0F0F0"/>
</svg>
